<svg xmlns="http://www.w3.org/2000/svg" width="840" height="560" viewBox="0 0 840 560"><defs><pattern id="pattern" patternUnits="userSpaceOnUse" width="96" height="168"><rect x="0" y="0" width="100%" height="100%" fill="rgb(92,65,142)"></rect><polyline points="16.166666666666664,0,32.33333333333333,28.001488055696843,0,28.001488055696843,16.166666666666664,0" fill="#ddd" fill-opacity="0.05466666666666667" stroke="#000" stroke-opacity="0.02" transform="translate(-16.166666666666664,0) rotate(180,16.166666666666664,14.000744027848421)"></polyline><polyline points="16.166666666666664,0,32.33333333333333,28.001488055696843,0,28.001488055696843,16.166666666666664,0" fill="#ddd" fill-opacity="0.05466666666666667" stroke="#000" stroke-opacity="0.02" transform="translate(80.83333333333331,0) rotate(180,16.166666666666664,14.000744027848421)"></polyline><polyline points="16.166666666666664,0,32.33333333333333,28.001488055696843,0,28.001488055696843,16.166666666666664,0" fill="#ddd" fill-opacity="0.08933333333333333" stroke="#000" stroke-opacity="0.02" transform="translate(0,0) rotate(0,16.166666666666664,14.000744027848421)"></polyline><polyline points="16.166666666666664,0,32.33333333333333,28.001488055696843,0,28.001488055696843,16.166666666666664,0" fill="#222" fill-opacity="0.11533333333333334" stroke="#000" stroke-opacity="0.02" transform="translate(16.166666666666664,0) rotate(180,16.166666666666664,14.000744027848421)"></polyline><polyline points="16.166666666666664,0,32.33333333333333,28.001488055696843,0,28.001488055696843,16.166666666666664,0" fill="#222" fill-opacity="0.028666666666666667" stroke="#000" stroke-opacity="0.02" transform="translate(32.33333333333333,0) rotate(0,16.166666666666664,14.000744027848421)"></polyline><polyline points="16.166666666666664,0,32.33333333333333,28.001488055696843,0,28.001488055696843,16.166666666666664,0" fill="#222" fill-opacity="0.11533333333333334" stroke="#000" stroke-opacity="0.02" transform="translate(48.49999999999999,0) rotate(180,16.166666666666664,14.000744027848421)"></polyline><polyline points="16.166666666666664,0,32.33333333333333,28.001488055696843,0,28.001488055696843,16.166666666666664,0" fill="#ddd" fill-opacity="0.03733333333333333" stroke="#000" stroke-opacity="0.02" transform="translate(64.66666666666666,0) rotate(0,16.166666666666664,14.000744027848421)"></polyline><polyline points="16.166666666666664,0,32.33333333333333,28.001488055696843,0,28.001488055696843,16.166666666666664,0" fill="#222" fill-opacity="0.098" stroke="#000" stroke-opacity="0.02" transform="translate(-16.166666666666664,28.001488055696843) rotate(0,16.166666666666664,14.000744027848421)"></polyline><polyline points="16.166666666666664,0,32.33333333333333,28.001488055696843,0,28.001488055696843,16.166666666666664,0" fill="#222" fill-opacity="0.098" stroke="#000" stroke-opacity="0.02" transform="translate(80.83333333333331,28.001488055696843) rotate(0,16.166666666666664,14.000744027848421)"></polyline><polyline points="16.166666666666664,0,32.33333333333333,28.001488055696843,0,28.001488055696843,16.166666666666664,0" fill="#222" fill-opacity="0.15" stroke="#000" stroke-opacity="0.02" transform="translate(0,28.001488055696843) rotate(180,16.166666666666664,14.000744027848421)"></polyline><polyline points="16.166666666666664,0,32.33333333333333,28.001488055696843,0,28.001488055696843,16.166666666666664,0" fill="#222" fill-opacity="0.028666666666666667" stroke="#000" stroke-opacity="0.02" transform="translate(16.166666666666664,28.001488055696843) rotate(0,16.166666666666664,14.000744027848421)"></polyline><polyline points="16.166666666666664,0,32.33333333333333,28.001488055696843,0,28.001488055696843,16.166666666666664,0" fill="#222" fill-opacity="0.11533333333333334" stroke="#000" stroke-opacity="0.02" transform="translate(32.33333333333333,28.001488055696843) rotate(180,16.166666666666664,14.000744027848421)"></polyline><polyline points="16.166666666666664,0,32.33333333333333,28.001488055696843,0,28.001488055696843,16.166666666666664,0" fill="#ddd" fill-opacity="0.10666666666666667" stroke="#000" stroke-opacity="0.02" transform="translate(48.49999999999999,28.001488055696843) rotate(0,16.166666666666664,14.000744027848421)"></polyline><polyline points="16.166666666666664,0,32.33333333333333,28.001488055696843,0,28.001488055696843,16.166666666666664,0" fill="#222" fill-opacity="0.046" stroke="#000" stroke-opacity="0.02" transform="translate(64.66666666666666,28.001488055696843) rotate(180,16.166666666666664,14.000744027848421)"></polyline><polyline points="16.166666666666664,0,32.33333333333333,28.001488055696843,0,28.001488055696843,16.166666666666664,0" fill="#ddd" fill-opacity="0.03733333333333333" stroke="#000" stroke-opacity="0.02" transform="translate(-16.166666666666664,56.002976111393686) rotate(180,16.166666666666664,14.000744027848421)"></polyline><polyline points="16.166666666666664,0,32.33333333333333,28.001488055696843,0,28.001488055696843,16.166666666666664,0" fill="#ddd" fill-opacity="0.03733333333333333" stroke="#000" stroke-opacity="0.02" transform="translate(80.83333333333331,56.002976111393686) rotate(180,16.166666666666664,14.000744027848421)"></polyline><polyline points="16.166666666666664,0,32.33333333333333,28.001488055696843,0,28.001488055696843,16.166666666666664,0" fill="#ddd" fill-opacity="0.14133333333333334" stroke="#000" stroke-opacity="0.02" transform="translate(0,56.002976111393686) rotate(0,16.166666666666664,14.000744027848421)"></polyline><polyline points="16.166666666666664,0,32.33333333333333,28.001488055696843,0,28.001488055696843,16.166666666666664,0" fill="#ddd" fill-opacity="0.05466666666666667" stroke="#000" stroke-opacity="0.02" transform="translate(16.166666666666664,56.002976111393686) rotate(180,16.166666666666664,14.000744027848421)"></polyline><polyline points="16.166666666666664,0,32.33333333333333,28.001488055696843,0,28.001488055696843,16.166666666666664,0" fill="#ddd" fill-opacity="0.07200000000000001" stroke="#000" stroke-opacity="0.02" transform="translate(32.33333333333333,56.002976111393686) rotate(0,16.166666666666664,14.000744027848421)"></polyline><polyline points="16.166666666666664,0,32.33333333333333,28.001488055696843,0,28.001488055696843,16.166666666666664,0" fill="#ddd" fill-opacity="0.07200000000000001" stroke="#000" stroke-opacity="0.02" transform="translate(48.49999999999999,56.002976111393686) rotate(180,16.166666666666664,14.000744027848421)"></polyline><polyline points="16.166666666666664,0,32.33333333333333,28.001488055696843,0,28.001488055696843,16.166666666666664,0" fill="#222" fill-opacity="0.06333333333333334" stroke="#000" stroke-opacity="0.02" transform="translate(64.66666666666666,56.002976111393686) rotate(0,16.166666666666664,14.000744027848421)"></polyline><polyline points="16.166666666666664,0,32.33333333333333,28.001488055696843,0,28.001488055696843,16.166666666666664,0" fill="#222" fill-opacity="0.028666666666666667" stroke="#000" stroke-opacity="0.02" transform="translate(-16.166666666666664,84.00446416709053) rotate(0,16.166666666666664,14.000744027848421)"></polyline><polyline points="16.166666666666664,0,32.33333333333333,28.001488055696843,0,28.001488055696843,16.166666666666664,0" fill="#222" fill-opacity="0.028666666666666667" stroke="#000" stroke-opacity="0.02" transform="translate(80.83333333333331,84.00446416709053) rotate(0,16.166666666666664,14.000744027848421)"></polyline><polyline points="16.166666666666664,0,32.33333333333333,28.001488055696843,0,28.001488055696843,16.166666666666664,0" fill="#ddd" fill-opacity="0.05466666666666667" stroke="#000" stroke-opacity="0.02" transform="translate(0,84.00446416709053) rotate(180,16.166666666666664,14.000744027848421)"></polyline><polyline points="16.166666666666664,0,32.33333333333333,28.001488055696843,0,28.001488055696843,16.166666666666664,0" fill="#ddd" fill-opacity="0.08933333333333333" stroke="#000" stroke-opacity="0.02" transform="translate(16.166666666666664,84.00446416709053) rotate(0,16.166666666666664,14.000744027848421)"></polyline><polyline points="16.166666666666664,0,32.33333333333333,28.001488055696843,0,28.001488055696843,16.166666666666664,0" fill="#222" fill-opacity="0.13266666666666665" stroke="#000" stroke-opacity="0.02" transform="translate(32.33333333333333,84.00446416709053) rotate(180,16.166666666666664,14.000744027848421)"></polyline><polyline points="16.166666666666664,0,32.33333333333333,28.001488055696843,0,28.001488055696843,16.166666666666664,0" fill="#ddd" fill-opacity="0.05466666666666667" stroke="#000" stroke-opacity="0.02" transform="translate(48.49999999999999,84.00446416709053) rotate(0,16.166666666666664,14.000744027848421)"></polyline><polyline points="16.166666666666664,0,32.33333333333333,28.001488055696843,0,28.001488055696843,16.166666666666664,0" fill="#222" fill-opacity="0.11533333333333334" stroke="#000" stroke-opacity="0.02" transform="translate(64.66666666666666,84.00446416709053) rotate(180,16.166666666666664,14.000744027848421)"></polyline><polyline points="16.166666666666664,0,32.33333333333333,28.001488055696843,0,28.001488055696843,16.166666666666664,0" fill="#ddd" fill-opacity="0.05466666666666667" stroke="#000" stroke-opacity="0.02" transform="translate(-16.166666666666664,112.00595222278737) rotate(180,16.166666666666664,14.000744027848421)"></polyline><polyline points="16.166666666666664,0,32.33333333333333,28.001488055696843,0,28.001488055696843,16.166666666666664,0" fill="#ddd" fill-opacity="0.05466666666666667" stroke="#000" stroke-opacity="0.02" transform="translate(80.83333333333331,112.00595222278737) rotate(180,16.166666666666664,14.000744027848421)"></polyline><polyline points="16.166666666666664,0,32.33333333333333,28.001488055696843,0,28.001488055696843,16.166666666666664,0" fill="#222" fill-opacity="0.08066666666666666" stroke="#000" stroke-opacity="0.02" transform="translate(0,112.00595222278737) rotate(0,16.166666666666664,14.000744027848421)"></polyline><polyline points="16.166666666666664,0,32.33333333333333,28.001488055696843,0,28.001488055696843,16.166666666666664,0" fill="#ddd" fill-opacity="0.14133333333333334" stroke="#000" stroke-opacity="0.02" transform="translate(16.166666666666664,112.00595222278737) rotate(180,16.166666666666664,14.000744027848421)"></polyline><polyline points="16.166666666666664,0,32.33333333333333,28.001488055696843,0,28.001488055696843,16.166666666666664,0" fill="#ddd" fill-opacity="0.10666666666666667" stroke="#000" stroke-opacity="0.02" transform="translate(32.33333333333333,112.00595222278737) rotate(0,16.166666666666664,14.000744027848421)"></polyline><polyline points="16.166666666666664,0,32.33333333333333,28.001488055696843,0,28.001488055696843,16.166666666666664,0" fill="#222" fill-opacity="0.098" stroke="#000" stroke-opacity="0.02" transform="translate(48.49999999999999,112.00595222278737) rotate(180,16.166666666666664,14.000744027848421)"></polyline><polyline points="16.166666666666664,0,32.33333333333333,28.001488055696843,0,28.001488055696843,16.166666666666664,0" fill="#222" fill-opacity="0.08066666666666666" stroke="#000" stroke-opacity="0.02" transform="translate(64.66666666666666,112.00595222278737) rotate(0,16.166666666666664,14.000744027848421)"></polyline><polyline points="16.166666666666664,0,32.33333333333333,28.001488055696843,0,28.001488055696843,16.166666666666664,0" fill="#222" fill-opacity="0.046" stroke="#000" stroke-opacity="0.02" transform="translate(-16.166666666666664,140.0074402784842) rotate(0,16.166666666666664,14.000744027848421)"></polyline><polyline points="16.166666666666664,0,32.33333333333333,28.001488055696843,0,28.001488055696843,16.166666666666664,0" fill="#222" fill-opacity="0.046" stroke="#000" stroke-opacity="0.02" transform="translate(80.83333333333331,140.0074402784842) rotate(0,16.166666666666664,14.000744027848421)"></polyline><polyline points="16.166666666666664,0,32.33333333333333,28.001488055696843,0,28.001488055696843,16.166666666666664,0" fill="#ddd" fill-opacity="0.14133333333333334" stroke="#000" stroke-opacity="0.02" transform="translate(0,140.0074402784842) rotate(180,16.166666666666664,14.000744027848421)"></polyline><polyline points="16.166666666666664,0,32.33333333333333,28.001488055696843,0,28.001488055696843,16.166666666666664,0" fill="#222" fill-opacity="0.08066666666666666" stroke="#000" stroke-opacity="0.02" transform="translate(16.166666666666664,140.0074402784842) rotate(0,16.166666666666664,14.000744027848421)"></polyline><polyline points="16.166666666666664,0,32.33333333333333,28.001488055696843,0,28.001488055696843,16.166666666666664,0" fill="#222" fill-opacity="0.028666666666666667" stroke="#000" stroke-opacity="0.02" transform="translate(32.33333333333333,140.0074402784842) rotate(180,16.166666666666664,14.000744027848421)"></polyline><polyline points="16.166666666666664,0,32.33333333333333,28.001488055696843,0,28.001488055696843,16.166666666666664,0" fill="#222" fill-opacity="0.11533333333333334" stroke="#000" stroke-opacity="0.02" transform="translate(48.49999999999999,140.0074402784842) rotate(0,16.166666666666664,14.000744027848421)"></polyline><polyline points="16.166666666666664,0,32.33333333333333,28.001488055696843,0,28.001488055696843,16.166666666666664,0" fill="#ddd" fill-opacity="0.02" stroke="#000" stroke-opacity="0.02" transform="translate(64.66666666666666,140.0074402784842) rotate(180,16.166666666666664,14.000744027848421)"></polyline></pattern></defs><rect x="0" y="0" width="840" height="560" fill="url(#pattern)"></rect></svg>