<svg xmlns="http://www.w3.org/2000/svg" width="840" height="560" viewBox="0 0 840 560"><defs><pattern id="pattern" patternUnits="userSpaceOnUse" width="92" height="30"><rect x="0" y="0" width="100%" height="100%" fill="rgb(113,58,149)"></rect><polyline points="7.666666666666666,0,15.333333333333332,5,7.666666666666666,10,0,5" fill="#ddd" fill-opacity="0.03733333333333333" stroke="#000" stroke-opacity="0.02" transform="translate(-7.666666666666666,-5)"></polyline><polyline points="7.666666666666666,0,15.333333333333332,5,7.666666666666666,10,0,5" fill="#ddd" fill-opacity="0.03733333333333333" stroke="#000" stroke-opacity="0.02" transform="translate(84.33333333333333,-5)"></polyline><polyline points="7.666666666666666,0,15.333333333333332,5,7.666666666666666,10,0,5" fill="#ddd" fill-opacity="0.03733333333333333" stroke="#000" stroke-opacity="0.02" transform="translate(-7.666666666666666,25)"></polyline><polyline points="7.666666666666666,0,15.333333333333332,5,7.666666666666666,10,0,5" fill="#ddd" fill-opacity="0.03733333333333333" stroke="#000" stroke-opacity="0.02" transform="translate(84.33333333333333,25)"></polyline><polyline points="7.666666666666666,0,15.333333333333332,5,7.666666666666666,10,0,5" fill="#ddd" fill-opacity="0.02" stroke="#000" stroke-opacity="0.02" transform="translate(7.666666666666666,-5)"></polyline><polyline points="7.666666666666666,0,15.333333333333332,5,7.666666666666666,10,0,5" fill="#ddd" fill-opacity="0.02" stroke="#000" stroke-opacity="0.02" transform="translate(7.666666666666666,25)"></polyline><polyline points="7.666666666666666,0,15.333333333333332,5,7.666666666666666,10,0,5" fill="#ddd" fill-opacity="0.02" stroke="#000" stroke-opacity="0.02" transform="translate(23,-5)"></polyline><polyline points="7.666666666666666,0,15.333333333333332,5,7.666666666666666,10,0,5" fill="#ddd" fill-opacity="0.02" stroke="#000" stroke-opacity="0.02" transform="translate(23,25)"></polyline><polyline points="7.666666666666666,0,15.333333333333332,5,7.666666666666666,10,0,5" fill="#222" fill-opacity="0.028666666666666667" stroke="#000" stroke-opacity="0.02" transform="translate(38.333333333333336,-5)"></polyline><polyline points="7.666666666666666,0,15.333333333333332,5,7.666666666666666,10,0,5" fill="#222" fill-opacity="0.028666666666666667" stroke="#000" stroke-opacity="0.02" transform="translate(38.333333333333336,25)"></polyline><polyline points="7.666666666666666,0,15.333333333333332,5,7.666666666666666,10,0,5" fill="#ddd" fill-opacity="0.08933333333333333" stroke="#000" stroke-opacity="0.02" transform="translate(53.666666666666664,-5)"></polyline><polyline points="7.666666666666666,0,15.333333333333332,5,7.666666666666666,10,0,5" fill="#ddd" fill-opacity="0.08933333333333333" stroke="#000" stroke-opacity="0.02" transform="translate(53.666666666666664,25)"></polyline><polyline points="7.666666666666666,0,15.333333333333332,5,7.666666666666666,10,0,5" fill="#222" fill-opacity="0.13266666666666665" stroke="#000" stroke-opacity="0.02" transform="translate(68.99999999999999,-5)"></polyline><polyline points="7.666666666666666,0,15.333333333333332,5,7.666666666666666,10,0,5" fill="#222" fill-opacity="0.13266666666666665" stroke="#000" stroke-opacity="0.02" transform="translate(68.99999999999999,25)"></polyline><polyline points="7.666666666666666,0,15.333333333333332,5,7.666666666666666,10,0,5" fill="#ddd" fill-opacity="0.02" stroke="#000" stroke-opacity="0.02" transform="translate(0,0)"></polyline><polyline points="7.666666666666666,0,15.333333333333332,5,7.666666666666666,10,0,5" fill="#ddd" fill-opacity="0.02" stroke="#000" stroke-opacity="0.02" transform="translate(92,0)"></polyline><polyline points="7.666666666666666,0,15.333333333333332,5,7.666666666666666,10,0,5" fill="#222" fill-opacity="0.046" stroke="#000" stroke-opacity="0.02" transform="translate(15.333333333333332,0)"></polyline><polyline points="7.666666666666666,0,15.333333333333332,5,7.666666666666666,10,0,5" fill="#ddd" fill-opacity="0.12400000000000001" stroke="#000" stroke-opacity="0.02" transform="translate(30.666666666666664,0)"></polyline><polyline points="7.666666666666666,0,15.333333333333332,5,7.666666666666666,10,0,5" fill="#ddd" fill-opacity="0.12400000000000001" stroke="#000" stroke-opacity="0.02" transform="translate(46,0)"></polyline><polyline points="7.666666666666666,0,15.333333333333332,5,7.666666666666666,10,0,5" fill="#222" fill-opacity="0.06333333333333334" stroke="#000" stroke-opacity="0.02" transform="translate(61.33333333333333,0)"></polyline><polyline points="7.666666666666666,0,15.333333333333332,5,7.666666666666666,10,0,5" fill="#222" fill-opacity="0.15" stroke="#000" stroke-opacity="0.02" transform="translate(76.66666666666666,0)"></polyline><polyline points="7.666666666666666,0,15.333333333333332,5,7.666666666666666,10,0,5" fill="#222" fill-opacity="0.098" stroke="#000" stroke-opacity="0.02" transform="translate(-7.666666666666666,5)"></polyline><polyline points="7.666666666666666,0,15.333333333333332,5,7.666666666666666,10,0,5" fill="#222" fill-opacity="0.098" stroke="#000" stroke-opacity="0.02" transform="translate(84.33333333333333,5)"></polyline><polyline points="7.666666666666666,0,15.333333333333332,5,7.666666666666666,10,0,5" fill="#ddd" fill-opacity="0.14133333333333334" stroke="#000" stroke-opacity="0.02" transform="translate(7.666666666666666,5)"></polyline><polyline points="7.666666666666666,0,15.333333333333332,5,7.666666666666666,10,0,5" fill="#222" fill-opacity="0.046" stroke="#000" stroke-opacity="0.02" transform="translate(23,5)"></polyline><polyline points="7.666666666666666,0,15.333333333333332,5,7.666666666666666,10,0,5" fill="#222" fill-opacity="0.11533333333333334" stroke="#000" stroke-opacity="0.02" transform="translate(38.333333333333336,5)"></polyline><polyline points="7.666666666666666,0,15.333333333333332,5,7.666666666666666,10,0,5" fill="#222" fill-opacity="0.15" stroke="#000" stroke-opacity="0.02" transform="translate(53.666666666666664,5)"></polyline><polyline points="7.666666666666666,0,15.333333333333332,5,7.666666666666666,10,0,5" fill="#ddd" fill-opacity="0.03733333333333333" stroke="#000" stroke-opacity="0.02" transform="translate(68.99999999999999,5)"></polyline><polyline points="7.666666666666666,0,15.333333333333332,5,7.666666666666666,10,0,5" fill="#222" fill-opacity="0.028666666666666667" stroke="#000" stroke-opacity="0.02" transform="translate(0,10)"></polyline><polyline points="7.666666666666666,0,15.333333333333332,5,7.666666666666666,10,0,5" fill="#222" fill-opacity="0.028666666666666667" stroke="#000" stroke-opacity="0.02" transform="translate(92,10)"></polyline><polyline points="7.666666666666666,0,15.333333333333332,5,7.666666666666666,10,0,5" fill="#222" fill-opacity="0.06333333333333334" stroke="#000" stroke-opacity="0.02" transform="translate(15.333333333333332,10)"></polyline><polyline points="7.666666666666666,0,15.333333333333332,5,7.666666666666666,10,0,5" fill="#222" fill-opacity="0.11533333333333334" stroke="#000" stroke-opacity="0.02" transform="translate(30.666666666666664,10)"></polyline><polyline points="7.666666666666666,0,15.333333333333332,5,7.666666666666666,10,0,5" fill="#222" fill-opacity="0.11533333333333334" stroke="#000" stroke-opacity="0.02" transform="translate(46,10)"></polyline><polyline points="7.666666666666666,0,15.333333333333332,5,7.666666666666666,10,0,5" fill="#222" fill-opacity="0.11533333333333334" stroke="#000" stroke-opacity="0.02" transform="translate(61.33333333333333,10)"></polyline><polyline points="7.666666666666666,0,15.333333333333332,5,7.666666666666666,10,0,5" fill="#222" fill-opacity="0.098" stroke="#000" stroke-opacity="0.02" transform="translate(76.66666666666666,10)"></polyline><polyline points="7.666666666666666,0,15.333333333333332,5,7.666666666666666,10,0,5" fill="#222" fill-opacity="0.11533333333333334" stroke="#000" stroke-opacity="0.02" transform="translate(-7.666666666666666,15)"></polyline><polyline points="7.666666666666666,0,15.333333333333332,5,7.666666666666666,10,0,5" fill="#222" fill-opacity="0.11533333333333334" stroke="#000" stroke-opacity="0.02" transform="translate(84.33333333333333,15)"></polyline><polyline points="7.666666666666666,0,15.333333333333332,5,7.666666666666666,10,0,5" fill="#ddd" fill-opacity="0.12400000000000001" stroke="#000" stroke-opacity="0.02" transform="translate(7.666666666666666,15)"></polyline><polyline points="7.666666666666666,0,15.333333333333332,5,7.666666666666666,10,0,5" fill="#ddd" fill-opacity="0.08933333333333333" stroke="#000" stroke-opacity="0.02" transform="translate(23,15)"></polyline><polyline points="7.666666666666666,0,15.333333333333332,5,7.666666666666666,10,0,5" fill="#ddd" fill-opacity="0.07200000000000001" stroke="#000" stroke-opacity="0.02" transform="translate(38.333333333333336,15)"></polyline><polyline points="7.666666666666666,0,15.333333333333332,5,7.666666666666666,10,0,5" fill="#222" fill-opacity="0.098" stroke="#000" stroke-opacity="0.02" transform="translate(53.666666666666664,15)"></polyline><polyline points="7.666666666666666,0,15.333333333333332,5,7.666666666666666,10,0,5" fill="#222" fill-opacity="0.06333333333333334" stroke="#000" stroke-opacity="0.02" transform="translate(68.99999999999999,15)"></polyline><polyline points="7.666666666666666,0,15.333333333333332,5,7.666666666666666,10,0,5" fill="#ddd" fill-opacity="0.07200000000000001" stroke="#000" stroke-opacity="0.02" transform="translate(0,20)"></polyline><polyline points="7.666666666666666,0,15.333333333333332,5,7.666666666666666,10,0,5" fill="#ddd" fill-opacity="0.07200000000000001" stroke="#000" stroke-opacity="0.02" transform="translate(92,20)"></polyline><polyline points="7.666666666666666,0,15.333333333333332,5,7.666666666666666,10,0,5" fill="#ddd" fill-opacity="0.03733333333333333" stroke="#000" stroke-opacity="0.02" transform="translate(15.333333333333332,20)"></polyline><polyline points="7.666666666666666,0,15.333333333333332,5,7.666666666666666,10,0,5" fill="#ddd" fill-opacity="0.08933333333333333" stroke="#000" stroke-opacity="0.02" transform="translate(30.666666666666664,20)"></polyline><polyline points="7.666666666666666,0,15.333333333333332,5,7.666666666666666,10,0,5" fill="#222" fill-opacity="0.08066666666666666" stroke="#000" stroke-opacity="0.02" transform="translate(46,20)"></polyline><polyline points="7.666666666666666,0,15.333333333333332,5,7.666666666666666,10,0,5" fill="#ddd" fill-opacity="0.10666666666666667" stroke="#000" stroke-opacity="0.02" transform="translate(61.33333333333333,20)"></polyline><polyline points="7.666666666666666,0,15.333333333333332,5,7.666666666666666,10,0,5" fill="#ddd" fill-opacity="0.05466666666666667" stroke="#000" stroke-opacity="0.02" transform="translate(76.66666666666666,20)"></polyline></pattern></defs><rect x="0" y="0" width="840" height="560" fill="url(#pattern)"></rect></svg>