<svg xmlns="http://www.w3.org/2000/svg" width="840" height="560" viewBox="0 0 840 560"><defs><pattern id="pattern" patternUnits="userSpaceOnUse" width="268" height="142"><rect x="0" y="0" width="100%" height="100%" fill="rgb(54,153,54)"></rect><polyline points="22.333333333333332,0,44.666666666666664,23.666666666666668,22.333333333333332,47.333333333333336,0,23.666666666666668" fill="#222" fill-opacity="0.13266666666666665" stroke="#000" stroke-opacity="0.02" transform="translate(-22.333333333333332,-23.666666666666668)"></polyline><polyline points="22.333333333333332,0,44.666666666666664,23.666666666666668,22.333333333333332,47.333333333333336,0,23.666666666666668" fill="#222" fill-opacity="0.13266666666666665" stroke="#000" stroke-opacity="0.02" transform="translate(245.66666666666666,-23.666666666666668)"></polyline><polyline points="22.333333333333332,0,44.666666666666664,23.666666666666668,22.333333333333332,47.333333333333336,0,23.666666666666668" fill="#222" fill-opacity="0.13266666666666665" stroke="#000" stroke-opacity="0.02" transform="translate(-22.333333333333332,118.33333333333333)"></polyline><polyline points="22.333333333333332,0,44.666666666666664,23.666666666666668,22.333333333333332,47.333333333333336,0,23.666666666666668" fill="#222" fill-opacity="0.13266666666666665" stroke="#000" stroke-opacity="0.02" transform="translate(245.66666666666666,118.33333333333333)"></polyline><polyline points="22.333333333333332,0,44.666666666666664,23.666666666666668,22.333333333333332,47.333333333333336,0,23.666666666666668" fill="#ddd" fill-opacity="0.14133333333333334" stroke="#000" stroke-opacity="0.02" transform="translate(22.333333333333332,-23.666666666666668)"></polyline><polyline points="22.333333333333332,0,44.666666666666664,23.666666666666668,22.333333333333332,47.333333333333336,0,23.666666666666668" fill="#ddd" fill-opacity="0.14133333333333334" stroke="#000" stroke-opacity="0.02" transform="translate(22.333333333333332,118.33333333333333)"></polyline><polyline points="22.333333333333332,0,44.666666666666664,23.666666666666668,22.333333333333332,47.333333333333336,0,23.666666666666668" fill="#ddd" fill-opacity="0.08933333333333333" stroke="#000" stroke-opacity="0.02" transform="translate(67,-23.666666666666668)"></polyline><polyline points="22.333333333333332,0,44.666666666666664,23.666666666666668,22.333333333333332,47.333333333333336,0,23.666666666666668" fill="#ddd" fill-opacity="0.08933333333333333" stroke="#000" stroke-opacity="0.02" transform="translate(67,118.33333333333333)"></polyline><polyline points="22.333333333333332,0,44.666666666666664,23.666666666666668,22.333333333333332,47.333333333333336,0,23.666666666666668" fill="#222" fill-opacity="0.08066666666666666" stroke="#000" stroke-opacity="0.02" transform="translate(111.66666666666667,-23.666666666666668)"></polyline><polyline points="22.333333333333332,0,44.666666666666664,23.666666666666668,22.333333333333332,47.333333333333336,0,23.666666666666668" fill="#222" fill-opacity="0.08066666666666666" stroke="#000" stroke-opacity="0.02" transform="translate(111.66666666666667,118.33333333333333)"></polyline><polyline points="22.333333333333332,0,44.666666666666664,23.666666666666668,22.333333333333332,47.333333333333336,0,23.666666666666668" fill="#222" fill-opacity="0.098" stroke="#000" stroke-opacity="0.02" transform="translate(156.33333333333331,-23.666666666666668)"></polyline><polyline points="22.333333333333332,0,44.666666666666664,23.666666666666668,22.333333333333332,47.333333333333336,0,23.666666666666668" fill="#222" fill-opacity="0.098" stroke="#000" stroke-opacity="0.02" transform="translate(156.33333333333331,118.33333333333333)"></polyline><polyline points="22.333333333333332,0,44.666666666666664,23.666666666666668,22.333333333333332,47.333333333333336,0,23.666666666666668" fill="#ddd" fill-opacity="0.05466666666666667" stroke="#000" stroke-opacity="0.02" transform="translate(200.99999999999997,-23.666666666666668)"></polyline><polyline points="22.333333333333332,0,44.666666666666664,23.666666666666668,22.333333333333332,47.333333333333336,0,23.666666666666668" fill="#ddd" fill-opacity="0.05466666666666667" stroke="#000" stroke-opacity="0.02" transform="translate(200.99999999999997,118.33333333333333)"></polyline><polyline points="22.333333333333332,0,44.666666666666664,23.666666666666668,22.333333333333332,47.333333333333336,0,23.666666666666668" fill="#ddd" fill-opacity="0.02" stroke="#000" stroke-opacity="0.02" transform="translate(0,0)"></polyline><polyline points="22.333333333333332,0,44.666666666666664,23.666666666666668,22.333333333333332,47.333333333333336,0,23.666666666666668" fill="#ddd" fill-opacity="0.02" stroke="#000" stroke-opacity="0.02" transform="translate(268,0)"></polyline><polyline points="22.333333333333332,0,44.666666666666664,23.666666666666668,22.333333333333332,47.333333333333336,0,23.666666666666668" fill="#ddd" fill-opacity="0.02" stroke="#000" stroke-opacity="0.02" transform="translate(44.666666666666664,0)"></polyline><polyline points="22.333333333333332,0,44.666666666666664,23.666666666666668,22.333333333333332,47.333333333333336,0,23.666666666666668" fill="#222" fill-opacity="0.06333333333333334" stroke="#000" stroke-opacity="0.02" transform="translate(89.33333333333333,0)"></polyline><polyline points="22.333333333333332,0,44.666666666666664,23.666666666666668,22.333333333333332,47.333333333333336,0,23.666666666666668" fill="#222" fill-opacity="0.13266666666666665" stroke="#000" stroke-opacity="0.02" transform="translate(134,0)"></polyline><polyline points="22.333333333333332,0,44.666666666666664,23.666666666666668,22.333333333333332,47.333333333333336,0,23.666666666666668" fill="#ddd" fill-opacity="0.05466666666666667" stroke="#000" stroke-opacity="0.02" transform="translate(178.66666666666666,0)"></polyline><polyline points="22.333333333333332,0,44.666666666666664,23.666666666666668,22.333333333333332,47.333333333333336,0,23.666666666666668" fill="#ddd" fill-opacity="0.05466666666666667" stroke="#000" stroke-opacity="0.02" transform="translate(223.33333333333331,0)"></polyline><polyline points="22.333333333333332,0,44.666666666666664,23.666666666666668,22.333333333333332,47.333333333333336,0,23.666666666666668" fill="#ddd" fill-opacity="0.02" stroke="#000" stroke-opacity="0.02" transform="translate(-22.333333333333332,23.666666666666668)"></polyline><polyline points="22.333333333333332,0,44.666666666666664,23.666666666666668,22.333333333333332,47.333333333333336,0,23.666666666666668" fill="#ddd" fill-opacity="0.02" stroke="#000" stroke-opacity="0.02" transform="translate(245.66666666666666,23.666666666666668)"></polyline><polyline points="22.333333333333332,0,44.666666666666664,23.666666666666668,22.333333333333332,47.333333333333336,0,23.666666666666668" fill="#222" fill-opacity="0.098" stroke="#000" stroke-opacity="0.02" transform="translate(22.333333333333332,23.666666666666668)"></polyline><polyline points="22.333333333333332,0,44.666666666666664,23.666666666666668,22.333333333333332,47.333333333333336,0,23.666666666666668" fill="#ddd" fill-opacity="0.10666666666666667" stroke="#000" stroke-opacity="0.02" transform="translate(67,23.666666666666668)"></polyline><polyline points="22.333333333333332,0,44.666666666666664,23.666666666666668,22.333333333333332,47.333333333333336,0,23.666666666666668" fill="#222" fill-opacity="0.11533333333333334" stroke="#000" stroke-opacity="0.02" transform="translate(111.66666666666667,23.666666666666668)"></polyline><polyline points="22.333333333333332,0,44.666666666666664,23.666666666666668,22.333333333333332,47.333333333333336,0,23.666666666666668" fill="#222" fill-opacity="0.06333333333333334" stroke="#000" stroke-opacity="0.02" transform="translate(156.33333333333331,23.666666666666668)"></polyline><polyline points="22.333333333333332,0,44.666666666666664,23.666666666666668,22.333333333333332,47.333333333333336,0,23.666666666666668" fill="#ddd" fill-opacity="0.07200000000000001" stroke="#000" stroke-opacity="0.02" transform="translate(200.99999999999997,23.666666666666668)"></polyline><polyline points="22.333333333333332,0,44.666666666666664,23.666666666666668,22.333333333333332,47.333333333333336,0,23.666666666666668" fill="#222" fill-opacity="0.15" stroke="#000" stroke-opacity="0.02" transform="translate(0,47.33333333333333)"></polyline><polyline points="22.333333333333332,0,44.666666666666664,23.666666666666668,22.333333333333332,47.333333333333336,0,23.666666666666668" fill="#222" fill-opacity="0.15" stroke="#000" stroke-opacity="0.02" transform="translate(268,47.33333333333333)"></polyline><polyline points="22.333333333333332,0,44.666666666666664,23.666666666666668,22.333333333333332,47.333333333333336,0,23.666666666666668" fill="#222" fill-opacity="0.15" stroke="#000" stroke-opacity="0.02" transform="translate(44.666666666666664,47.33333333333333)"></polyline><polyline points="22.333333333333332,0,44.666666666666664,23.666666666666668,22.333333333333332,47.333333333333336,0,23.666666666666668" fill="#222" fill-opacity="0.11533333333333334" stroke="#000" stroke-opacity="0.02" transform="translate(89.33333333333333,47.33333333333333)"></polyline><polyline points="22.333333333333332,0,44.666666666666664,23.666666666666668,22.333333333333332,47.333333333333336,0,23.666666666666668" fill="#222" fill-opacity="0.15" stroke="#000" stroke-opacity="0.02" transform="translate(134,47.33333333333333)"></polyline><polyline points="22.333333333333332,0,44.666666666666664,23.666666666666668,22.333333333333332,47.333333333333336,0,23.666666666666668" fill="#ddd" fill-opacity="0.02" stroke="#000" stroke-opacity="0.02" transform="translate(178.66666666666666,47.33333333333333)"></polyline><polyline points="22.333333333333332,0,44.666666666666664,23.666666666666668,22.333333333333332,47.333333333333336,0,23.666666666666668" fill="#222" fill-opacity="0.046" stroke="#000" stroke-opacity="0.02" transform="translate(223.33333333333331,47.33333333333333)"></polyline><polyline points="22.333333333333332,0,44.666666666666664,23.666666666666668,22.333333333333332,47.333333333333336,0,23.666666666666668" fill="#ddd" fill-opacity="0.02" stroke="#000" stroke-opacity="0.02" transform="translate(-22.333333333333332,71)"></polyline><polyline points="22.333333333333332,0,44.666666666666664,23.666666666666668,22.333333333333332,47.333333333333336,0,23.666666666666668" fill="#ddd" fill-opacity="0.02" stroke="#000" stroke-opacity="0.02" transform="translate(245.66666666666666,71)"></polyline><polyline points="22.333333333333332,0,44.666666666666664,23.666666666666668,22.333333333333332,47.333333333333336,0,23.666666666666668" fill="#222" fill-opacity="0.028666666666666667" stroke="#000" stroke-opacity="0.02" transform="translate(22.333333333333332,71)"></polyline><polyline points="22.333333333333332,0,44.666666666666664,23.666666666666668,22.333333333333332,47.333333333333336,0,23.666666666666668" fill="#ddd" fill-opacity="0.10666666666666667" stroke="#000" stroke-opacity="0.02" transform="translate(67,71)"></polyline><polyline points="22.333333333333332,0,44.666666666666664,23.666666666666668,22.333333333333332,47.333333333333336,0,23.666666666666668" fill="#ddd" fill-opacity="0.03733333333333333" stroke="#000" stroke-opacity="0.02" transform="translate(111.66666666666667,71)"></polyline><polyline points="22.333333333333332,0,44.666666666666664,23.666666666666668,22.333333333333332,47.333333333333336,0,23.666666666666668" fill="#ddd" fill-opacity="0.05466666666666667" stroke="#000" stroke-opacity="0.02" transform="translate(156.33333333333331,71)"></polyline><polyline points="22.333333333333332,0,44.666666666666664,23.666666666666668,22.333333333333332,47.333333333333336,0,23.666666666666668" fill="#ddd" fill-opacity="0.03733333333333333" stroke="#000" stroke-opacity="0.02" transform="translate(200.99999999999997,71)"></polyline><polyline points="22.333333333333332,0,44.666666666666664,23.666666666666668,22.333333333333332,47.333333333333336,0,23.666666666666668" fill="#222" fill-opacity="0.15" stroke="#000" stroke-opacity="0.02" transform="translate(0,94.66666666666667)"></polyline><polyline points="22.333333333333332,0,44.666666666666664,23.666666666666668,22.333333333333332,47.333333333333336,0,23.666666666666668" fill="#222" fill-opacity="0.15" stroke="#000" stroke-opacity="0.02" transform="translate(268,94.66666666666667)"></polyline><polyline points="22.333333333333332,0,44.666666666666664,23.666666666666668,22.333333333333332,47.333333333333336,0,23.666666666666668" fill="#222" fill-opacity="0.15" stroke="#000" stroke-opacity="0.02" transform="translate(44.666666666666664,94.66666666666667)"></polyline><polyline points="22.333333333333332,0,44.666666666666664,23.666666666666668,22.333333333333332,47.333333333333336,0,23.666666666666668" fill="#222" fill-opacity="0.11533333333333334" stroke="#000" stroke-opacity="0.02" transform="translate(89.33333333333333,94.66666666666667)"></polyline><polyline points="22.333333333333332,0,44.666666666666664,23.666666666666668,22.333333333333332,47.333333333333336,0,23.666666666666668" fill="#ddd" fill-opacity="0.03733333333333333" stroke="#000" stroke-opacity="0.02" transform="translate(134,94.66666666666667)"></polyline><polyline points="22.333333333333332,0,44.666666666666664,23.666666666666668,22.333333333333332,47.333333333333336,0,23.666666666666668" fill="#ddd" fill-opacity="0.10666666666666667" stroke="#000" stroke-opacity="0.02" transform="translate(178.66666666666666,94.66666666666667)"></polyline><polyline points="22.333333333333332,0,44.666666666666664,23.666666666666668,22.333333333333332,47.333333333333336,0,23.666666666666668" fill="#ddd" fill-opacity="0.12400000000000001" stroke="#000" stroke-opacity="0.02" transform="translate(223.33333333333331,94.66666666666667)"></polyline></pattern></defs><rect x="0" y="0" width="840" height="560" fill="url(#pattern)"></rect></svg>