<svg xmlns="http://www.w3.org/2000/svg" width="840" height="560" viewBox="0 0 840 560"><defs><pattern id="pattern" patternUnits="userSpaceOnUse" width="144" height="144"><rect x="0" y="0" width="100%" height="100%" fill="rgb(138,142,65)"></rect><circle cx="12" cy="12" r="10" fill="none" stroke="#222" opacity="0.046" stroke-width="4px"></circle><circle cx="12" cy="12" r="5" fill="#ddd" fill-opacity="0.07200000000000001"></circle><circle cx="36" cy="12" r="10" fill="none" stroke="#222" opacity="0.08066666666666666" stroke-width="4px"></circle><circle cx="36" cy="12" r="5" fill="#222" fill-opacity="0.06333333333333334"></circle><circle cx="60" cy="12" r="10" fill="none" stroke="#ddd" opacity="0.08933333333333333" stroke-width="4px"></circle><circle cx="60" cy="12" r="5" fill="#222" fill-opacity="0.028666666666666667"></circle><circle cx="84" cy="12" r="10" fill="none" stroke="#ddd" opacity="0.02" stroke-width="4px"></circle><circle cx="84" cy="12" r="5" fill="#ddd" fill-opacity="0.05466666666666667"></circle><circle cx="108" cy="12" r="10" fill="none" stroke="#ddd" opacity="0.07200000000000001" stroke-width="4px"></circle><circle cx="108" cy="12" r="5" fill="#222" fill-opacity="0.15"></circle><circle cx="132" cy="12" r="10" fill="none" stroke="#222" opacity="0.06333333333333334" stroke-width="4px"></circle><circle cx="132" cy="12" r="5" fill="#222" fill-opacity="0.08066666666666666"></circle><circle cx="12" cy="36" r="10" fill="none" stroke="#222" opacity="0.13266666666666665" stroke-width="4px"></circle><circle cx="12" cy="36" r="5" fill="#ddd" fill-opacity="0.10666666666666667"></circle><circle cx="36" cy="36" r="10" fill="none" stroke="#ddd" opacity="0.07200000000000001" stroke-width="4px"></circle><circle cx="36" cy="36" r="5" fill="#ddd" fill-opacity="0.14133333333333334"></circle><circle cx="60" cy="36" r="10" fill="none" stroke="#ddd" opacity="0.03733333333333333" stroke-width="4px"></circle><circle cx="60" cy="36" r="5" fill="#ddd" fill-opacity="0.05466666666666667"></circle><circle cx="84" cy="36" r="10" fill="none" stroke="#ddd" opacity="0.03733333333333333" stroke-width="4px"></circle><circle cx="84" cy="36" r="5" fill="#222" fill-opacity="0.06333333333333334"></circle><circle cx="108" cy="36" r="10" fill="none" stroke="#222" opacity="0.098" stroke-width="4px"></circle><circle cx="108" cy="36" r="5" fill="#222" fill-opacity="0.11533333333333334"></circle><circle cx="132" cy="36" r="10" fill="none" stroke="#ddd" opacity="0.12400000000000001" stroke-width="4px"></circle><circle cx="132" cy="36" r="5" fill="#ddd" fill-opacity="0.08933333333333333"></circle><circle cx="12" cy="60" r="10" fill="none" stroke="#ddd" opacity="0.14133333333333334" stroke-width="4px"></circle><circle cx="12" cy="60" r="5" fill="#222" fill-opacity="0.028666666666666667"></circle><circle cx="36" cy="60" r="10" fill="none" stroke="#222" opacity="0.06333333333333334" stroke-width="4px"></circle><circle cx="36" cy="60" r="5" fill="#ddd" fill-opacity="0.02"></circle><circle cx="60" cy="60" r="10" fill="none" stroke="#222" opacity="0.13266666666666665" stroke-width="4px"></circle><circle cx="60" cy="60" r="5" fill="#222" fill-opacity="0.046"></circle><circle cx="84" cy="60" r="10" fill="none" stroke="#222" opacity="0.046" stroke-width="4px"></circle><circle cx="84" cy="60" r="5" fill="#222" fill-opacity="0.11533333333333334"></circle><circle cx="108" cy="60" r="10" fill="none" stroke="#ddd" opacity="0.10666666666666667" stroke-width="4px"></circle><circle cx="108" cy="60" r="5" fill="#222" fill-opacity="0.098"></circle><circle cx="132" cy="60" r="10" fill="none" stroke="#222" opacity="0.06333333333333334" stroke-width="4px"></circle><circle cx="132" cy="60" r="5" fill="#222" fill-opacity="0.15"></circle><circle cx="12" cy="84" r="10" fill="none" stroke="#222" opacity="0.028666666666666667" stroke-width="4px"></circle><circle cx="12" cy="84" r="5" fill="#222" fill-opacity="0.046"></circle><circle cx="36" cy="84" r="10" fill="none" stroke="#ddd" opacity="0.02" stroke-width="4px"></circle><circle cx="36" cy="84" r="5" fill="#ddd" fill-opacity="0.10666666666666667"></circle><circle cx="60" cy="84" r="10" fill="none" stroke="#ddd" opacity="0.10666666666666667" stroke-width="4px"></circle><circle cx="60" cy="84" r="5" fill="#ddd" fill-opacity="0.02"></circle><circle cx="84" cy="84" r="10" fill="none" stroke="#222" opacity="0.046" stroke-width="4px"></circle><circle cx="84" cy="84" r="5" fill="#222" fill-opacity="0.028666666666666667"></circle><circle cx="108" cy="84" r="10" fill="none" stroke="#222" opacity="0.15" stroke-width="4px"></circle><circle cx="108" cy="84" r="5" fill="#222" fill-opacity="0.06333333333333334"></circle><circle cx="132" cy="84" r="10" fill="none" stroke="#222" opacity="0.098" stroke-width="4px"></circle><circle cx="132" cy="84" r="5" fill="#ddd" fill-opacity="0.10666666666666667"></circle><circle cx="12" cy="108" r="10" fill="none" stroke="#222" opacity="0.11533333333333334" stroke-width="4px"></circle><circle cx="12" cy="108" r="5" fill="#222" fill-opacity="0.046"></circle><circle cx="36" cy="108" r="10" fill="none" stroke="#222" opacity="0.046" stroke-width="4px"></circle><circle cx="36" cy="108" r="5" fill="#222" fill-opacity="0.13266666666666665"></circle><circle cx="60" cy="108" r="10" fill="none" stroke="#ddd" opacity="0.02" stroke-width="4px"></circle><circle cx="60" cy="108" r="5" fill="#222" fill-opacity="0.06333333333333334"></circle><circle cx="84" cy="108" r="10" fill="none" stroke="#222" opacity="0.028666666666666667" stroke-width="4px"></circle><circle cx="84" cy="108" r="5" fill="#ddd" fill-opacity="0.14133333333333334"></circle><circle cx="108" cy="108" r="10" fill="none" stroke="#ddd" opacity="0.08933333333333333" stroke-width="4px"></circle><circle cx="108" cy="108" r="5" fill="#ddd" fill-opacity="0.12400000000000001"></circle><circle cx="132" cy="108" r="10" fill="none" stroke="#222" opacity="0.11533333333333334" stroke-width="4px"></circle><circle cx="132" cy="108" r="5" fill="#222" fill-opacity="0.098"></circle><circle cx="12" cy="132" r="10" fill="none" stroke="#222" opacity="0.06333333333333334" stroke-width="4px"></circle><circle cx="12" cy="132" r="5" fill="#ddd" fill-opacity="0.03733333333333333"></circle><circle cx="36" cy="132" r="10" fill="none" stroke="#ddd" opacity="0.05466666666666667" stroke-width="4px"></circle><circle cx="36" cy="132" r="5" fill="#ddd" fill-opacity="0.03733333333333333"></circle><circle cx="60" cy="132" r="10" fill="none" stroke="#ddd" opacity="0.14133333333333334" stroke-width="4px"></circle><circle cx="60" cy="132" r="5" fill="#ddd" fill-opacity="0.07200000000000001"></circle><circle cx="84" cy="132" r="10" fill="none" stroke="#ddd" opacity="0.10666666666666667" stroke-width="4px"></circle><circle cx="84" cy="132" r="5" fill="#222" fill-opacity="0.13266666666666665"></circle><circle cx="108" cy="132" r="10" fill="none" stroke="#222" opacity="0.08066666666666666" stroke-width="4px"></circle><circle cx="108" cy="132" r="5" fill="#222" fill-opacity="0.06333333333333334"></circle><circle cx="132" cy="132" r="10" fill="none" stroke="#222" opacity="0.15" stroke-width="4px"></circle><circle cx="132" cy="132" r="5" fill="#ddd" fill-opacity="0.07200000000000001"></circle></pattern></defs><rect x="0" y="0" width="840" height="560" fill="url(#pattern)"></rect></svg>