<svg xmlns="http://www.w3.org/2000/svg" width="840" height="560" viewBox="0 0 840 560"><defs><pattern id="pattern" patternUnits="userSpaceOnUse" width="60" height="60"><rect x="0" y="0" width="100%" height="100%" fill="rgb(123,142,65)"></rect><rect x="0" y="0" width="10" height="10" fill="#ddd" fill-opacity="0.02" stroke="#000" stroke-opacity="0.02"></rect><rect x="10" y="0" width="10" height="10" fill="#ddd" fill-opacity="0.05466666666666667" stroke="#000" stroke-opacity="0.02"></rect><rect x="20" y="0" width="10" height="10" fill="#ddd" fill-opacity="0.14133333333333334" stroke="#000" stroke-opacity="0.02"></rect><rect x="30" y="0" width="10" height="10" fill="#222" fill-opacity="0.15" stroke="#000" stroke-opacity="0.02"></rect><rect x="40" y="0" width="10" height="10" fill="#ddd" fill-opacity="0.05466666666666667" stroke="#000" stroke-opacity="0.02"></rect><rect x="50" y="0" width="10" height="10" fill="#222" fill-opacity="0.06333333333333334" stroke="#000" stroke-opacity="0.02"></rect><rect x="0" y="10" width="10" height="10" fill="#222" fill-opacity="0.028666666666666667" stroke="#000" stroke-opacity="0.02"></rect><rect x="10" y="10" width="10" height="10" fill="#222" fill-opacity="0.06333333333333334" stroke="#000" stroke-opacity="0.02"></rect><rect x="20" y="10" width="10" height="10" fill="#ddd" fill-opacity="0.02" stroke="#000" stroke-opacity="0.02"></rect><rect x="30" y="10" width="10" height="10" fill="#ddd" fill-opacity="0.10666666666666667" stroke="#000" stroke-opacity="0.02"></rect><rect x="40" y="10" width="10" height="10" fill="#ddd" fill-opacity="0.08933333333333333" stroke="#000" stroke-opacity="0.02"></rect><rect x="50" y="10" width="10" height="10" fill="#ddd" fill-opacity="0.03733333333333333" stroke="#000" stroke-opacity="0.02"></rect><rect x="0" y="20" width="10" height="10" fill="#222" fill-opacity="0.028666666666666667" stroke="#000" stroke-opacity="0.02"></rect><rect x="10" y="20" width="10" height="10" fill="#222" fill-opacity="0.13266666666666665" stroke="#000" stroke-opacity="0.02"></rect><rect x="20" y="20" width="10" height="10" fill="#ddd" fill-opacity="0.12400000000000001" stroke="#000" stroke-opacity="0.02"></rect><rect x="30" y="20" width="10" height="10" fill="#222" fill-opacity="0.11533333333333334" stroke="#000" stroke-opacity="0.02"></rect><rect x="40" y="20" width="10" height="10" fill="#ddd" fill-opacity="0.07200000000000001" stroke="#000" stroke-opacity="0.02"></rect><rect x="50" y="20" width="10" height="10" fill="#222" fill-opacity="0.06333333333333334" stroke="#000" stroke-opacity="0.02"></rect><rect x="0" y="30" width="10" height="10" fill="#ddd" fill-opacity="0.08933333333333333" stroke="#000" stroke-opacity="0.02"></rect><rect x="10" y="30" width="10" height="10" fill="#ddd" fill-opacity="0.03733333333333333" stroke="#000" stroke-opacity="0.02"></rect><rect x="20" y="30" width="10" height="10" fill="#222" fill-opacity="0.098" stroke="#000" stroke-opacity="0.02"></rect><rect x="30" y="30" width="10" height="10" fill="#ddd" fill-opacity="0.10666666666666667" stroke="#000" stroke-opacity="0.02"></rect><rect x="40" y="30" width="10" height="10" fill="#222" fill-opacity="0.06333333333333334" stroke="#000" stroke-opacity="0.02"></rect><rect x="50" y="30" width="10" height="10" fill="#222" fill-opacity="0.028666666666666667" stroke="#000" stroke-opacity="0.02"></rect><rect x="0" y="40" width="10" height="10" fill="#ddd" fill-opacity="0.12400000000000001" stroke="#000" stroke-opacity="0.02"></rect><rect x="10" y="40" width="10" height="10" fill="#222" fill-opacity="0.028666666666666667" stroke="#000" stroke-opacity="0.02"></rect><rect x="20" y="40" width="10" height="10" fill="#ddd" fill-opacity="0.02" stroke="#000" stroke-opacity="0.02"></rect><rect x="30" y="40" width="10" height="10" fill="#222" fill-opacity="0.11533333333333334" stroke="#000" stroke-opacity="0.02"></rect><rect x="40" y="40" width="10" height="10" fill="#ddd" fill-opacity="0.08933333333333333" stroke="#000" stroke-opacity="0.02"></rect><rect x="50" y="40" width="10" height="10" fill="#222" fill-opacity="0.028666666666666667" stroke="#000" stroke-opacity="0.02"></rect><rect x="0" y="50" width="10" height="10" fill="#ddd" fill-opacity="0.07200000000000001" stroke="#000" stroke-opacity="0.02"></rect><rect x="10" y="50" width="10" height="10" fill="#222" fill-opacity="0.098" stroke="#000" stroke-opacity="0.02"></rect><rect x="20" y="50" width="10" height="10" fill="#222" fill-opacity="0.13266666666666665" stroke="#000" stroke-opacity="0.02"></rect><rect x="30" y="50" width="10" height="10" fill="#222" fill-opacity="0.098" stroke="#000" stroke-opacity="0.02"></rect><rect x="40" y="50" width="10" height="10" fill="#ddd" fill-opacity="0.05466666666666667" stroke="#000" stroke-opacity="0.02"></rect><rect x="50" y="50" width="10" height="10" fill="#222" fill-opacity="0.098" stroke="#000" stroke-opacity="0.02"></rect></pattern></defs><rect x="0" y="0" width="840" height="560" fill="url(#pattern)"></rect></svg>