<svg xmlns="http://www.w3.org/2000/svg" width="200" height="150" viewBox="0 0 200 150"><defs><pattern id="pattern" patternUnits="userSpaceOnUse" width="192" height="192"><rect x="0" y="0" width="100%" height="100%" fill="rgb(88,69,138)"></rect><g fill="#ddd" stroke="#000" stroke-opacity="0.02" fill-opacity="0.07200000000000001" transform="translate(-16,-24)"><rect x="16" y="0" width="16" height="48"></rect><rect x="0" y="16" width="48" height="16"></rect></g><g fill="#ddd" stroke="#000" stroke-opacity="0.02" fill-opacity="0.07200000000000001" transform="translate(176,-24)"><rect x="16" y="0" width="16" height="48"></rect><rect x="0" y="16" width="48" height="16"></rect></g><g fill="#ddd" stroke="#000" stroke-opacity="0.02" fill-opacity="0.07200000000000001" transform="translate(-16,168)"><rect x="16" y="0" width="16" height="48"></rect><rect x="0" y="16" width="48" height="16"></rect></g><g fill="#ddd" stroke="#000" stroke-opacity="0.02" fill-opacity="0.07200000000000001" transform="translate(176,168)"><rect x="16" y="0" width="16" height="48"></rect><rect x="0" y="16" width="48" height="16"></rect></g><g fill="#ddd" stroke="#000" stroke-opacity="0.02" fill-opacity="0.10666666666666667" transform="translate(16,-24)"><rect x="16" y="0" width="16" height="48"></rect><rect x="0" y="16" width="48" height="16"></rect></g><g fill="#ddd" stroke="#000" stroke-opacity="0.02" fill-opacity="0.10666666666666667" transform="translate(16,168)"><rect x="16" y="0" width="16" height="48"></rect><rect x="0" y="16" width="48" height="16"></rect></g><g fill="#222" stroke="#000" stroke-opacity="0.02" fill-opacity="0.15" transform="translate(48,-24)"><rect x="16" y="0" width="16" height="48"></rect><rect x="0" y="16" width="48" height="16"></rect></g><g fill="#222" stroke="#000" stroke-opacity="0.02" fill-opacity="0.15" transform="translate(48,168)"><rect x="16" y="0" width="16" height="48"></rect><rect x="0" y="16" width="48" height="16"></rect></g><g fill="#222" stroke="#000" stroke-opacity="0.02" fill-opacity="0.06333333333333334" transform="translate(80,-24)"><rect x="16" y="0" width="16" height="48"></rect><rect x="0" y="16" width="48" height="16"></rect></g><g fill="#222" stroke="#000" stroke-opacity="0.02" fill-opacity="0.06333333333333334" transform="translate(80,168)"><rect x="16" y="0" width="16" height="48"></rect><rect x="0" y="16" width="48" height="16"></rect></g><g fill="#ddd" stroke="#000" stroke-opacity="0.02" fill-opacity="0.08933333333333333" transform="translate(112,-24)"><rect x="16" y="0" width="16" height="48"></rect><rect x="0" y="16" width="48" height="16"></rect></g><g fill="#ddd" stroke="#000" stroke-opacity="0.02" fill-opacity="0.08933333333333333" transform="translate(112,168)"><rect x="16" y="0" width="16" height="48"></rect><rect x="0" y="16" width="48" height="16"></rect></g><g fill="#222" stroke="#000" stroke-opacity="0.02" fill-opacity="0.028666666666666667" transform="translate(144,-24)"><rect x="16" y="0" width="16" height="48"></rect><rect x="0" y="16" width="48" height="16"></rect></g><g fill="#222" stroke="#000" stroke-opacity="0.02" fill-opacity="0.028666666666666667" transform="translate(144,168)"><rect x="16" y="0" width="16" height="48"></rect><rect x="0" y="16" width="48" height="16"></rect></g><g fill="#222" stroke="#000" stroke-opacity="0.02" fill-opacity="0.13266666666666665" transform="translate(0,8)"><rect x="16" y="0" width="16" height="48"></rect><rect x="0" y="16" width="48" height="16"></rect></g><g fill="#222" stroke="#000" stroke-opacity="0.02" fill-opacity="0.13266666666666665" transform="translate(192,8)"><rect x="16" y="0" width="16" height="48"></rect><rect x="0" y="16" width="48" height="16"></rect></g><g fill="#222" stroke="#000" stroke-opacity="0.02" fill-opacity="0.046" transform="translate(32,8)"><rect x="16" y="0" width="16" height="48"></rect><rect x="0" y="16" width="48" height="16"></rect></g><g fill="#222" stroke="#000" stroke-opacity="0.02" fill-opacity="0.11533333333333334" transform="translate(64,8)"><rect x="16" y="0" width="16" height="48"></rect><rect x="0" y="16" width="48" height="16"></rect></g><g fill="#ddd" stroke="#000" stroke-opacity="0.02" fill-opacity="0.07200000000000001" transform="translate(96,8)"><rect x="16" y="0" width="16" height="48"></rect><rect x="0" y="16" width="48" height="16"></rect></g><g fill="#ddd" stroke="#000" stroke-opacity="0.02" fill-opacity="0.02" transform="translate(128,8)"><rect x="16" y="0" width="16" height="48"></rect><rect x="0" y="16" width="48" height="16"></rect></g><g fill="#ddd" stroke="#000" stroke-opacity="0.02" fill-opacity="0.12400000000000001" transform="translate(160,8)"><rect x="16" y="0" width="16" height="48"></rect><rect x="0" y="16" width="48" height="16"></rect></g><g fill="#222" stroke="#000" stroke-opacity="0.02" fill-opacity="0.098" transform="translate(-16,40)"><rect x="16" y="0" width="16" height="48"></rect><rect x="0" y="16" width="48" height="16"></rect></g><g fill="#222" stroke="#000" stroke-opacity="0.02" fill-opacity="0.098" transform="translate(176,40)"><rect x="16" y="0" width="16" height="48"></rect><rect x="0" y="16" width="48" height="16"></rect></g><g fill="#ddd" stroke="#000" stroke-opacity="0.02" fill-opacity="0.05466666666666667" transform="translate(16,40)"><rect x="16" y="0" width="16" height="48"></rect><rect x="0" y="16" width="48" height="16"></rect></g><g fill="#ddd" stroke="#000" stroke-opacity="0.02" fill-opacity="0.05466666666666667" transform="translate(48,40)"><rect x="16" y="0" width="16" height="48"></rect><rect x="0" y="16" width="48" height="16"></rect></g><g fill="#ddd" stroke="#000" stroke-opacity="0.02" fill-opacity="0.10666666666666667" transform="translate(80,40)"><rect x="16" y="0" width="16" height="48"></rect><rect x="0" y="16" width="48" height="16"></rect></g><g fill="#222" stroke="#000" stroke-opacity="0.02" fill-opacity="0.028666666666666667" transform="translate(112,40)"><rect x="16" y="0" width="16" height="48"></rect><rect x="0" y="16" width="48" height="16"></rect></g><g fill="#222" stroke="#000" stroke-opacity="0.02" fill-opacity="0.098" transform="translate(144,40)"><rect x="16" y="0" width="16" height="48"></rect><rect x="0" y="16" width="48" height="16"></rect></g><g fill="#222" stroke="#000" stroke-opacity="0.02" fill-opacity="0.15" transform="translate(0,72)"><rect x="16" y="0" width="16" height="48"></rect><rect x="0" y="16" width="48" height="16"></rect></g><g fill="#222" stroke="#000" stroke-opacity="0.02" fill-opacity="0.15" transform="translate(192,72)"><rect x="16" y="0" width="16" height="48"></rect><rect x="0" y="16" width="48" height="16"></rect></g><g fill="#ddd" stroke="#000" stroke-opacity="0.02" fill-opacity="0.10666666666666667" transform="translate(32,72)"><rect x="16" y="0" width="16" height="48"></rect><rect x="0" y="16" width="48" height="16"></rect></g><g fill="#ddd" stroke="#000" stroke-opacity="0.02" fill-opacity="0.03733333333333333" transform="translate(64,72)"><rect x="16" y="0" width="16" height="48"></rect><rect x="0" y="16" width="48" height="16"></rect></g><g fill="#ddd" stroke="#000" stroke-opacity="0.02" fill-opacity="0.07200000000000001" transform="translate(96,72)"><rect x="16" y="0" width="16" height="48"></rect><rect x="0" y="16" width="48" height="16"></rect></g><g fill="#222" stroke="#000" stroke-opacity="0.02" fill-opacity="0.046" transform="translate(128,72)"><rect x="16" y="0" width="16" height="48"></rect><rect x="0" y="16" width="48" height="16"></rect></g><g fill="#222" stroke="#000" stroke-opacity="0.02" fill-opacity="0.08066666666666666" transform="translate(160,72)"><rect x="16" y="0" width="16" height="48"></rect><rect x="0" y="16" width="48" height="16"></rect></g><g fill="#ddd" stroke="#000" stroke-opacity="0.02" fill-opacity="0.12400000000000001" transform="translate(-16,104)"><rect x="16" y="0" width="16" height="48"></rect><rect x="0" y="16" width="48" height="16"></rect></g><g fill="#ddd" stroke="#000" stroke-opacity="0.02" fill-opacity="0.12400000000000001" transform="translate(176,104)"><rect x="16" y="0" width="16" height="48"></rect><rect x="0" y="16" width="48" height="16"></rect></g><g fill="#ddd" stroke="#000" stroke-opacity="0.02" fill-opacity="0.02" transform="translate(16,104)"><rect x="16" y="0" width="16" height="48"></rect><rect x="0" y="16" width="48" height="16"></rect></g><g fill="#ddd" stroke="#000" stroke-opacity="0.02" fill-opacity="0.14133333333333334" transform="translate(48,104)"><rect x="16" y="0" width="16" height="48"></rect><rect x="0" y="16" width="48" height="16"></rect></g><g fill="#222" stroke="#000" stroke-opacity="0.02" fill-opacity="0.11533333333333334" transform="translate(80,104)"><rect x="16" y="0" width="16" height="48"></rect><rect x="0" y="16" width="48" height="16"></rect></g><g fill="#222" stroke="#000" stroke-opacity="0.02" fill-opacity="0.098" transform="translate(112,104)"><rect x="16" y="0" width="16" height="48"></rect><rect x="0" y="16" width="48" height="16"></rect></g><g fill="#222" stroke="#000" stroke-opacity="0.02" fill-opacity="0.06333333333333334" transform="translate(144,104)"><rect x="16" y="0" width="16" height="48"></rect><rect x="0" y="16" width="48" height="16"></rect></g><g fill="#222" stroke="#000" stroke-opacity="0.02" fill-opacity="0.098" transform="translate(0,136)"><rect x="16" y="0" width="16" height="48"></rect><rect x="0" y="16" width="48" height="16"></rect></g><g fill="#222" stroke="#000" stroke-opacity="0.02" fill-opacity="0.098" transform="translate(192,136)"><rect x="16" y="0" width="16" height="48"></rect><rect x="0" y="16" width="48" height="16"></rect></g><g fill="#ddd" stroke="#000" stroke-opacity="0.02" fill-opacity="0.12400000000000001" transform="translate(32,136)"><rect x="16" y="0" width="16" height="48"></rect><rect x="0" y="16" width="48" height="16"></rect></g><g fill="#222" stroke="#000" stroke-opacity="0.02" fill-opacity="0.098" transform="translate(64,136)"><rect x="16" y="0" width="16" height="48"></rect><rect x="0" y="16" width="48" height="16"></rect></g><g fill="#222" stroke="#000" stroke-opacity="0.02" fill-opacity="0.06333333333333334" transform="translate(96,136)"><rect x="16" y="0" width="16" height="48"></rect><rect x="0" y="16" width="48" height="16"></rect></g><g fill="#ddd" stroke="#000" stroke-opacity="0.02" fill-opacity="0.12400000000000001" transform="translate(128,136)"><rect x="16" y="0" width="16" height="48"></rect><rect x="0" y="16" width="48" height="16"></rect></g><g fill="#ddd" stroke="#000" stroke-opacity="0.02" fill-opacity="0.10666666666666667" transform="translate(160,136)"><rect x="16" y="0" width="16" height="48"></rect><rect x="0" y="16" width="48" height="16"></rect></g></pattern></defs><rect x="0" y="0" width="200" height="150" fill="url(#pattern)"></rect></svg>