<svg xmlns="http://www.w3.org/2000/svg" width="840" height="560" viewBox="0 0 840 560"><defs><pattern id="pattern" patternUnits="userSpaceOnUse" width="360" height="237"><rect x="0" y="0" width="100%" height="100%" fill="rgb(69,138,88)"></rect><g stroke="#000" stroke-opacity="0.02" fill="#222" fill-opacity="0.098" stroke-width="1" transform="translate(0,-30)"><polyline points="0,0,30,20.4,30,60,0,39.6,0,0"></polyline><polyline points="30,20.4,60,0,60,39.6,30,60,30,20.4"></polyline></g><g stroke="#000" stroke-opacity="0.02" fill="#222" fill-opacity="0.098" stroke-width="1" transform="translate(0,207.60000000000002)"><polyline points="0,0,30,20.4,30,60,0,39.6,0,0"></polyline><polyline points="30,20.4,60,0,60,39.6,30,60,30,20.4"></polyline></g><g stroke="#000" stroke-opacity="0.02" fill="#ddd" fill-opacity="0.10666666666666667" stroke-width="1" transform="translate(60,-30)"><polyline points="0,0,30,20.4,30,60,0,39.6,0,0"></polyline><polyline points="30,20.4,60,0,60,39.6,30,60,30,20.4"></polyline></g><g stroke="#000" stroke-opacity="0.02" fill="#ddd" fill-opacity="0.10666666666666667" stroke-width="1" transform="translate(60,207.60000000000002)"><polyline points="0,0,30,20.4,30,60,0,39.6,0,0"></polyline><polyline points="30,20.4,60,0,60,39.6,30,60,30,20.4"></polyline></g><g stroke="#000" stroke-opacity="0.02" fill="#ddd" fill-opacity="0.07200000000000001" stroke-width="1" transform="translate(120,-30)"><polyline points="0,0,30,20.4,30,60,0,39.6,0,0"></polyline><polyline points="30,20.4,60,0,60,39.6,30,60,30,20.4"></polyline></g><g stroke="#000" stroke-opacity="0.02" fill="#ddd" fill-opacity="0.07200000000000001" stroke-width="1" transform="translate(120,207.60000000000002)"><polyline points="0,0,30,20.4,30,60,0,39.6,0,0"></polyline><polyline points="30,20.4,60,0,60,39.6,30,60,30,20.4"></polyline></g><g stroke="#000" stroke-opacity="0.02" fill="#ddd" fill-opacity="0.10666666666666667" stroke-width="1" transform="translate(180,-30)"><polyline points="0,0,30,20.4,30,60,0,39.6,0,0"></polyline><polyline points="30,20.4,60,0,60,39.6,30,60,30,20.4"></polyline></g><g stroke="#000" stroke-opacity="0.02" fill="#ddd" fill-opacity="0.10666666666666667" stroke-width="1" transform="translate(180,207.60000000000002)"><polyline points="0,0,30,20.4,30,60,0,39.6,0,0"></polyline><polyline points="30,20.4,60,0,60,39.6,30,60,30,20.4"></polyline></g><g stroke="#000" stroke-opacity="0.02" fill="#222" fill-opacity="0.11533333333333334" stroke-width="1" transform="translate(240,-30)"><polyline points="0,0,30,20.4,30,60,0,39.6,0,0"></polyline><polyline points="30,20.4,60,0,60,39.6,30,60,30,20.4"></polyline></g><g stroke="#000" stroke-opacity="0.02" fill="#222" fill-opacity="0.11533333333333334" stroke-width="1" transform="translate(240,207.60000000000002)"><polyline points="0,0,30,20.4,30,60,0,39.6,0,0"></polyline><polyline points="30,20.4,60,0,60,39.6,30,60,30,20.4"></polyline></g><g stroke="#000" stroke-opacity="0.02" fill="#222" fill-opacity="0.13266666666666665" stroke-width="1" transform="translate(300,-30)"><polyline points="0,0,30,20.4,30,60,0,39.6,0,0"></polyline><polyline points="30,20.4,60,0,60,39.6,30,60,30,20.4"></polyline></g><g stroke="#000" stroke-opacity="0.02" fill="#222" fill-opacity="0.13266666666666665" stroke-width="1" transform="translate(300,207.60000000000002)"><polyline points="0,0,30,20.4,30,60,0,39.6,0,0"></polyline><polyline points="30,20.4,60,0,60,39.6,30,60,30,20.4"></polyline></g><g stroke="#000" stroke-opacity="0.02" fill="#222" fill-opacity="0.06333333333333334" stroke-width="1" transform="translate(0,9.600000000000001)"><polyline points="0,0,30,20.4,30,60,0,39.6,0,0"></polyline><polyline points="30,20.4,60,0,60,39.6,30,60,30,20.4"></polyline></g><g stroke="#000" stroke-opacity="0.02" fill="#ddd" fill-opacity="0.02" stroke-width="1" transform="translate(60,9.600000000000001)"><polyline points="0,0,30,20.4,30,60,0,39.6,0,0"></polyline><polyline points="30,20.4,60,0,60,39.6,30,60,30,20.4"></polyline></g><g stroke="#000" stroke-opacity="0.02" fill="#222" fill-opacity="0.028666666666666667" stroke-width="1" transform="translate(120,9.600000000000001)"><polyline points="0,0,30,20.4,30,60,0,39.6,0,0"></polyline><polyline points="30,20.4,60,0,60,39.6,30,60,30,20.4"></polyline></g><g stroke="#000" stroke-opacity="0.02" fill="#ddd" fill-opacity="0.03733333333333333" stroke-width="1" transform="translate(180,9.600000000000001)"><polyline points="0,0,30,20.4,30,60,0,39.6,0,0"></polyline><polyline points="30,20.4,60,0,60,39.6,30,60,30,20.4"></polyline></g><g stroke="#000" stroke-opacity="0.02" fill="#ddd" fill-opacity="0.12400000000000001" stroke-width="1" transform="translate(240,9.600000000000001)"><polyline points="0,0,30,20.4,30,60,0,39.6,0,0"></polyline><polyline points="30,20.4,60,0,60,39.6,30,60,30,20.4"></polyline></g><g stroke="#000" stroke-opacity="0.02" fill="#ddd" fill-opacity="0.10666666666666667" stroke-width="1" transform="translate(300,9.600000000000001)"><polyline points="0,0,30,20.4,30,60,0,39.6,0,0"></polyline><polyline points="30,20.4,60,0,60,39.6,30,60,30,20.4"></polyline></g><g stroke="#000" stroke-opacity="0.02" fill="#ddd" fill-opacity="0.05466666666666667" stroke-width="1" transform="translate(0,49.2)"><polyline points="0,0,30,20.4,30,60,0,39.6,0,0"></polyline><polyline points="30,20.4,60,0,60,39.6,30,60,30,20.4"></polyline></g><g stroke="#000" stroke-opacity="0.02" fill="#ddd" fill-opacity="0.07200000000000001" stroke-width="1" transform="translate(60,49.2)"><polyline points="0,0,30,20.4,30,60,0,39.6,0,0"></polyline><polyline points="30,20.4,60,0,60,39.6,30,60,30,20.4"></polyline></g><g stroke="#000" stroke-opacity="0.02" fill="#222" fill-opacity="0.098" stroke-width="1" transform="translate(120,49.2)"><polyline points="0,0,30,20.4,30,60,0,39.6,0,0"></polyline><polyline points="30,20.4,60,0,60,39.6,30,60,30,20.4"></polyline></g><g stroke="#000" stroke-opacity="0.02" fill="#222" fill-opacity="0.15" stroke-width="1" transform="translate(180,49.2)"><polyline points="0,0,30,20.4,30,60,0,39.6,0,0"></polyline><polyline points="30,20.4,60,0,60,39.6,30,60,30,20.4"></polyline></g><g stroke="#000" stroke-opacity="0.02" fill="#222" fill-opacity="0.098" stroke-width="1" transform="translate(240,49.2)"><polyline points="0,0,30,20.4,30,60,0,39.6,0,0"></polyline><polyline points="30,20.4,60,0,60,39.6,30,60,30,20.4"></polyline></g><g stroke="#000" stroke-opacity="0.02" fill="#222" fill-opacity="0.098" stroke-width="1" transform="translate(300,49.2)"><polyline points="0,0,30,20.4,30,60,0,39.6,0,0"></polyline><polyline points="30,20.4,60,0,60,39.6,30,60,30,20.4"></polyline></g><g stroke="#000" stroke-opacity="0.02" fill="#ddd" fill-opacity="0.03733333333333333" stroke-width="1" transform="translate(0,88.80000000000001)"><polyline points="0,0,30,20.4,30,60,0,39.6,0,0"></polyline><polyline points="30,20.4,60,0,60,39.6,30,60,30,20.4"></polyline></g><g stroke="#000" stroke-opacity="0.02" fill="#ddd" fill-opacity="0.05466666666666667" stroke-width="1" transform="translate(60,88.80000000000001)"><polyline points="0,0,30,20.4,30,60,0,39.6,0,0"></polyline><polyline points="30,20.4,60,0,60,39.6,30,60,30,20.4"></polyline></g><g stroke="#000" stroke-opacity="0.02" fill="#222" fill-opacity="0.15" stroke-width="1" transform="translate(120,88.80000000000001)"><polyline points="0,0,30,20.4,30,60,0,39.6,0,0"></polyline><polyline points="30,20.4,60,0,60,39.6,30,60,30,20.4"></polyline></g><g stroke="#000" stroke-opacity="0.02" fill="#ddd" fill-opacity="0.03733333333333333" stroke-width="1" transform="translate(180,88.80000000000001)"><polyline points="0,0,30,20.4,30,60,0,39.6,0,0"></polyline><polyline points="30,20.4,60,0,60,39.6,30,60,30,20.4"></polyline></g><g stroke="#000" stroke-opacity="0.02" fill="#222" fill-opacity="0.046" stroke-width="1" transform="translate(240,88.80000000000001)"><polyline points="0,0,30,20.4,30,60,0,39.6,0,0"></polyline><polyline points="30,20.4,60,0,60,39.6,30,60,30,20.4"></polyline></g><g stroke="#000" stroke-opacity="0.02" fill="#ddd" fill-opacity="0.12400000000000001" stroke-width="1" transform="translate(300,88.80000000000001)"><polyline points="0,0,30,20.4,30,60,0,39.6,0,0"></polyline><polyline points="30,20.4,60,0,60,39.6,30,60,30,20.4"></polyline></g><g stroke="#000" stroke-opacity="0.02" fill="#ddd" fill-opacity="0.02" stroke-width="1" transform="translate(0,128.4)"><polyline points="0,0,30,20.4,30,60,0,39.6,0,0"></polyline><polyline points="30,20.4,60,0,60,39.6,30,60,30,20.4"></polyline></g><g stroke="#000" stroke-opacity="0.02" fill="#222" fill-opacity="0.08066666666666666" stroke-width="1" transform="translate(60,128.4)"><polyline points="0,0,30,20.4,30,60,0,39.6,0,0"></polyline><polyline points="30,20.4,60,0,60,39.6,30,60,30,20.4"></polyline></g><g stroke="#000" stroke-opacity="0.02" fill="#ddd" fill-opacity="0.02" stroke-width="1" transform="translate(120,128.4)"><polyline points="0,0,30,20.4,30,60,0,39.6,0,0"></polyline><polyline points="30,20.4,60,0,60,39.6,30,60,30,20.4"></polyline></g><g stroke="#000" stroke-opacity="0.02" fill="#222" fill-opacity="0.13266666666666665" stroke-width="1" transform="translate(180,128.4)"><polyline points="0,0,30,20.4,30,60,0,39.6,0,0"></polyline><polyline points="30,20.4,60,0,60,39.6,30,60,30,20.4"></polyline></g><g stroke="#000" stroke-opacity="0.02" fill="#ddd" fill-opacity="0.05466666666666667" stroke-width="1" transform="translate(240,128.4)"><polyline points="0,0,30,20.4,30,60,0,39.6,0,0"></polyline><polyline points="30,20.4,60,0,60,39.6,30,60,30,20.4"></polyline></g><g stroke="#000" stroke-opacity="0.02" fill="#222" fill-opacity="0.11533333333333334" stroke-width="1" transform="translate(300,128.4)"><polyline points="0,0,30,20.4,30,60,0,39.6,0,0"></polyline><polyline points="30,20.4,60,0,60,39.6,30,60,30,20.4"></polyline></g><g stroke="#000" stroke-opacity="0.02" fill="#222" fill-opacity="0.098" stroke-width="1" transform="translate(0,168)"><polyline points="0,0,30,20.4,30,60,0,39.6,0,0"></polyline><polyline points="30,20.4,60,0,60,39.6,30,60,30,20.4"></polyline></g><g stroke="#000" stroke-opacity="0.02" fill="#ddd" fill-opacity="0.07200000000000001" stroke-width="1" transform="translate(60,168)"><polyline points="0,0,30,20.4,30,60,0,39.6,0,0"></polyline><polyline points="30,20.4,60,0,60,39.6,30,60,30,20.4"></polyline></g><g stroke="#000" stroke-opacity="0.02" fill="#222" fill-opacity="0.028666666666666667" stroke-width="1" transform="translate(120,168)"><polyline points="0,0,30,20.4,30,60,0,39.6,0,0"></polyline><polyline points="30,20.4,60,0,60,39.6,30,60,30,20.4"></polyline></g><g stroke="#000" stroke-opacity="0.02" fill="#222" fill-opacity="0.15" stroke-width="1" transform="translate(180,168)"><polyline points="0,0,30,20.4,30,60,0,39.6,0,0"></polyline><polyline points="30,20.4,60,0,60,39.6,30,60,30,20.4"></polyline></g><g stroke="#000" stroke-opacity="0.02" fill="#222" fill-opacity="0.06333333333333334" stroke-width="1" transform="translate(240,168)"><polyline points="0,0,30,20.4,30,60,0,39.6,0,0"></polyline><polyline points="30,20.4,60,0,60,39.6,30,60,30,20.4"></polyline></g><g stroke="#000" stroke-opacity="0.02" fill="#ddd" fill-opacity="0.12400000000000001" stroke-width="1" transform="translate(300,168)"><polyline points="0,0,30,20.4,30,60,0,39.6,0,0"></polyline><polyline points="30,20.4,60,0,60,39.6,30,60,30,20.4"></polyline></g></pattern></defs><rect x="0" y="0" width="840" height="560" fill="url(#pattern)"></rect></svg>