<svg xmlns="http://www.w3.org/2000/svg" width="26" height="24" viewBox="0 0 26 24">
    <g fill="none" fill-rule="evenodd" stroke="#0057b8" stroke-linejoin="round">
        <path stroke-linecap="round" d="M11.5 8.035l1.131 1.131M11.5 11.035l1.166-1.165M6.5 21.5v2M19.5 21.5v2"/>
        <path d="M22.5 19.537c0 1.104-.894 1.963-2 1.963h-15c-1.104 0-2-.859-2-1.963v-1.559c0-.875.569-1.647 1.405-1.907 1.895-.59 5.349-1.534 8.095-1.534 2.746 0 6.2.943 8.095 1.534a1.997 1.997 0 0 1 1.405 1.907v1.56zM22.41 17.395a3 3 0 1 0-3.789-2.02"/>
        <path d="M7.379 15.374A3.002 3.002 0 0 0 4.5 11.535a3.002 3.002 0 0 0-.91 5.86M21.755 11.512A8.902 8.902 0 0 0 22 9.47 8.97 8.97 0 0 0 13.029.5a8.97 8.97 0 0 0-8.971 8.97c0 .706.09 1.385.244 2.04"/>
        <path stroke-linecap="round" d="M13.335 9.871l1.165 1.164M13.368 9.169L14.5 8.035M13.5 9.5a.5.5 0 1 1-1 0 .5.5 0 0 1 1 0z"/>
    </g>
</svg>
