<svg xmlns="http://www.w3.org/2000/svg" width="840" height="560" viewBox="0 0 840 560"><defs><pattern id="pattern" patternUnits="userSpaceOnUse" width="138" height="138"><rect x="0" y="0" width="100%" height="100%" fill="rgb(71,74,136)"></rect><polyline points="0,0,17.333333333333332,17.333333333333332,0,17.333333333333332,0,0" stroke="#000" stroke-opacity="0.02" fill-opacity="0.028666666666666667" fill="#222" transform="translate(0,17.333333333333332) scale(1,-1)"></polyline><polyline points="0,0,17.333333333333332,17.333333333333332,0,17.333333333333332,0,0" stroke="#000" stroke-opacity="0.02" fill-opacity="0.028666666666666667" fill="#222" transform="translate(34.666666666666664,17.333333333333332) scale(-1,-1)"></polyline><polyline points="0,0,17.333333333333332,17.333333333333332,0,17.333333333333332,0,0" stroke="#000" stroke-opacity="0.02" fill-opacity="0.028666666666666667" fill="#222" transform="translate(0,17.333333333333332) scale(1,1)"></polyline><polyline points="0,0,17.333333333333332,17.333333333333332,0,17.333333333333332,0,0" stroke="#000" stroke-opacity="0.02" fill-opacity="0.028666666666666667" fill="#222" transform="translate(34.666666666666664,17.333333333333332) scale(-1,1)"></polyline><polyline points="0,0,17.333333333333332,17.333333333333332,0,17.333333333333332,0,0" stroke="#000" stroke-opacity="0.02" fill-opacity="0.098" fill="#222" transform="translate(52,0) scale(-1,1)"></polyline><polyline points="0,0,17.333333333333332,17.333333333333332,0,17.333333333333332,0,0" stroke="#000" stroke-opacity="0.02" fill-opacity="0.098" fill="#222" transform="translate(52,34.666666666666664) scale(1,-1)"></polyline><polyline points="0,0,17.333333333333332,17.333333333333332,0,17.333333333333332,0,0" stroke="#000" stroke-opacity="0.02" fill-opacity="0.14133333333333334" fill="#ddd" transform="translate(52,34.666666666666664) scale(-1,-1)"></polyline><polyline points="0,0,17.333333333333332,17.333333333333332,0,17.333333333333332,0,0" stroke="#000" stroke-opacity="0.02" fill-opacity="0.14133333333333334" fill="#ddd" transform="translate(52,0) scale(1,1)"></polyline><polyline points="0,0,17.333333333333332,17.333333333333332,0,17.333333333333332,0,0" stroke="#000" stroke-opacity="0.02" fill-opacity="0.14133333333333334" fill="#ddd" transform="translate(69.33333333333333,17.333333333333332) scale(1,-1)"></polyline><polyline points="0,0,17.333333333333332,17.333333333333332,0,17.333333333333332,0,0" stroke="#000" stroke-opacity="0.02" fill-opacity="0.14133333333333334" fill="#ddd" transform="translate(104,17.333333333333332) scale(-1,-1)"></polyline><polyline points="0,0,17.333333333333332,17.333333333333332,0,17.333333333333332,0,0" stroke="#000" stroke-opacity="0.02" fill-opacity="0.14133333333333334" fill="#ddd" transform="translate(69.33333333333333,17.333333333333332) scale(1,1)"></polyline><polyline points="0,0,17.333333333333332,17.333333333333332,0,17.333333333333332,0,0" stroke="#000" stroke-opacity="0.02" fill-opacity="0.14133333333333334" fill="#ddd" transform="translate(104,17.333333333333332) scale(-1,1)"></polyline><polyline points="0,0,17.333333333333332,17.333333333333332,0,17.333333333333332,0,0" stroke="#000" stroke-opacity="0.02" fill-opacity="0.08066666666666666" fill="#222" transform="translate(121.33333333333333,0) scale(-1,1)"></polyline><polyline points="0,0,17.333333333333332,17.333333333333332,0,17.333333333333332,0,0" stroke="#000" stroke-opacity="0.02" fill-opacity="0.08066666666666666" fill="#222" transform="translate(121.33333333333333,34.666666666666664) scale(1,-1)"></polyline><polyline points="0,0,17.333333333333332,17.333333333333332,0,17.333333333333332,0,0" stroke="#000" stroke-opacity="0.02" fill-opacity="0.12400000000000001" fill="#ddd" transform="translate(121.33333333333333,34.666666666666664) scale(-1,-1)"></polyline><polyline points="0,0,17.333333333333332,17.333333333333332,0,17.333333333333332,0,0" stroke="#000" stroke-opacity="0.02" fill-opacity="0.12400000000000001" fill="#ddd" transform="translate(121.33333333333333,0) scale(1,1)"></polyline><polyline points="0,0,17.333333333333332,17.333333333333332,0,17.333333333333332,0,0" stroke="#000" stroke-opacity="0.02" fill-opacity="0.12400000000000001" fill="#ddd" transform="translate(17.333333333333332,34.666666666666664) scale(-1,1)"></polyline><polyline points="0,0,17.333333333333332,17.333333333333332,0,17.333333333333332,0,0" stroke="#000" stroke-opacity="0.02" fill-opacity="0.12400000000000001" fill="#ddd" transform="translate(17.333333333333332,69.33333333333333) scale(1,-1)"></polyline><polyline points="0,0,17.333333333333332,17.333333333333332,0,17.333333333333332,0,0" stroke="#000" stroke-opacity="0.02" fill-opacity="0.11533333333333334" fill="#222" transform="translate(17.333333333333332,69.33333333333333) scale(-1,-1)"></polyline><polyline points="0,0,17.333333333333332,17.333333333333332,0,17.333333333333332,0,0" stroke="#000" stroke-opacity="0.02" fill-opacity="0.11533333333333334" fill="#222" transform="translate(17.333333333333332,34.666666666666664) scale(1,1)"></polyline><polyline points="0,0,17.333333333333332,17.333333333333332,0,17.333333333333332,0,0" stroke="#000" stroke-opacity="0.02" fill-opacity="0.11533333333333334" fill="#222" transform="translate(34.666666666666664,52) scale(1,-1)"></polyline><polyline points="0,0,17.333333333333332,17.333333333333332,0,17.333333333333332,0,0" stroke="#000" stroke-opacity="0.02" fill-opacity="0.11533333333333334" fill="#222" transform="translate(69.33333333333333,52) scale(-1,-1)"></polyline><polyline points="0,0,17.333333333333332,17.333333333333332,0,17.333333333333332,0,0" stroke="#000" stroke-opacity="0.02" fill-opacity="0.11533333333333334" fill="#222" transform="translate(34.666666666666664,52) scale(1,1)"></polyline><polyline points="0,0,17.333333333333332,17.333333333333332,0,17.333333333333332,0,0" stroke="#000" stroke-opacity="0.02" fill-opacity="0.11533333333333334" fill="#222" transform="translate(69.33333333333333,52) scale(-1,1)"></polyline><polyline points="0,0,17.333333333333332,17.333333333333332,0,17.333333333333332,0,0" stroke="#000" stroke-opacity="0.02" fill-opacity="0.14133333333333334" fill="#ddd" transform="translate(86.66666666666666,34.666666666666664) scale(-1,1)"></polyline><polyline points="0,0,17.333333333333332,17.333333333333332,0,17.333333333333332,0,0" stroke="#000" stroke-opacity="0.02" fill-opacity="0.14133333333333334" fill="#ddd" transform="translate(86.66666666666666,69.33333333333333) scale(1,-1)"></polyline><polyline points="0,0,17.333333333333332,17.333333333333332,0,17.333333333333332,0,0" stroke="#000" stroke-opacity="0.02" fill-opacity="0.08933333333333333" fill="#ddd" transform="translate(86.66666666666666,69.33333333333333) scale(-1,-1)"></polyline><polyline points="0,0,17.333333333333332,17.333333333333332,0,17.333333333333332,0,0" stroke="#000" stroke-opacity="0.02" fill-opacity="0.08933333333333333" fill="#ddd" transform="translate(86.66666666666666,34.666666666666664) scale(1,1)"></polyline><polyline points="0,0,17.333333333333332,17.333333333333332,0,17.333333333333332,0,0" stroke="#000" stroke-opacity="0.02" fill-opacity="0.08933333333333333" fill="#ddd" transform="translate(104,52) scale(1,-1)"></polyline><polyline points="0,0,17.333333333333332,17.333333333333332,0,17.333333333333332,0,0" stroke="#000" stroke-opacity="0.02" fill-opacity="0.08933333333333333" fill="#ddd" transform="translate(138.66666666666666,52) scale(-1,-1)"></polyline><polyline points="0,0,17.333333333333332,17.333333333333332,0,17.333333333333332,0,0" stroke="#000" stroke-opacity="0.02" fill-opacity="0.08933333333333333" fill="#ddd" transform="translate(104,52) scale(1,1)"></polyline><polyline points="0,0,17.333333333333332,17.333333333333332,0,17.333333333333332,0,0" stroke="#000" stroke-opacity="0.02" fill-opacity="0.08933333333333333" fill="#ddd" transform="translate(138.66666666666666,52) scale(-1,1)"></polyline><polyline points="0,0,17.333333333333332,17.333333333333332,0,17.333333333333332,0,0" stroke="#000" stroke-opacity="0.02" fill-opacity="0.03733333333333333" fill="#ddd" transform="translate(0,86.66666666666666) scale(1,-1)"></polyline><polyline points="0,0,17.333333333333332,17.333333333333332,0,17.333333333333332,0,0" stroke="#000" stroke-opacity="0.02" fill-opacity="0.03733333333333333" fill="#ddd" transform="translate(34.666666666666664,86.66666666666666) scale(-1,-1)"></polyline><polyline points="0,0,17.333333333333332,17.333333333333332,0,17.333333333333332,0,0" stroke="#000" stroke-opacity="0.02" fill-opacity="0.03733333333333333" fill="#ddd" transform="translate(0,86.66666666666666) scale(1,1)"></polyline><polyline points="0,0,17.333333333333332,17.333333333333332,0,17.333333333333332,0,0" stroke="#000" stroke-opacity="0.02" fill-opacity="0.03733333333333333" fill="#ddd" transform="translate(34.666666666666664,86.66666666666666) scale(-1,1)"></polyline><polyline points="0,0,17.333333333333332,17.333333333333332,0,17.333333333333332,0,0" stroke="#000" stroke-opacity="0.02" fill-opacity="0.05466666666666667" fill="#ddd" transform="translate(52,69.33333333333333) scale(-1,1)"></polyline><polyline points="0,0,17.333333333333332,17.333333333333332,0,17.333333333333332,0,0" stroke="#000" stroke-opacity="0.02" fill-opacity="0.05466666666666667" fill="#ddd" transform="translate(52,104) scale(1,-1)"></polyline><polyline points="0,0,17.333333333333332,17.333333333333332,0,17.333333333333332,0,0" stroke="#000" stroke-opacity="0.02" fill-opacity="0.15" fill="#222" transform="translate(52,104) scale(-1,-1)"></polyline><polyline points="0,0,17.333333333333332,17.333333333333332,0,17.333333333333332,0,0" stroke="#000" stroke-opacity="0.02" fill-opacity="0.15" fill="#222" transform="translate(52,69.33333333333333) scale(1,1)"></polyline><polyline points="0,0,17.333333333333332,17.333333333333332,0,17.333333333333332,0,0" stroke="#000" stroke-opacity="0.02" fill-opacity="0.15" fill="#222" transform="translate(69.33333333333333,86.66666666666666) scale(1,-1)"></polyline><polyline points="0,0,17.333333333333332,17.333333333333332,0,17.333333333333332,0,0" stroke="#000" stroke-opacity="0.02" fill-opacity="0.15" fill="#222" transform="translate(104,86.66666666666666) scale(-1,-1)"></polyline><polyline points="0,0,17.333333333333332,17.333333333333332,0,17.333333333333332,0,0" stroke="#000" stroke-opacity="0.02" fill-opacity="0.15" fill="#222" transform="translate(69.33333333333333,86.66666666666666) scale(1,1)"></polyline><polyline points="0,0,17.333333333333332,17.333333333333332,0,17.333333333333332,0,0" stroke="#000" stroke-opacity="0.02" fill-opacity="0.15" fill="#222" transform="translate(104,86.66666666666666) scale(-1,1)"></polyline><polyline points="0,0,17.333333333333332,17.333333333333332,0,17.333333333333332,0,0" stroke="#000" stroke-opacity="0.02" fill-opacity="0.14133333333333334" fill="#ddd" transform="translate(121.33333333333333,69.33333333333333) scale(-1,1)"></polyline><polyline points="0,0,17.333333333333332,17.333333333333332,0,17.333333333333332,0,0" stroke="#000" stroke-opacity="0.02" fill-opacity="0.14133333333333334" fill="#ddd" transform="translate(121.33333333333333,104) scale(1,-1)"></polyline><polyline points="0,0,17.333333333333332,17.333333333333332,0,17.333333333333332,0,0" stroke="#000" stroke-opacity="0.02" fill-opacity="0.14133333333333334" fill="#ddd" transform="translate(121.33333333333333,104) scale(-1,-1)"></polyline><polyline points="0,0,17.333333333333332,17.333333333333332,0,17.333333333333332,0,0" stroke="#000" stroke-opacity="0.02" fill-opacity="0.14133333333333334" fill="#ddd" transform="translate(121.33333333333333,69.33333333333333) scale(1,1)"></polyline><polyline points="0,0,17.333333333333332,17.333333333333332,0,17.333333333333332,0,0" stroke="#000" stroke-opacity="0.02" fill-opacity="0.14133333333333334" fill="#ddd" transform="translate(17.333333333333332,104) scale(-1,1)"></polyline><polyline points="0,0,17.333333333333332,17.333333333333332,0,17.333333333333332,0,0" stroke="#000" stroke-opacity="0.02" fill-opacity="0.14133333333333334" fill="#ddd" transform="translate(17.333333333333332,138.66666666666666) scale(1,-1)"></polyline><polyline points="0,0,17.333333333333332,17.333333333333332,0,17.333333333333332,0,0" stroke="#000" stroke-opacity="0.02" fill-opacity="0.05466666666666667" fill="#ddd" transform="translate(17.333333333333332,138.66666666666666) scale(-1,-1)"></polyline><polyline points="0,0,17.333333333333332,17.333333333333332,0,17.333333333333332,0,0" stroke="#000" stroke-opacity="0.02" fill-opacity="0.05466666666666667" fill="#ddd" transform="translate(17.333333333333332,104) scale(1,1)"></polyline><polyline points="0,0,17.333333333333332,17.333333333333332,0,17.333333333333332,0,0" stroke="#000" stroke-opacity="0.02" fill-opacity="0.05466666666666667" fill="#ddd" transform="translate(34.666666666666664,121.33333333333333) scale(1,-1)"></polyline><polyline points="0,0,17.333333333333332,17.333333333333332,0,17.333333333333332,0,0" stroke="#000" stroke-opacity="0.02" fill-opacity="0.05466666666666667" fill="#ddd" transform="translate(69.33333333333333,121.33333333333333) scale(-1,-1)"></polyline><polyline points="0,0,17.333333333333332,17.333333333333332,0,17.333333333333332,0,0" stroke="#000" stroke-opacity="0.02" fill-opacity="0.05466666666666667" fill="#ddd" transform="translate(34.666666666666664,121.33333333333333) scale(1,1)"></polyline><polyline points="0,0,17.333333333333332,17.333333333333332,0,17.333333333333332,0,0" stroke="#000" stroke-opacity="0.02" fill-opacity="0.05466666666666667" fill="#ddd" transform="translate(69.33333333333333,121.33333333333333) scale(-1,1)"></polyline><polyline points="0,0,17.333333333333332,17.333333333333332,0,17.333333333333332,0,0" stroke="#000" stroke-opacity="0.02" fill-opacity="0.06333333333333334" fill="#222" transform="translate(86.66666666666666,104) scale(-1,1)"></polyline><polyline points="0,0,17.333333333333332,17.333333333333332,0,17.333333333333332,0,0" stroke="#000" stroke-opacity="0.02" fill-opacity="0.06333333333333334" fill="#222" transform="translate(86.66666666666666,138.66666666666666) scale(1,-1)"></polyline><polyline points="0,0,17.333333333333332,17.333333333333332,0,17.333333333333332,0,0" stroke="#000" stroke-opacity="0.02" fill-opacity="0.08066666666666666" fill="#222" transform="translate(86.66666666666666,138.66666666666666) scale(-1,-1)"></polyline><polyline points="0,0,17.333333333333332,17.333333333333332,0,17.333333333333332,0,0" stroke="#000" stroke-opacity="0.02" fill-opacity="0.08066666666666666" fill="#222" transform="translate(86.66666666666666,104) scale(1,1)"></polyline><polyline points="0,0,17.333333333333332,17.333333333333332,0,17.333333333333332,0,0" stroke="#000" stroke-opacity="0.02" fill-opacity="0.08066666666666666" fill="#222" transform="translate(104,121.33333333333333) scale(1,-1)"></polyline><polyline points="0,0,17.333333333333332,17.333333333333332,0,17.333333333333332,0,0" stroke="#000" stroke-opacity="0.02" fill-opacity="0.08066666666666666" fill="#222" transform="translate(138.66666666666666,121.33333333333333) scale(-1,-1)"></polyline><polyline points="0,0,17.333333333333332,17.333333333333332,0,17.333333333333332,0,0" stroke="#000" stroke-opacity="0.02" fill-opacity="0.08066666666666666" fill="#222" transform="translate(104,121.33333333333333) scale(1,1)"></polyline><polyline points="0,0,17.333333333333332,17.333333333333332,0,17.333333333333332,0,0" stroke="#000" stroke-opacity="0.02" fill-opacity="0.08066666666666666" fill="#222" transform="translate(138.66666666666666,121.33333333333333) scale(-1,1)"></polyline></pattern></defs><rect x="0" y="0" width="840" height="560" fill="url(#pattern)"></rect></svg>