<svg xmlns="http://www.w3.org/2000/svg" width="840" height="560" viewBox="0 0 840 560"><defs><pattern id="pattern" patternUnits="userSpaceOnUse" width="120" height="120"><rect x="0" y="0" width="100%" height="100%" fill="rgb(73,93,134)"></rect><polyline points="0,0,15,15,0,15,0,0" stroke="#000" stroke-opacity="0.02" fill-opacity="0.02" fill="#ddd" transform="translate(0,15) scale(1,-1)"></polyline><polyline points="0,0,15,15,0,15,0,0" stroke="#000" stroke-opacity="0.02" fill-opacity="0.02" fill="#ddd" transform="translate(30,15) scale(-1,-1)"></polyline><polyline points="0,0,15,15,0,15,0,0" stroke="#000" stroke-opacity="0.02" fill-opacity="0.02" fill="#ddd" transform="translate(0,15) scale(1,1)"></polyline><polyline points="0,0,15,15,0,15,0,0" stroke="#000" stroke-opacity="0.02" fill-opacity="0.02" fill="#ddd" transform="translate(30,15) scale(-1,1)"></polyline><polyline points="0,0,15,15,0,15,0,0" stroke="#000" stroke-opacity="0.02" fill-opacity="0.10666666666666667" fill="#ddd" transform="translate(45,0) scale(-1,1)"></polyline><polyline points="0,0,15,15,0,15,0,0" stroke="#000" stroke-opacity="0.02" fill-opacity="0.10666666666666667" fill="#ddd" transform="translate(45,30) scale(1,-1)"></polyline><polyline points="0,0,15,15,0,15,0,0" stroke="#000" stroke-opacity="0.02" fill-opacity="0.15" fill="#222" transform="translate(45,30) scale(-1,-1)"></polyline><polyline points="0,0,15,15,0,15,0,0" stroke="#000" stroke-opacity="0.02" fill-opacity="0.15" fill="#222" transform="translate(45,0) scale(1,1)"></polyline><polyline points="0,0,15,15,0,15,0,0" stroke="#000" stroke-opacity="0.02" fill-opacity="0.15" fill="#222" transform="translate(60,15) scale(1,-1)"></polyline><polyline points="0,0,15,15,0,15,0,0" stroke="#000" stroke-opacity="0.02" fill-opacity="0.15" fill="#222" transform="translate(90,15) scale(-1,-1)"></polyline><polyline points="0,0,15,15,0,15,0,0" stroke="#000" stroke-opacity="0.02" fill-opacity="0.15" fill="#222" transform="translate(60,15) scale(1,1)"></polyline><polyline points="0,0,15,15,0,15,0,0" stroke="#000" stroke-opacity="0.02" fill-opacity="0.15" fill="#222" transform="translate(90,15) scale(-1,1)"></polyline><polyline points="0,0,15,15,0,15,0,0" stroke="#000" stroke-opacity="0.02" fill-opacity="0.10666666666666667" fill="#ddd" transform="translate(105,0) scale(-1,1)"></polyline><polyline points="0,0,15,15,0,15,0,0" stroke="#000" stroke-opacity="0.02" fill-opacity="0.10666666666666667" fill="#ddd" transform="translate(105,30) scale(1,-1)"></polyline><polyline points="0,0,15,15,0,15,0,0" stroke="#000" stroke-opacity="0.02" fill-opacity="0.06333333333333334" fill="#222" transform="translate(105,30) scale(-1,-1)"></polyline><polyline points="0,0,15,15,0,15,0,0" stroke="#000" stroke-opacity="0.02" fill-opacity="0.06333333333333334" fill="#222" transform="translate(105,0) scale(1,1)"></polyline><polyline points="0,0,15,15,0,15,0,0" stroke="#000" stroke-opacity="0.02" fill-opacity="0.06333333333333334" fill="#222" transform="translate(15,30) scale(-1,1)"></polyline><polyline points="0,0,15,15,0,15,0,0" stroke="#000" stroke-opacity="0.02" fill-opacity="0.06333333333333334" fill="#222" transform="translate(15,60) scale(1,-1)"></polyline><polyline points="0,0,15,15,0,15,0,0" stroke="#000" stroke-opacity="0.02" fill-opacity="0.12400000000000001" fill="#ddd" transform="translate(15,60) scale(-1,-1)"></polyline><polyline points="0,0,15,15,0,15,0,0" stroke="#000" stroke-opacity="0.02" fill-opacity="0.12400000000000001" fill="#ddd" transform="translate(15,30) scale(1,1)"></polyline><polyline points="0,0,15,15,0,15,0,0" stroke="#000" stroke-opacity="0.02" fill-opacity="0.12400000000000001" fill="#ddd" transform="translate(30,45) scale(1,-1)"></polyline><polyline points="0,0,15,15,0,15,0,0" stroke="#000" stroke-opacity="0.02" fill-opacity="0.12400000000000001" fill="#ddd" transform="translate(60,45) scale(-1,-1)"></polyline><polyline points="0,0,15,15,0,15,0,0" stroke="#000" stroke-opacity="0.02" fill-opacity="0.12400000000000001" fill="#ddd" transform="translate(30,45) scale(1,1)"></polyline><polyline points="0,0,15,15,0,15,0,0" stroke="#000" stroke-opacity="0.02" fill-opacity="0.12400000000000001" fill="#ddd" transform="translate(60,45) scale(-1,1)"></polyline><polyline points="0,0,15,15,0,15,0,0" stroke="#000" stroke-opacity="0.02" fill-opacity="0.13266666666666665" fill="#222" transform="translate(75,30) scale(-1,1)"></polyline><polyline points="0,0,15,15,0,15,0,0" stroke="#000" stroke-opacity="0.02" fill-opacity="0.13266666666666665" fill="#222" transform="translate(75,60) scale(1,-1)"></polyline><polyline points="0,0,15,15,0,15,0,0" stroke="#000" stroke-opacity="0.02" fill-opacity="0.13266666666666665" fill="#222" transform="translate(75,60) scale(-1,-1)"></polyline><polyline points="0,0,15,15,0,15,0,0" stroke="#000" stroke-opacity="0.02" fill-opacity="0.13266666666666665" fill="#222" transform="translate(75,30) scale(1,1)"></polyline><polyline points="0,0,15,15,0,15,0,0" stroke="#000" stroke-opacity="0.02" fill-opacity="0.13266666666666665" fill="#222" transform="translate(90,45) scale(1,-1)"></polyline><polyline points="0,0,15,15,0,15,0,0" stroke="#000" stroke-opacity="0.02" fill-opacity="0.13266666666666665" fill="#222" transform="translate(120,45) scale(-1,-1)"></polyline><polyline points="0,0,15,15,0,15,0,0" stroke="#000" stroke-opacity="0.02" fill-opacity="0.13266666666666665" fill="#222" transform="translate(90,45) scale(1,1)"></polyline><polyline points="0,0,15,15,0,15,0,0" stroke="#000" stroke-opacity="0.02" fill-opacity="0.13266666666666665" fill="#222" transform="translate(120,45) scale(-1,1)"></polyline><polyline points="0,0,15,15,0,15,0,0" stroke="#000" stroke-opacity="0.02" fill-opacity="0.13266666666666665" fill="#222" transform="translate(0,75) scale(1,-1)"></polyline><polyline points="0,0,15,15,0,15,0,0" stroke="#000" stroke-opacity="0.02" fill-opacity="0.13266666666666665" fill="#222" transform="translate(30,75) scale(-1,-1)"></polyline><polyline points="0,0,15,15,0,15,0,0" stroke="#000" stroke-opacity="0.02" fill-opacity="0.13266666666666665" fill="#222" transform="translate(0,75) scale(1,1)"></polyline><polyline points="0,0,15,15,0,15,0,0" stroke="#000" stroke-opacity="0.02" fill-opacity="0.13266666666666665" fill="#222" transform="translate(30,75) scale(-1,1)"></polyline><polyline points="0,0,15,15,0,15,0,0" stroke="#000" stroke-opacity="0.02" fill-opacity="0.08066666666666666" fill="#222" transform="translate(45,60) scale(-1,1)"></polyline><polyline points="0,0,15,15,0,15,0,0" stroke="#000" stroke-opacity="0.02" fill-opacity="0.08066666666666666" fill="#222" transform="translate(45,90) scale(1,-1)"></polyline><polyline points="0,0,15,15,0,15,0,0" stroke="#000" stroke-opacity="0.02" fill-opacity="0.046" fill="#222" transform="translate(45,90) scale(-1,-1)"></polyline><polyline points="0,0,15,15,0,15,0,0" stroke="#000" stroke-opacity="0.02" fill-opacity="0.046" fill="#222" transform="translate(45,60) scale(1,1)"></polyline><polyline points="0,0,15,15,0,15,0,0" stroke="#000" stroke-opacity="0.02" fill-opacity="0.046" fill="#222" transform="translate(60,75) scale(1,-1)"></polyline><polyline points="0,0,15,15,0,15,0,0" stroke="#000" stroke-opacity="0.02" fill-opacity="0.046" fill="#222" transform="translate(90,75) scale(-1,-1)"></polyline><polyline points="0,0,15,15,0,15,0,0" stroke="#000" stroke-opacity="0.02" fill-opacity="0.046" fill="#222" transform="translate(60,75) scale(1,1)"></polyline><polyline points="0,0,15,15,0,15,0,0" stroke="#000" stroke-opacity="0.02" fill-opacity="0.046" fill="#222" transform="translate(90,75) scale(-1,1)"></polyline><polyline points="0,0,15,15,0,15,0,0" stroke="#000" stroke-opacity="0.02" fill-opacity="0.03733333333333333" fill="#ddd" transform="translate(105,60) scale(-1,1)"></polyline><polyline points="0,0,15,15,0,15,0,0" stroke="#000" stroke-opacity="0.02" fill-opacity="0.03733333333333333" fill="#ddd" transform="translate(105,90) scale(1,-1)"></polyline><polyline points="0,0,15,15,0,15,0,0" stroke="#000" stroke-opacity="0.02" fill-opacity="0.098" fill="#222" transform="translate(105,90) scale(-1,-1)"></polyline><polyline points="0,0,15,15,0,15,0,0" stroke="#000" stroke-opacity="0.02" fill-opacity="0.098" fill="#222" transform="translate(105,60) scale(1,1)"></polyline><polyline points="0,0,15,15,0,15,0,0" stroke="#000" stroke-opacity="0.02" fill-opacity="0.098" fill="#222" transform="translate(15,90) scale(-1,1)"></polyline><polyline points="0,0,15,15,0,15,0,0" stroke="#000" stroke-opacity="0.02" fill-opacity="0.098" fill="#222" transform="translate(15,120) scale(1,-1)"></polyline><polyline points="0,0,15,15,0,15,0,0" stroke="#000" stroke-opacity="0.02" fill-opacity="0.05466666666666667" fill="#ddd" transform="translate(15,120) scale(-1,-1)"></polyline><polyline points="0,0,15,15,0,15,0,0" stroke="#000" stroke-opacity="0.02" fill-opacity="0.05466666666666667" fill="#ddd" transform="translate(15,90) scale(1,1)"></polyline><polyline points="0,0,15,15,0,15,0,0" stroke="#000" stroke-opacity="0.02" fill-opacity="0.05466666666666667" fill="#ddd" transform="translate(30,105) scale(1,-1)"></polyline><polyline points="0,0,15,15,0,15,0,0" stroke="#000" stroke-opacity="0.02" fill-opacity="0.05466666666666667" fill="#ddd" transform="translate(60,105) scale(-1,-1)"></polyline><polyline points="0,0,15,15,0,15,0,0" stroke="#000" stroke-opacity="0.02" fill-opacity="0.05466666666666667" fill="#ddd" transform="translate(30,105) scale(1,1)"></polyline><polyline points="0,0,15,15,0,15,0,0" stroke="#000" stroke-opacity="0.02" fill-opacity="0.05466666666666667" fill="#ddd" transform="translate(60,105) scale(-1,1)"></polyline><polyline points="0,0,15,15,0,15,0,0" stroke="#000" stroke-opacity="0.02" fill-opacity="0.07200000000000001" fill="#ddd" transform="translate(75,90) scale(-1,1)"></polyline><polyline points="0,0,15,15,0,15,0,0" stroke="#000" stroke-opacity="0.02" fill-opacity="0.07200000000000001" fill="#ddd" transform="translate(75,120) scale(1,-1)"></polyline><polyline points="0,0,15,15,0,15,0,0" stroke="#000" stroke-opacity="0.02" fill-opacity="0.046" fill="#222" transform="translate(75,120) scale(-1,-1)"></polyline><polyline points="0,0,15,15,0,15,0,0" stroke="#000" stroke-opacity="0.02" fill-opacity="0.046" fill="#222" transform="translate(75,90) scale(1,1)"></polyline><polyline points="0,0,15,15,0,15,0,0" stroke="#000" stroke-opacity="0.02" fill-opacity="0.046" fill="#222" transform="translate(90,105) scale(1,-1)"></polyline><polyline points="0,0,15,15,0,15,0,0" stroke="#000" stroke-opacity="0.02" fill-opacity="0.046" fill="#222" transform="translate(120,105) scale(-1,-1)"></polyline><polyline points="0,0,15,15,0,15,0,0" stroke="#000" stroke-opacity="0.02" fill-opacity="0.046" fill="#222" transform="translate(90,105) scale(1,1)"></polyline><polyline points="0,0,15,15,0,15,0,0" stroke="#000" stroke-opacity="0.02" fill-opacity="0.046" fill="#222" transform="translate(120,105) scale(-1,1)"></polyline></pattern></defs><rect x="0" y="0" width="840" height="560" fill="url(#pattern)"></rect></svg>