<svg xmlns="http://www.w3.org/2000/svg" width="840" height="560" viewBox="0 0 840 560"><defs><pattern id="pattern" patternUnits="userSpaceOnUse" width="189" height="218"><rect x="0" y="0" width="100%" height="100%" fill="rgb(136,71,114)"></rect><rect x="-20" y="-20" width="40" height="40" stroke="#000" stroke-opacity="0.02" fill="#222" fill-opacity="0.15" stroke-width="1"></rect><rect x="169.28203230275508" y="-20" width="40" height="40" stroke="#000" stroke-opacity="0.02" fill="#222" fill-opacity="0.15" stroke-width="1"></rect><rect x="-20" y="198.56406460551017" width="40" height="40" stroke="#000" stroke-opacity="0.02" fill="#222" fill-opacity="0.15" stroke-width="1"></rect><rect x="169.28203230275508" y="198.56406460551017" width="40" height="40" stroke="#000" stroke-opacity="0.02" fill="#222" fill-opacity="0.15" stroke-width="1"></rect><rect x="74.64101615137754" y="34.64101615137754" width="40" height="40" stroke="#000" stroke-opacity="0.02" fill="#222" fill-opacity="0.15" stroke-width="1"></rect><rect x="-20" y="89.28203230275508" width="40" height="40" stroke="#000" stroke-opacity="0.02" fill="#ddd" fill-opacity="0.12400000000000001" stroke-width="1"></rect><rect x="169.28203230275508" y="89.28203230275508" width="40" height="40" stroke="#000" stroke-opacity="0.02" fill="#ddd" fill-opacity="0.12400000000000001" stroke-width="1"></rect><rect x="74.64101615137754" y="143.92304845413264" width="40" height="40" stroke="#000" stroke-opacity="0.02" fill="#ddd" fill-opacity="0.08933333333333333" stroke-width="1"></rect><polyline points="0,0,34.64101615137754,20,0,40,0,0" stroke="#000" stroke-opacity="0.02" fill="#ddd" fill-opacity="0.07200000000000001" stroke-width="1" transform="translate(20,-20) rotate(0,20,17.32050807568877)"></polyline><polyline points="0,0,34.64101615137754,20,0,40,0,0" stroke="#000" stroke-opacity="0.02" fill="#ddd" fill-opacity="0.07200000000000001" stroke-width="1" transform="translate(20,238.56406460551017) rotate(0,20,17.32050807568877) scale(1,-1)"></polyline><polyline points="0,0,34.64101615137754,20,0,40,0,0" stroke="#000" stroke-opacity="0.02" fill="#222" fill-opacity="0.11533333333333334" stroke-width="1" transform="translate(169.28203230275508,-20) rotate(0,20,17.32050807568877) scale(-1,1)"></polyline><polyline points="0,0,34.64101615137754,20,0,40,0,0" stroke="#000" stroke-opacity="0.02" fill="#222" fill-opacity="0.11533333333333334" stroke-width="1" transform="translate(169.28203230275508,238.56406460551017) rotate(0,20,17.32050807568877) scale(-1,-1)"></polyline><polyline points="0,0,34.64101615137754,20,0,40,0,0" stroke="#000" stroke-opacity="0.02" fill="#222" fill-opacity="0.098" stroke-width="1" transform="translate(114.64101615137754,34.64101615137754)"></polyline><polyline points="0,0,34.64101615137754,20,0,40,0,0" stroke="#000" stroke-opacity="0.02" fill="#ddd" fill-opacity="0.03733333333333333" stroke-width="1" transform="translate(74.64101615137754,34.64101615137754) scale(-1,1)"></polyline><polyline points="0,0,34.64101615137754,20,0,40,0,0" stroke="#000" stroke-opacity="0.02" fill="#222" fill-opacity="0.098" stroke-width="1" transform="translate(114.64101615137754,183.92304845413264) scale(1,-1)"></polyline><polyline points="0,0,34.64101615137754,20,0,40,0,0" stroke="#000" stroke-opacity="0.02" fill="#ddd" fill-opacity="0.03733333333333333" stroke-width="1" transform="translate(74.64101615137754,183.92304845413264) scale(-1,-1)"></polyline><polyline points="0,0,34.64101615137754,20,0,40,0,0" stroke="#000" stroke-opacity="0.02" fill="#222" fill-opacity="0.11533333333333334" stroke-width="1" transform="translate(20,89.28203230275508)"></polyline><polyline points="0,0,34.64101615137754,20,0,40,0,0" stroke="#000" stroke-opacity="0.02" fill="#ddd" fill-opacity="0.10666666666666667" stroke-width="1" transform="translate(169.28203230275508,89.28203230275508) scale(-1,1)"></polyline><rect x="0" y="0" width="40" height="40" stroke="#000" stroke-opacity="0.02" fill="#222" fill-opacity="0.13266666666666665" stroke-width="1" transform="translate(20,20) rotate(-30,0,0)"></rect><rect x="0" y="0" width="40" height="40" stroke="#000" stroke-opacity="0.02" fill="#ddd" fill-opacity="0.10666666666666667" stroke-width="1" transform="scale(-1,1) translate(-169.28203230275508,20) rotate(-30,0,0)"></rect><rect x="0" y="0" width="40" height="40" stroke="#000" stroke-opacity="0.02" fill="#222" fill-opacity="0.028666666666666667" stroke-width="1" transform="translate(20,49.282032302755084) rotate(30,0,40)"></rect><rect x="0" y="0" width="40" height="40" stroke="#000" stroke-opacity="0.02" fill="#ddd" fill-opacity="0.12400000000000001" stroke-width="1" transform="scale(-1,1) translate(-169.28203230275508,49.282032302755084) rotate(30,0,40)"></rect><rect x="0" y="0" width="40" height="40" stroke="#000" stroke-opacity="0.02" fill="#222" fill-opacity="0.08066666666666666" stroke-width="1" transform="scale(1,-1) translate(20,-169.28203230275508) rotate(30,0,40)"></rect><rect x="0" y="0" width="40" height="40" stroke="#000" stroke-opacity="0.02" fill="#222" fill-opacity="0.11533333333333334" stroke-width="1" transform="scale(-1,-1) translate(-169.28203230275508,-169.28203230275508) rotate(30,0,40)"></rect><rect x="0" y="0" width="40" height="40" stroke="#000" stroke-opacity="0.02" fill="#ddd" fill-opacity="0.03733333333333333" stroke-width="1" transform="scale(1,-1) translate(20,-198.56406460551017) rotate(-30,0,0)"></rect><rect x="0" y="0" width="40" height="40" stroke="#000" stroke-opacity="0.02" fill="#ddd" fill-opacity="0.02" stroke-width="1" transform="scale(-1,-1) translate(-169.28203230275508,-198.56406460551017) rotate(-30,0,0)"></rect></pattern></defs><rect x="0" y="0" width="840" height="560" fill="url(#pattern)"></rect></svg>