<svg xmlns="http://www.w3.org/2000/svg" width="840" height="560" viewBox="0 0 840 560"><defs><pattern id="pattern" patternUnits="userSpaceOnUse" width="235" height="38"><rect x="0" y="0" width="100%" height="100%" fill="rgb(159,98,48)"></rect><polyline points="19.666666666666664,0,39.33333333333333,6.333333333333333,19.666666666666664,12.666666666666666,0,6.333333333333333" fill="#222" fill-opacity="0.11533333333333334" stroke="#000" stroke-opacity="0.02" transform="translate(-19.666666666666664,-6.333333333333333)"></polyline><polyline points="19.666666666666664,0,39.33333333333333,6.333333333333333,19.666666666666664,12.666666666666666,0,6.333333333333333" fill="#222" fill-opacity="0.11533333333333334" stroke="#000" stroke-opacity="0.02" transform="translate(216.33333333333331,-6.333333333333333)"></polyline><polyline points="19.666666666666664,0,39.33333333333333,6.333333333333333,19.666666666666664,12.666666666666666,0,6.333333333333333" fill="#222" fill-opacity="0.11533333333333334" stroke="#000" stroke-opacity="0.02" transform="translate(-19.666666666666664,31.666666666666668)"></polyline><polyline points="19.666666666666664,0,39.33333333333333,6.333333333333333,19.666666666666664,12.666666666666666,0,6.333333333333333" fill="#222" fill-opacity="0.11533333333333334" stroke="#000" stroke-opacity="0.02" transform="translate(216.33333333333331,31.666666666666668)"></polyline><polyline points="19.666666666666664,0,39.33333333333333,6.333333333333333,19.666666666666664,12.666666666666666,0,6.333333333333333" fill="#222" fill-opacity="0.028666666666666667" stroke="#000" stroke-opacity="0.02" transform="translate(19.666666666666664,-6.333333333333333)"></polyline><polyline points="19.666666666666664,0,39.33333333333333,6.333333333333333,19.666666666666664,12.666666666666666,0,6.333333333333333" fill="#222" fill-opacity="0.028666666666666667" stroke="#000" stroke-opacity="0.02" transform="translate(19.666666666666664,31.666666666666668)"></polyline><polyline points="19.666666666666664,0,39.33333333333333,6.333333333333333,19.666666666666664,12.666666666666666,0,6.333333333333333" fill="#ddd" fill-opacity="0.03733333333333333" stroke="#000" stroke-opacity="0.02" transform="translate(58.99999999999999,-6.333333333333333)"></polyline><polyline points="19.666666666666664,0,39.33333333333333,6.333333333333333,19.666666666666664,12.666666666666666,0,6.333333333333333" fill="#ddd" fill-opacity="0.03733333333333333" stroke="#000" stroke-opacity="0.02" transform="translate(58.99999999999999,31.666666666666668)"></polyline><polyline points="19.666666666666664,0,39.33333333333333,6.333333333333333,19.666666666666664,12.666666666666666,0,6.333333333333333" fill="#ddd" fill-opacity="0.08933333333333333" stroke="#000" stroke-opacity="0.02" transform="translate(98.33333333333331,-6.333333333333333)"></polyline><polyline points="19.666666666666664,0,39.33333333333333,6.333333333333333,19.666666666666664,12.666666666666666,0,6.333333333333333" fill="#ddd" fill-opacity="0.08933333333333333" stroke="#000" stroke-opacity="0.02" transform="translate(98.33333333333331,31.666666666666668)"></polyline><polyline points="19.666666666666664,0,39.33333333333333,6.333333333333333,19.666666666666664,12.666666666666666,0,6.333333333333333" fill="#ddd" fill-opacity="0.07200000000000001" stroke="#000" stroke-opacity="0.02" transform="translate(137.66666666666666,-6.333333333333333)"></polyline><polyline points="19.666666666666664,0,39.33333333333333,6.333333333333333,19.666666666666664,12.666666666666666,0,6.333333333333333" fill="#ddd" fill-opacity="0.07200000000000001" stroke="#000" stroke-opacity="0.02" transform="translate(137.66666666666666,31.666666666666668)"></polyline><polyline points="19.666666666666664,0,39.33333333333333,6.333333333333333,19.666666666666664,12.666666666666666,0,6.333333333333333" fill="#222" fill-opacity="0.08066666666666666" stroke="#000" stroke-opacity="0.02" transform="translate(176.99999999999997,-6.333333333333333)"></polyline><polyline points="19.666666666666664,0,39.33333333333333,6.333333333333333,19.666666666666664,12.666666666666666,0,6.333333333333333" fill="#222" fill-opacity="0.08066666666666666" stroke="#000" stroke-opacity="0.02" transform="translate(176.99999999999997,31.666666666666668)"></polyline><polyline points="19.666666666666664,0,39.33333333333333,6.333333333333333,19.666666666666664,12.666666666666666,0,6.333333333333333" fill="#ddd" fill-opacity="0.07200000000000001" stroke="#000" stroke-opacity="0.02" transform="translate(0,0)"></polyline><polyline points="19.666666666666664,0,39.33333333333333,6.333333333333333,19.666666666666664,12.666666666666666,0,6.333333333333333" fill="#ddd" fill-opacity="0.07200000000000001" stroke="#000" stroke-opacity="0.02" transform="translate(235.99999999999997,0)"></polyline><polyline points="19.666666666666664,0,39.33333333333333,6.333333333333333,19.666666666666664,12.666666666666666,0,6.333333333333333" fill="#ddd" fill-opacity="0.03733333333333333" stroke="#000" stroke-opacity="0.02" transform="translate(39.33333333333333,0)"></polyline><polyline points="19.666666666666664,0,39.33333333333333,6.333333333333333,19.666666666666664,12.666666666666666,0,6.333333333333333" fill="#ddd" fill-opacity="0.03733333333333333" stroke="#000" stroke-opacity="0.02" transform="translate(78.66666666666666,0)"></polyline><polyline points="19.666666666666664,0,39.33333333333333,6.333333333333333,19.666666666666664,12.666666666666666,0,6.333333333333333" fill="#ddd" fill-opacity="0.05466666666666667" stroke="#000" stroke-opacity="0.02" transform="translate(117.99999999999997,0)"></polyline><polyline points="19.666666666666664,0,39.33333333333333,6.333333333333333,19.666666666666664,12.666666666666666,0,6.333333333333333" fill="#222" fill-opacity="0.15" stroke="#000" stroke-opacity="0.02" transform="translate(157.33333333333331,0)"></polyline><polyline points="19.666666666666664,0,39.33333333333333,6.333333333333333,19.666666666666664,12.666666666666666,0,6.333333333333333" fill="#ddd" fill-opacity="0.14133333333333334" stroke="#000" stroke-opacity="0.02" transform="translate(196.66666666666663,0)"></polyline><polyline points="19.666666666666664,0,39.33333333333333,6.333333333333333,19.666666666666664,12.666666666666666,0,6.333333333333333" fill="#222" fill-opacity="0.15" stroke="#000" stroke-opacity="0.02" transform="translate(-19.666666666666664,6.333333333333333)"></polyline><polyline points="19.666666666666664,0,39.33333333333333,6.333333333333333,19.666666666666664,12.666666666666666,0,6.333333333333333" fill="#222" fill-opacity="0.15" stroke="#000" stroke-opacity="0.02" transform="translate(216.33333333333331,6.333333333333333)"></polyline><polyline points="19.666666666666664,0,39.33333333333333,6.333333333333333,19.666666666666664,12.666666666666666,0,6.333333333333333" fill="#222" fill-opacity="0.11533333333333334" stroke="#000" stroke-opacity="0.02" transform="translate(19.666666666666664,6.333333333333333)"></polyline><polyline points="19.666666666666664,0,39.33333333333333,6.333333333333333,19.666666666666664,12.666666666666666,0,6.333333333333333" fill="#ddd" fill-opacity="0.14133333333333334" stroke="#000" stroke-opacity="0.02" transform="translate(58.99999999999999,6.333333333333333)"></polyline><polyline points="19.666666666666664,0,39.33333333333333,6.333333333333333,19.666666666666664,12.666666666666666,0,6.333333333333333" fill="#222" fill-opacity="0.13266666666666665" stroke="#000" stroke-opacity="0.02" transform="translate(98.33333333333331,6.333333333333333)"></polyline><polyline points="19.666666666666664,0,39.33333333333333,6.333333333333333,19.666666666666664,12.666666666666666,0,6.333333333333333" fill="#222" fill-opacity="0.08066666666666666" stroke="#000" stroke-opacity="0.02" transform="translate(137.66666666666666,6.333333333333333)"></polyline><polyline points="19.666666666666664,0,39.33333333333333,6.333333333333333,19.666666666666664,12.666666666666666,0,6.333333333333333" fill="#ddd" fill-opacity="0.12400000000000001" stroke="#000" stroke-opacity="0.02" transform="translate(176.99999999999997,6.333333333333333)"></polyline><polyline points="19.666666666666664,0,39.33333333333333,6.333333333333333,19.666666666666664,12.666666666666666,0,6.333333333333333" fill="#ddd" fill-opacity="0.07200000000000001" stroke="#000" stroke-opacity="0.02" transform="translate(0,12.666666666666668)"></polyline><polyline points="19.666666666666664,0,39.33333333333333,6.333333333333333,19.666666666666664,12.666666666666666,0,6.333333333333333" fill="#ddd" fill-opacity="0.07200000000000001" stroke="#000" stroke-opacity="0.02" transform="translate(235.99999999999997,12.666666666666668)"></polyline><polyline points="19.666666666666664,0,39.33333333333333,6.333333333333333,19.666666666666664,12.666666666666666,0,6.333333333333333" fill="#222" fill-opacity="0.06333333333333334" stroke="#000" stroke-opacity="0.02" transform="translate(39.33333333333333,12.666666666666668)"></polyline><polyline points="19.666666666666664,0,39.33333333333333,6.333333333333333,19.666666666666664,12.666666666666666,0,6.333333333333333" fill="#222" fill-opacity="0.11533333333333334" stroke="#000" stroke-opacity="0.02" transform="translate(78.66666666666666,12.666666666666668)"></polyline><polyline points="19.666666666666664,0,39.33333333333333,6.333333333333333,19.666666666666664,12.666666666666666,0,6.333333333333333" fill="#222" fill-opacity="0.15" stroke="#000" stroke-opacity="0.02" transform="translate(117.99999999999997,12.666666666666668)"></polyline><polyline points="19.666666666666664,0,39.33333333333333,6.333333333333333,19.666666666666664,12.666666666666666,0,6.333333333333333" fill="#ddd" fill-opacity="0.14133333333333334" stroke="#000" stroke-opacity="0.02" transform="translate(157.33333333333331,12.666666666666668)"></polyline><polyline points="19.666666666666664,0,39.33333333333333,6.333333333333333,19.666666666666664,12.666666666666666,0,6.333333333333333" fill="#222" fill-opacity="0.15" stroke="#000" stroke-opacity="0.02" transform="translate(196.66666666666663,12.666666666666668)"></polyline><polyline points="19.666666666666664,0,39.33333333333333,6.333333333333333,19.666666666666664,12.666666666666666,0,6.333333333333333" fill="#ddd" fill-opacity="0.14133333333333334" stroke="#000" stroke-opacity="0.02" transform="translate(-19.666666666666664,19)"></polyline><polyline points="19.666666666666664,0,39.33333333333333,6.333333333333333,19.666666666666664,12.666666666666666,0,6.333333333333333" fill="#ddd" fill-opacity="0.14133333333333334" stroke="#000" stroke-opacity="0.02" transform="translate(216.33333333333331,19)"></polyline><polyline points="19.666666666666664,0,39.33333333333333,6.333333333333333,19.666666666666664,12.666666666666666,0,6.333333333333333" fill="#222" fill-opacity="0.11533333333333334" stroke="#000" stroke-opacity="0.02" transform="translate(19.666666666666664,19)"></polyline><polyline points="19.666666666666664,0,39.33333333333333,6.333333333333333,19.666666666666664,12.666666666666666,0,6.333333333333333" fill="#ddd" fill-opacity="0.07200000000000001" stroke="#000" stroke-opacity="0.02" transform="translate(58.99999999999999,19)"></polyline><polyline points="19.666666666666664,0,39.33333333333333,6.333333333333333,19.666666666666664,12.666666666666666,0,6.333333333333333" fill="#ddd" fill-opacity="0.07200000000000001" stroke="#000" stroke-opacity="0.02" transform="translate(98.33333333333331,19)"></polyline><polyline points="19.666666666666664,0,39.33333333333333,6.333333333333333,19.666666666666664,12.666666666666666,0,6.333333333333333" fill="#ddd" fill-opacity="0.10666666666666667" stroke="#000" stroke-opacity="0.02" transform="translate(137.66666666666666,19)"></polyline><polyline points="19.666666666666664,0,39.33333333333333,6.333333333333333,19.666666666666664,12.666666666666666,0,6.333333333333333" fill="#ddd" fill-opacity="0.10666666666666667" stroke="#000" stroke-opacity="0.02" transform="translate(176.99999999999997,19)"></polyline><polyline points="19.666666666666664,0,39.33333333333333,6.333333333333333,19.666666666666664,12.666666666666666,0,6.333333333333333" fill="#ddd" fill-opacity="0.10666666666666667" stroke="#000" stroke-opacity="0.02" transform="translate(0,25.333333333333332)"></polyline><polyline points="19.666666666666664,0,39.33333333333333,6.333333333333333,19.666666666666664,12.666666666666666,0,6.333333333333333" fill="#ddd" fill-opacity="0.10666666666666667" stroke="#000" stroke-opacity="0.02" transform="translate(235.99999999999997,25.333333333333332)"></polyline><polyline points="19.666666666666664,0,39.33333333333333,6.333333333333333,19.666666666666664,12.666666666666666,0,6.333333333333333" fill="#ddd" fill-opacity="0.14133333333333334" stroke="#000" stroke-opacity="0.02" transform="translate(39.33333333333333,25.333333333333332)"></polyline><polyline points="19.666666666666664,0,39.33333333333333,6.333333333333333,19.666666666666664,12.666666666666666,0,6.333333333333333" fill="#ddd" fill-opacity="0.07200000000000001" stroke="#000" stroke-opacity="0.02" transform="translate(78.66666666666666,25.333333333333332)"></polyline><polyline points="19.666666666666664,0,39.33333333333333,6.333333333333333,19.666666666666664,12.666666666666666,0,6.333333333333333" fill="#ddd" fill-opacity="0.08933333333333333" stroke="#000" stroke-opacity="0.02" transform="translate(117.99999999999997,25.333333333333332)"></polyline><polyline points="19.666666666666664,0,39.33333333333333,6.333333333333333,19.666666666666664,12.666666666666666,0,6.333333333333333" fill="#222" fill-opacity="0.11533333333333334" stroke="#000" stroke-opacity="0.02" transform="translate(157.33333333333331,25.333333333333332)"></polyline><polyline points="19.666666666666664,0,39.33333333333333,6.333333333333333,19.666666666666664,12.666666666666666,0,6.333333333333333" fill="#ddd" fill-opacity="0.12400000000000001" stroke="#000" stroke-opacity="0.02" transform="translate(196.66666666666663,25.333333333333332)"></polyline></pattern></defs><rect x="0" y="0" width="840" height="560" fill="url(#pattern)"></rect></svg>