<svg xmlns="http://www.w3.org/2000/svg" width="840" height="560" viewBox="0 0 840 560"><defs><pattern id="pattern" patternUnits="userSpaceOnUse" width="268" height="102"><rect x="0" y="0" width="100%" height="100%" fill="rgb(60,96,147)"></rect><polyline points="22.333333333333332,0,44.666666666666664,17,22.333333333333332,34,0,17" fill="#222" fill-opacity="0.13266666666666665" stroke="#000" stroke-opacity="0.02" transform="translate(-22.333333333333332,-17)"></polyline><polyline points="22.333333333333332,0,44.666666666666664,17,22.333333333333332,34,0,17" fill="#222" fill-opacity="0.13266666666666665" stroke="#000" stroke-opacity="0.02" transform="translate(245.66666666666666,-17)"></polyline><polyline points="22.333333333333332,0,44.666666666666664,17,22.333333333333332,34,0,17" fill="#222" fill-opacity="0.13266666666666665" stroke="#000" stroke-opacity="0.02" transform="translate(-22.333333333333332,85)"></polyline><polyline points="22.333333333333332,0,44.666666666666664,17,22.333333333333332,34,0,17" fill="#222" fill-opacity="0.13266666666666665" stroke="#000" stroke-opacity="0.02" transform="translate(245.66666666666666,85)"></polyline><polyline points="22.333333333333332,0,44.666666666666664,17,22.333333333333332,34,0,17" fill="#222" fill-opacity="0.098" stroke="#000" stroke-opacity="0.02" transform="translate(22.333333333333332,-17)"></polyline><polyline points="22.333333333333332,0,44.666666666666664,17,22.333333333333332,34,0,17" fill="#222" fill-opacity="0.098" stroke="#000" stroke-opacity="0.02" transform="translate(22.333333333333332,85)"></polyline><polyline points="22.333333333333332,0,44.666666666666664,17,22.333333333333332,34,0,17" fill="#ddd" fill-opacity="0.02" stroke="#000" stroke-opacity="0.02" transform="translate(67,-17)"></polyline><polyline points="22.333333333333332,0,44.666666666666664,17,22.333333333333332,34,0,17" fill="#ddd" fill-opacity="0.02" stroke="#000" stroke-opacity="0.02" transform="translate(67,85)"></polyline><polyline points="22.333333333333332,0,44.666666666666664,17,22.333333333333332,34,0,17" fill="#ddd" fill-opacity="0.14133333333333334" stroke="#000" stroke-opacity="0.02" transform="translate(111.66666666666667,-17)"></polyline><polyline points="22.333333333333332,0,44.666666666666664,17,22.333333333333332,34,0,17" fill="#ddd" fill-opacity="0.14133333333333334" stroke="#000" stroke-opacity="0.02" transform="translate(111.66666666666667,85)"></polyline><polyline points="22.333333333333332,0,44.666666666666664,17,22.333333333333332,34,0,17" fill="#ddd" fill-opacity="0.02" stroke="#000" stroke-opacity="0.02" transform="translate(156.33333333333331,-17)"></polyline><polyline points="22.333333333333332,0,44.666666666666664,17,22.333333333333332,34,0,17" fill="#ddd" fill-opacity="0.02" stroke="#000" stroke-opacity="0.02" transform="translate(156.33333333333331,85)"></polyline><polyline points="22.333333333333332,0,44.666666666666664,17,22.333333333333332,34,0,17" fill="#222" fill-opacity="0.028666666666666667" stroke="#000" stroke-opacity="0.02" transform="translate(200.99999999999997,-17)"></polyline><polyline points="22.333333333333332,0,44.666666666666664,17,22.333333333333332,34,0,17" fill="#222" fill-opacity="0.028666666666666667" stroke="#000" stroke-opacity="0.02" transform="translate(200.99999999999997,85)"></polyline><polyline points="22.333333333333332,0,44.666666666666664,17,22.333333333333332,34,0,17" fill="#ddd" fill-opacity="0.03733333333333333" stroke="#000" stroke-opacity="0.02" transform="translate(0,0)"></polyline><polyline points="22.333333333333332,0,44.666666666666664,17,22.333333333333332,34,0,17" fill="#ddd" fill-opacity="0.03733333333333333" stroke="#000" stroke-opacity="0.02" transform="translate(268,0)"></polyline><polyline points="22.333333333333332,0,44.666666666666664,17,22.333333333333332,34,0,17" fill="#ddd" fill-opacity="0.14133333333333334" stroke="#000" stroke-opacity="0.02" transform="translate(44.666666666666664,0)"></polyline><polyline points="22.333333333333332,0,44.666666666666664,17,22.333333333333332,34,0,17" fill="#ddd" fill-opacity="0.02" stroke="#000" stroke-opacity="0.02" transform="translate(89.33333333333333,0)"></polyline><polyline points="22.333333333333332,0,44.666666666666664,17,22.333333333333332,34,0,17" fill="#222" fill-opacity="0.06333333333333334" stroke="#000" stroke-opacity="0.02" transform="translate(134,0)"></polyline><polyline points="22.333333333333332,0,44.666666666666664,17,22.333333333333332,34,0,17" fill="#ddd" fill-opacity="0.08933333333333333" stroke="#000" stroke-opacity="0.02" transform="translate(178.66666666666666,0)"></polyline><polyline points="22.333333333333332,0,44.666666666666664,17,22.333333333333332,34,0,17" fill="#222" fill-opacity="0.13266666666666665" stroke="#000" stroke-opacity="0.02" transform="translate(223.33333333333331,0)"></polyline><polyline points="22.333333333333332,0,44.666666666666664,17,22.333333333333332,34,0,17" fill="#222" fill-opacity="0.06333333333333334" stroke="#000" stroke-opacity="0.02" transform="translate(-22.333333333333332,17)"></polyline><polyline points="22.333333333333332,0,44.666666666666664,17,22.333333333333332,34,0,17" fill="#222" fill-opacity="0.06333333333333334" stroke="#000" stroke-opacity="0.02" transform="translate(245.66666666666666,17)"></polyline><polyline points="22.333333333333332,0,44.666666666666664,17,22.333333333333332,34,0,17" fill="#ddd" fill-opacity="0.10666666666666667" stroke="#000" stroke-opacity="0.02" transform="translate(22.333333333333332,17)"></polyline><polyline points="22.333333333333332,0,44.666666666666664,17,22.333333333333332,34,0,17" fill="#ddd" fill-opacity="0.07200000000000001" stroke="#000" stroke-opacity="0.02" transform="translate(67,17)"></polyline><polyline points="22.333333333333332,0,44.666666666666664,17,22.333333333333332,34,0,17" fill="#222" fill-opacity="0.08066666666666666" stroke="#000" stroke-opacity="0.02" transform="translate(111.66666666666667,17)"></polyline><polyline points="22.333333333333332,0,44.666666666666664,17,22.333333333333332,34,0,17" fill="#ddd" fill-opacity="0.05466666666666667" stroke="#000" stroke-opacity="0.02" transform="translate(156.33333333333331,17)"></polyline><polyline points="22.333333333333332,0,44.666666666666664,17,22.333333333333332,34,0,17" fill="#ddd" fill-opacity="0.02" stroke="#000" stroke-opacity="0.02" transform="translate(200.99999999999997,17)"></polyline><polyline points="22.333333333333332,0,44.666666666666664,17,22.333333333333332,34,0,17" fill="#222" fill-opacity="0.06333333333333334" stroke="#000" stroke-opacity="0.02" transform="translate(0,34)"></polyline><polyline points="22.333333333333332,0,44.666666666666664,17,22.333333333333332,34,0,17" fill="#222" fill-opacity="0.06333333333333334" stroke="#000" stroke-opacity="0.02" transform="translate(268,34)"></polyline><polyline points="22.333333333333332,0,44.666666666666664,17,22.333333333333332,34,0,17" fill="#ddd" fill-opacity="0.10666666666666667" stroke="#000" stroke-opacity="0.02" transform="translate(44.666666666666664,34)"></polyline><polyline points="22.333333333333332,0,44.666666666666664,17,22.333333333333332,34,0,17" fill="#222" fill-opacity="0.11533333333333334" stroke="#000" stroke-opacity="0.02" transform="translate(89.33333333333333,34)"></polyline><polyline points="22.333333333333332,0,44.666666666666664,17,22.333333333333332,34,0,17" fill="#ddd" fill-opacity="0.02" stroke="#000" stroke-opacity="0.02" transform="translate(134,34)"></polyline><polyline points="22.333333333333332,0,44.666666666666664,17,22.333333333333332,34,0,17" fill="#ddd" fill-opacity="0.05466666666666667" stroke="#000" stroke-opacity="0.02" transform="translate(178.66666666666666,34)"></polyline><polyline points="22.333333333333332,0,44.666666666666664,17,22.333333333333332,34,0,17" fill="#222" fill-opacity="0.11533333333333334" stroke="#000" stroke-opacity="0.02" transform="translate(223.33333333333331,34)"></polyline><polyline points="22.333333333333332,0,44.666666666666664,17,22.333333333333332,34,0,17" fill="#ddd" fill-opacity="0.05466666666666667" stroke="#000" stroke-opacity="0.02" transform="translate(-22.333333333333332,51)"></polyline><polyline points="22.333333333333332,0,44.666666666666664,17,22.333333333333332,34,0,17" fill="#ddd" fill-opacity="0.05466666666666667" stroke="#000" stroke-opacity="0.02" transform="translate(245.66666666666666,51)"></polyline><polyline points="22.333333333333332,0,44.666666666666664,17,22.333333333333332,34,0,17" fill="#222" fill-opacity="0.13266666666666665" stroke="#000" stroke-opacity="0.02" transform="translate(22.333333333333332,51)"></polyline><polyline points="22.333333333333332,0,44.666666666666664,17,22.333333333333332,34,0,17" fill="#ddd" fill-opacity="0.10666666666666667" stroke="#000" stroke-opacity="0.02" transform="translate(67,51)"></polyline><polyline points="22.333333333333332,0,44.666666666666664,17,22.333333333333332,34,0,17" fill="#222" fill-opacity="0.098" stroke="#000" stroke-opacity="0.02" transform="translate(111.66666666666667,51)"></polyline><polyline points="22.333333333333332,0,44.666666666666664,17,22.333333333333332,34,0,17" fill="#ddd" fill-opacity="0.07200000000000001" stroke="#000" stroke-opacity="0.02" transform="translate(156.33333333333331,51)"></polyline><polyline points="22.333333333333332,0,44.666666666666664,17,22.333333333333332,34,0,17" fill="#ddd" fill-opacity="0.12400000000000001" stroke="#000" stroke-opacity="0.02" transform="translate(200.99999999999997,51)"></polyline><polyline points="22.333333333333332,0,44.666666666666664,17,22.333333333333332,34,0,17" fill="#222" fill-opacity="0.028666666666666667" stroke="#000" stroke-opacity="0.02" transform="translate(0,68)"></polyline><polyline points="22.333333333333332,0,44.666666666666664,17,22.333333333333332,34,0,17" fill="#222" fill-opacity="0.028666666666666667" stroke="#000" stroke-opacity="0.02" transform="translate(268,68)"></polyline><polyline points="22.333333333333332,0,44.666666666666664,17,22.333333333333332,34,0,17" fill="#222" fill-opacity="0.15" stroke="#000" stroke-opacity="0.02" transform="translate(44.666666666666664,68)"></polyline><polyline points="22.333333333333332,0,44.666666666666664,17,22.333333333333332,34,0,17" fill="#222" fill-opacity="0.098" stroke="#000" stroke-opacity="0.02" transform="translate(89.33333333333333,68)"></polyline><polyline points="22.333333333333332,0,44.666666666666664,17,22.333333333333332,34,0,17" fill="#ddd" fill-opacity="0.12400000000000001" stroke="#000" stroke-opacity="0.02" transform="translate(134,68)"></polyline><polyline points="22.333333333333332,0,44.666666666666664,17,22.333333333333332,34,0,17" fill="#222" fill-opacity="0.11533333333333334" stroke="#000" stroke-opacity="0.02" transform="translate(178.66666666666666,68)"></polyline><polyline points="22.333333333333332,0,44.666666666666664,17,22.333333333333332,34,0,17" fill="#222" fill-opacity="0.046" stroke="#000" stroke-opacity="0.02" transform="translate(223.33333333333331,68)"></polyline></pattern></defs><rect x="0" y="0" width="840" height="560" fill="url(#pattern)"></rect></svg>