<svg xmlns="http://www.w3.org/2000/svg" width="840" height="560" viewBox="0 0 840 560"><defs><pattern id="pattern" patternUnits="userSpaceOnUse" width="400" height="756"><rect x="0" y="0" width="100%" height="100%" fill="rgb(99,138,69)"></rect><path d="M0 81 C 70 0, 130 0, 200 81 S 330 162, 400 81 S 530 0, 600, 81" fill="none" stroke="#222" opacity="0.15" stroke-width="21px" transform="translate(-100,-121.5)"></path><path d="M0 81 C 70 0, 130 0, 200 81 S 330 162, 400 81 S 530 0, 600, 81" fill="none" stroke="#222" opacity="0.15" stroke-width="21px" transform="translate(-100,634.5)"></path><path d="M0 81 C 70 0, 130 0, 200 81 S 330 162, 400 81 S 530 0, 600, 81" fill="none" stroke="#222" opacity="0.11533333333333334" stroke-width="21px" transform="translate(-100,-100.5)"></path><path d="M0 81 C 70 0, 130 0, 200 81 S 330 162, 400 81 S 530 0, 600, 81" fill="none" stroke="#222" opacity="0.11533333333333334" stroke-width="21px" transform="translate(-100,655.5)"></path><path d="M0 81 C 70 0, 130 0, 200 81 S 330 162, 400 81 S 530 0, 600, 81" fill="none" stroke="#ddd" opacity="0.10666666666666667" stroke-width="21px" transform="translate(-100,-79.5)"></path><path d="M0 81 C 70 0, 130 0, 200 81 S 330 162, 400 81 S 530 0, 600, 81" fill="none" stroke="#ddd" opacity="0.10666666666666667" stroke-width="21px" transform="translate(-100,676.5)"></path><path d="M0 81 C 70 0, 130 0, 200 81 S 330 162, 400 81 S 530 0, 600, 81" fill="none" stroke="#222" opacity="0.08066666666666666" stroke-width="21px" transform="translate(-100,-58.5)"></path><path d="M0 81 C 70 0, 130 0, 200 81 S 330 162, 400 81 S 530 0, 600, 81" fill="none" stroke="#222" opacity="0.08066666666666666" stroke-width="21px" transform="translate(-100,697.5)"></path><path d="M0 81 C 70 0, 130 0, 200 81 S 330 162, 400 81 S 530 0, 600, 81" fill="none" stroke="#ddd" opacity="0.14133333333333334" stroke-width="21px" transform="translate(-100,-37.5)"></path><path d="M0 81 C 70 0, 130 0, 200 81 S 330 162, 400 81 S 530 0, 600, 81" fill="none" stroke="#ddd" opacity="0.14133333333333334" stroke-width="21px" transform="translate(-100,718.5)"></path><path d="M0 81 C 70 0, 130 0, 200 81 S 330 162, 400 81 S 530 0, 600, 81" fill="none" stroke="#222" opacity="0.08066666666666666" stroke-width="21px" transform="translate(-100,-16.5)"></path><path d="M0 81 C 70 0, 130 0, 200 81 S 330 162, 400 81 S 530 0, 600, 81" fill="none" stroke="#222" opacity="0.08066666666666666" stroke-width="21px" transform="translate(-100,739.5)"></path><path d="M0 81 C 70 0, 130 0, 200 81 S 330 162, 400 81 S 530 0, 600, 81" fill="none" stroke="#ddd" opacity="0.14133333333333334" stroke-width="21px" transform="translate(-100,4.5)"></path><path d="M0 81 C 70 0, 130 0, 200 81 S 330 162, 400 81 S 530 0, 600, 81" fill="none" stroke="#ddd" opacity="0.14133333333333334" stroke-width="21px" transform="translate(-100,760.5)"></path><path d="M0 81 C 70 0, 130 0, 200 81 S 330 162, 400 81 S 530 0, 600, 81" fill="none" stroke="#222" opacity="0.15" stroke-width="21px" transform="translate(-100,25.5)"></path><path d="M0 81 C 70 0, 130 0, 200 81 S 330 162, 400 81 S 530 0, 600, 81" fill="none" stroke="#222" opacity="0.15" stroke-width="21px" transform="translate(-100,781.5)"></path><path d="M0 81 C 70 0, 130 0, 200 81 S 330 162, 400 81 S 530 0, 600, 81" fill="none" stroke="#222" opacity="0.15" stroke-width="21px" transform="translate(-100,46.5)"></path><path d="M0 81 C 70 0, 130 0, 200 81 S 330 162, 400 81 S 530 0, 600, 81" fill="none" stroke="#222" opacity="0.15" stroke-width="21px" transform="translate(-100,802.5)"></path><path d="M0 81 C 70 0, 130 0, 200 81 S 330 162, 400 81 S 530 0, 600, 81" fill="none" stroke="#ddd" opacity="0.14133333333333334" stroke-width="21px" transform="translate(-100,67.5)"></path><path d="M0 81 C 70 0, 130 0, 200 81 S 330 162, 400 81 S 530 0, 600, 81" fill="none" stroke="#ddd" opacity="0.14133333333333334" stroke-width="21px" transform="translate(-100,823.5)"></path><path d="M0 81 C 70 0, 130 0, 200 81 S 330 162, 400 81 S 530 0, 600, 81" fill="none" stroke="#ddd" opacity="0.07200000000000001" stroke-width="21px" transform="translate(-100,88.5)"></path><path d="M0 81 C 70 0, 130 0, 200 81 S 330 162, 400 81 S 530 0, 600, 81" fill="none" stroke="#ddd" opacity="0.07200000000000001" stroke-width="21px" transform="translate(-100,844.5)"></path><path d="M0 81 C 70 0, 130 0, 200 81 S 330 162, 400 81 S 530 0, 600, 81" fill="none" stroke="#ddd" opacity="0.08933333333333333" stroke-width="21px" transform="translate(-100,109.5)"></path><path d="M0 81 C 70 0, 130 0, 200 81 S 330 162, 400 81 S 530 0, 600, 81" fill="none" stroke="#ddd" opacity="0.08933333333333333" stroke-width="21px" transform="translate(-100,865.5)"></path><path d="M0 81 C 70 0, 130 0, 200 81 S 330 162, 400 81 S 530 0, 600, 81" fill="none" stroke="#ddd" opacity="0.12400000000000001" stroke-width="21px" transform="translate(-100,130.5)"></path><path d="M0 81 C 70 0, 130 0, 200 81 S 330 162, 400 81 S 530 0, 600, 81" fill="none" stroke="#ddd" opacity="0.12400000000000001" stroke-width="21px" transform="translate(-100,886.5)"></path><path d="M0 81 C 70 0, 130 0, 200 81 S 330 162, 400 81 S 530 0, 600, 81" fill="none" stroke="#222" opacity="0.06333333333333334" stroke-width="21px" transform="translate(-100,151.5)"></path><path d="M0 81 C 70 0, 130 0, 200 81 S 330 162, 400 81 S 530 0, 600, 81" fill="none" stroke="#222" opacity="0.06333333333333334" stroke-width="21px" transform="translate(-100,907.5)"></path><path d="M0 81 C 70 0, 130 0, 200 81 S 330 162, 400 81 S 530 0, 600, 81" fill="none" stroke="#222" opacity="0.11533333333333334" stroke-width="21px" transform="translate(-100,172.5)"></path><path d="M0 81 C 70 0, 130 0, 200 81 S 330 162, 400 81 S 530 0, 600, 81" fill="none" stroke="#222" opacity="0.11533333333333334" stroke-width="21px" transform="translate(-100,928.5)"></path><path d="M0 81 C 70 0, 130 0, 200 81 S 330 162, 400 81 S 530 0, 600, 81" fill="none" stroke="#222" opacity="0.13266666666666665" stroke-width="21px" transform="translate(-100,193.5)"></path><path d="M0 81 C 70 0, 130 0, 200 81 S 330 162, 400 81 S 530 0, 600, 81" fill="none" stroke="#222" opacity="0.13266666666666665" stroke-width="21px" transform="translate(-100,949.5)"></path><path d="M0 81 C 70 0, 130 0, 200 81 S 330 162, 400 81 S 530 0, 600, 81" fill="none" stroke="#ddd" opacity="0.10666666666666667" stroke-width="21px" transform="translate(-100,214.5)"></path><path d="M0 81 C 70 0, 130 0, 200 81 S 330 162, 400 81 S 530 0, 600, 81" fill="none" stroke="#ddd" opacity="0.10666666666666667" stroke-width="21px" transform="translate(-100,970.5)"></path><path d="M0 81 C 70 0, 130 0, 200 81 S 330 162, 400 81 S 530 0, 600, 81" fill="none" stroke="#222" opacity="0.098" stroke-width="21px" transform="translate(-100,235.5)"></path><path d="M0 81 C 70 0, 130 0, 200 81 S 330 162, 400 81 S 530 0, 600, 81" fill="none" stroke="#222" opacity="0.098" stroke-width="21px" transform="translate(-100,991.5)"></path><path d="M0 81 C 70 0, 130 0, 200 81 S 330 162, 400 81 S 530 0, 600, 81" fill="none" stroke="#ddd" opacity="0.07200000000000001" stroke-width="21px" transform="translate(-100,256.5)"></path><path d="M0 81 C 70 0, 130 0, 200 81 S 330 162, 400 81 S 530 0, 600, 81" fill="none" stroke="#ddd" opacity="0.07200000000000001" stroke-width="21px" transform="translate(-100,1012.5)"></path><path d="M0 81 C 70 0, 130 0, 200 81 S 330 162, 400 81 S 530 0, 600, 81" fill="none" stroke="#222" opacity="0.046" stroke-width="21px" transform="translate(-100,277.5)"></path><path d="M0 81 C 70 0, 130 0, 200 81 S 330 162, 400 81 S 530 0, 600, 81" fill="none" stroke="#222" opacity="0.046" stroke-width="21px" transform="translate(-100,1033.5)"></path><path d="M0 81 C 70 0, 130 0, 200 81 S 330 162, 400 81 S 530 0, 600, 81" fill="none" stroke="#ddd" opacity="0.05466666666666667" stroke-width="21px" transform="translate(-100,298.5)"></path><path d="M0 81 C 70 0, 130 0, 200 81 S 330 162, 400 81 S 530 0, 600, 81" fill="none" stroke="#ddd" opacity="0.05466666666666667" stroke-width="21px" transform="translate(-100,1054.5)"></path><path d="M0 81 C 70 0, 130 0, 200 81 S 330 162, 400 81 S 530 0, 600, 81" fill="none" stroke="#ddd" opacity="0.07200000000000001" stroke-width="21px" transform="translate(-100,319.5)"></path><path d="M0 81 C 70 0, 130 0, 200 81 S 330 162, 400 81 S 530 0, 600, 81" fill="none" stroke="#ddd" opacity="0.07200000000000001" stroke-width="21px" transform="translate(-100,1075.5)"></path><path d="M0 81 C 70 0, 130 0, 200 81 S 330 162, 400 81 S 530 0, 600, 81" fill="none" stroke="#ddd" opacity="0.05466666666666667" stroke-width="21px" transform="translate(-100,340.5)"></path><path d="M0 81 C 70 0, 130 0, 200 81 S 330 162, 400 81 S 530 0, 600, 81" fill="none" stroke="#ddd" opacity="0.05466666666666667" stroke-width="21px" transform="translate(-100,1096.5)"></path><path d="M0 81 C 70 0, 130 0, 200 81 S 330 162, 400 81 S 530 0, 600, 81" fill="none" stroke="#ddd" opacity="0.12400000000000001" stroke-width="21px" transform="translate(-100,361.5)"></path><path d="M0 81 C 70 0, 130 0, 200 81 S 330 162, 400 81 S 530 0, 600, 81" fill="none" stroke="#ddd" opacity="0.12400000000000001" stroke-width="21px" transform="translate(-100,1117.5)"></path><path d="M0 81 C 70 0, 130 0, 200 81 S 330 162, 400 81 S 530 0, 600, 81" fill="none" stroke="#222" opacity="0.046" stroke-width="21px" transform="translate(-100,382.5)"></path><path d="M0 81 C 70 0, 130 0, 200 81 S 330 162, 400 81 S 530 0, 600, 81" fill="none" stroke="#222" opacity="0.046" stroke-width="21px" transform="translate(-100,1138.5)"></path><path d="M0 81 C 70 0, 130 0, 200 81 S 330 162, 400 81 S 530 0, 600, 81" fill="none" stroke="#222" opacity="0.098" stroke-width="21px" transform="translate(-100,403.5)"></path><path d="M0 81 C 70 0, 130 0, 200 81 S 330 162, 400 81 S 530 0, 600, 81" fill="none" stroke="#222" opacity="0.098" stroke-width="21px" transform="translate(-100,1159.5)"></path><path d="M0 81 C 70 0, 130 0, 200 81 S 330 162, 400 81 S 530 0, 600, 81" fill="none" stroke="#222" opacity="0.13266666666666665" stroke-width="21px" transform="translate(-100,424.5)"></path><path d="M0 81 C 70 0, 130 0, 200 81 S 330 162, 400 81 S 530 0, 600, 81" fill="none" stroke="#222" opacity="0.13266666666666665" stroke-width="21px" transform="translate(-100,1180.5)"></path><path d="M0 81 C 70 0, 130 0, 200 81 S 330 162, 400 81 S 530 0, 600, 81" fill="none" stroke="#ddd" opacity="0.10666666666666667" stroke-width="21px" transform="translate(-100,445.5)"></path><path d="M0 81 C 70 0, 130 0, 200 81 S 330 162, 400 81 S 530 0, 600, 81" fill="none" stroke="#ddd" opacity="0.10666666666666667" stroke-width="21px" transform="translate(-100,1201.5)"></path><path d="M0 81 C 70 0, 130 0, 200 81 S 330 162, 400 81 S 530 0, 600, 81" fill="none" stroke="#ddd" opacity="0.10666666666666667" stroke-width="21px" transform="translate(-100,466.5)"></path><path d="M0 81 C 70 0, 130 0, 200 81 S 330 162, 400 81 S 530 0, 600, 81" fill="none" stroke="#ddd" opacity="0.10666666666666667" stroke-width="21px" transform="translate(-100,1222.5)"></path><path d="M0 81 C 70 0, 130 0, 200 81 S 330 162, 400 81 S 530 0, 600, 81" fill="none" stroke="#ddd" opacity="0.07200000000000001" stroke-width="21px" transform="translate(-100,487.5)"></path><path d="M0 81 C 70 0, 130 0, 200 81 S 330 162, 400 81 S 530 0, 600, 81" fill="none" stroke="#ddd" opacity="0.07200000000000001" stroke-width="21px" transform="translate(-100,1243.5)"></path><path d="M0 81 C 70 0, 130 0, 200 81 S 330 162, 400 81 S 530 0, 600, 81" fill="none" stroke="#222" opacity="0.06333333333333334" stroke-width="21px" transform="translate(-100,508.5)"></path><path d="M0 81 C 70 0, 130 0, 200 81 S 330 162, 400 81 S 530 0, 600, 81" fill="none" stroke="#222" opacity="0.06333333333333334" stroke-width="21px" transform="translate(-100,1264.5)"></path><path d="M0 81 C 70 0, 130 0, 200 81 S 330 162, 400 81 S 530 0, 600, 81" fill="none" stroke="#ddd" opacity="0.03733333333333333" stroke-width="21px" transform="translate(-100,529.5)"></path><path d="M0 81 C 70 0, 130 0, 200 81 S 330 162, 400 81 S 530 0, 600, 81" fill="none" stroke="#ddd" opacity="0.03733333333333333" stroke-width="21px" transform="translate(-100,1285.5)"></path><path d="M0 81 C 70 0, 130 0, 200 81 S 330 162, 400 81 S 530 0, 600, 81" fill="none" stroke="#222" opacity="0.028666666666666667" stroke-width="21px" transform="translate(-100,550.5)"></path><path d="M0 81 C 70 0, 130 0, 200 81 S 330 162, 400 81 S 530 0, 600, 81" fill="none" stroke="#222" opacity="0.028666666666666667" stroke-width="21px" transform="translate(-100,1306.5)"></path><path d="M0 81 C 70 0, 130 0, 200 81 S 330 162, 400 81 S 530 0, 600, 81" fill="none" stroke="#222" opacity="0.028666666666666667" stroke-width="21px" transform="translate(-100,571.5)"></path><path d="M0 81 C 70 0, 130 0, 200 81 S 330 162, 400 81 S 530 0, 600, 81" fill="none" stroke="#222" opacity="0.028666666666666667" stroke-width="21px" transform="translate(-100,1327.5)"></path><path d="M0 81 C 70 0, 130 0, 200 81 S 330 162, 400 81 S 530 0, 600, 81" fill="none" stroke="#ddd" opacity="0.07200000000000001" stroke-width="21px" transform="translate(-100,592.5)"></path><path d="M0 81 C 70 0, 130 0, 200 81 S 330 162, 400 81 S 530 0, 600, 81" fill="none" stroke="#ddd" opacity="0.07200000000000001" stroke-width="21px" transform="translate(-100,1348.5)"></path><path d="M0 81 C 70 0, 130 0, 200 81 S 330 162, 400 81 S 530 0, 600, 81" fill="none" stroke="#222" opacity="0.06333333333333334" stroke-width="21px" transform="translate(-100,613.5)"></path><path d="M0 81 C 70 0, 130 0, 200 81 S 330 162, 400 81 S 530 0, 600, 81" fill="none" stroke="#222" opacity="0.06333333333333334" stroke-width="21px" transform="translate(-100,1369.5)"></path></pattern></defs><rect x="0" y="0" width="840" height="560" fill="url(#pattern)"></rect></svg>