<svg xmlns="http://www.w3.org/2000/svg" width="840" height="560" viewBox="0 0 840 560"><defs><pattern id="pattern" patternUnits="userSpaceOnUse" width="188" height="61"><rect x="0" y="0" width="100%" height="100%" fill="rgb(147,65,60)"></rect><polyline points="15.666666666666666,0,31.333333333333332,10.333333333333332,15.666666666666666,20.666666666666664,0,10.333333333333332" fill="#ddd" fill-opacity="0.08933333333333333" stroke="#000" stroke-opacity="0.02" transform="translate(-15.666666666666666,-10.333333333333332)"></polyline><polyline points="15.666666666666666,0,31.333333333333332,10.333333333333332,15.666666666666666,20.666666666666664,0,10.333333333333332" fill="#ddd" fill-opacity="0.08933333333333333" stroke="#000" stroke-opacity="0.02" transform="translate(172.33333333333334,-10.333333333333332)"></polyline><polyline points="15.666666666666666,0,31.333333333333332,10.333333333333332,15.666666666666666,20.666666666666664,0,10.333333333333332" fill="#ddd" fill-opacity="0.08933333333333333" stroke="#000" stroke-opacity="0.02" transform="translate(-15.666666666666666,51.66666666666666)"></polyline><polyline points="15.666666666666666,0,31.333333333333332,10.333333333333332,15.666666666666666,20.666666666666664,0,10.333333333333332" fill="#ddd" fill-opacity="0.08933333333333333" stroke="#000" stroke-opacity="0.02" transform="translate(172.33333333333334,51.66666666666666)"></polyline><polyline points="15.666666666666666,0,31.333333333333332,10.333333333333332,15.666666666666666,20.666666666666664,0,10.333333333333332" fill="#ddd" fill-opacity="0.05466666666666667" stroke="#000" stroke-opacity="0.02" transform="translate(15.666666666666666,-10.333333333333332)"></polyline><polyline points="15.666666666666666,0,31.333333333333332,10.333333333333332,15.666666666666666,20.666666666666664,0,10.333333333333332" fill="#ddd" fill-opacity="0.05466666666666667" stroke="#000" stroke-opacity="0.02" transform="translate(15.666666666666666,51.66666666666666)"></polyline><polyline points="15.666666666666666,0,31.333333333333332,10.333333333333332,15.666666666666666,20.666666666666664,0,10.333333333333332" fill="#222" fill-opacity="0.06333333333333334" stroke="#000" stroke-opacity="0.02" transform="translate(47,-10.333333333333332)"></polyline><polyline points="15.666666666666666,0,31.333333333333332,10.333333333333332,15.666666666666666,20.666666666666664,0,10.333333333333332" fill="#222" fill-opacity="0.06333333333333334" stroke="#000" stroke-opacity="0.02" transform="translate(47,51.66666666666666)"></polyline><polyline points="15.666666666666666,0,31.333333333333332,10.333333333333332,15.666666666666666,20.666666666666664,0,10.333333333333332" fill="#222" fill-opacity="0.098" stroke="#000" stroke-opacity="0.02" transform="translate(78.33333333333333,-10.333333333333332)"></polyline><polyline points="15.666666666666666,0,31.333333333333332,10.333333333333332,15.666666666666666,20.666666666666664,0,10.333333333333332" fill="#222" fill-opacity="0.098" stroke="#000" stroke-opacity="0.02" transform="translate(78.33333333333333,51.66666666666666)"></polyline><polyline points="15.666666666666666,0,31.333333333333332,10.333333333333332,15.666666666666666,20.666666666666664,0,10.333333333333332" fill="#ddd" fill-opacity="0.10666666666666667" stroke="#000" stroke-opacity="0.02" transform="translate(109.66666666666666,-10.333333333333332)"></polyline><polyline points="15.666666666666666,0,31.333333333333332,10.333333333333332,15.666666666666666,20.666666666666664,0,10.333333333333332" fill="#ddd" fill-opacity="0.10666666666666667" stroke="#000" stroke-opacity="0.02" transform="translate(109.66666666666666,51.66666666666666)"></polyline><polyline points="15.666666666666666,0,31.333333333333332,10.333333333333332,15.666666666666666,20.666666666666664,0,10.333333333333332" fill="#222" fill-opacity="0.11533333333333334" stroke="#000" stroke-opacity="0.02" transform="translate(141,-10.333333333333332)"></polyline><polyline points="15.666666666666666,0,31.333333333333332,10.333333333333332,15.666666666666666,20.666666666666664,0,10.333333333333332" fill="#222" fill-opacity="0.11533333333333334" stroke="#000" stroke-opacity="0.02" transform="translate(141,51.66666666666666)"></polyline><polyline points="15.666666666666666,0,31.333333333333332,10.333333333333332,15.666666666666666,20.666666666666664,0,10.333333333333332" fill="#ddd" fill-opacity="0.03733333333333333" stroke="#000" stroke-opacity="0.02" transform="translate(0,0)"></polyline><polyline points="15.666666666666666,0,31.333333333333332,10.333333333333332,15.666666666666666,20.666666666666664,0,10.333333333333332" fill="#ddd" fill-opacity="0.03733333333333333" stroke="#000" stroke-opacity="0.02" transform="translate(188,0)"></polyline><polyline points="15.666666666666666,0,31.333333333333332,10.333333333333332,15.666666666666666,20.666666666666664,0,10.333333333333332" fill="#222" fill-opacity="0.098" stroke="#000" stroke-opacity="0.02" transform="translate(31.333333333333332,0)"></polyline><polyline points="15.666666666666666,0,31.333333333333332,10.333333333333332,15.666666666666666,20.666666666666664,0,10.333333333333332" fill="#222" fill-opacity="0.098" stroke="#000" stroke-opacity="0.02" transform="translate(62.666666666666664,0)"></polyline><polyline points="15.666666666666666,0,31.333333333333332,10.333333333333332,15.666666666666666,20.666666666666664,0,10.333333333333332" fill="#ddd" fill-opacity="0.05466666666666667" stroke="#000" stroke-opacity="0.02" transform="translate(94,0)"></polyline><polyline points="15.666666666666666,0,31.333333333333332,10.333333333333332,15.666666666666666,20.666666666666664,0,10.333333333333332" fill="#222" fill-opacity="0.028666666666666667" stroke="#000" stroke-opacity="0.02" transform="translate(125.33333333333333,0)"></polyline><polyline points="15.666666666666666,0,31.333333333333332,10.333333333333332,15.666666666666666,20.666666666666664,0,10.333333333333332" fill="#ddd" fill-opacity="0.12400000000000001" stroke="#000" stroke-opacity="0.02" transform="translate(156.66666666666666,0)"></polyline><polyline points="15.666666666666666,0,31.333333333333332,10.333333333333332,15.666666666666666,20.666666666666664,0,10.333333333333332" fill="#ddd" fill-opacity="0.12400000000000001" stroke="#000" stroke-opacity="0.02" transform="translate(-15.666666666666666,10.333333333333332)"></polyline><polyline points="15.666666666666666,0,31.333333333333332,10.333333333333332,15.666666666666666,20.666666666666664,0,10.333333333333332" fill="#ddd" fill-opacity="0.12400000000000001" stroke="#000" stroke-opacity="0.02" transform="translate(172.33333333333334,10.333333333333332)"></polyline><polyline points="15.666666666666666,0,31.333333333333332,10.333333333333332,15.666666666666666,20.666666666666664,0,10.333333333333332" fill="#222" fill-opacity="0.06333333333333334" stroke="#000" stroke-opacity="0.02" transform="translate(15.666666666666666,10.333333333333332)"></polyline><polyline points="15.666666666666666,0,31.333333333333332,10.333333333333332,15.666666666666666,20.666666666666664,0,10.333333333333332" fill="#222" fill-opacity="0.15" stroke="#000" stroke-opacity="0.02" transform="translate(47,10.333333333333332)"></polyline><polyline points="15.666666666666666,0,31.333333333333332,10.333333333333332,15.666666666666666,20.666666666666664,0,10.333333333333332" fill="#ddd" fill-opacity="0.14133333333333334" stroke="#000" stroke-opacity="0.02" transform="translate(78.33333333333333,10.333333333333332)"></polyline><polyline points="15.666666666666666,0,31.333333333333332,10.333333333333332,15.666666666666666,20.666666666666664,0,10.333333333333332" fill="#222" fill-opacity="0.028666666666666667" stroke="#000" stroke-opacity="0.02" transform="translate(109.66666666666666,10.333333333333332)"></polyline><polyline points="15.666666666666666,0,31.333333333333332,10.333333333333332,15.666666666666666,20.666666666666664,0,10.333333333333332" fill="#ddd" fill-opacity="0.02" stroke="#000" stroke-opacity="0.02" transform="translate(141,10.333333333333332)"></polyline><polyline points="15.666666666666666,0,31.333333333333332,10.333333333333332,15.666666666666666,20.666666666666664,0,10.333333333333332" fill="#222" fill-opacity="0.13266666666666665" stroke="#000" stroke-opacity="0.02" transform="translate(0,20.666666666666664)"></polyline><polyline points="15.666666666666666,0,31.333333333333332,10.333333333333332,15.666666666666666,20.666666666666664,0,10.333333333333332" fill="#222" fill-opacity="0.13266666666666665" stroke="#000" stroke-opacity="0.02" transform="translate(188,20.666666666666664)"></polyline><polyline points="15.666666666666666,0,31.333333333333332,10.333333333333332,15.666666666666666,20.666666666666664,0,10.333333333333332" fill="#ddd" fill-opacity="0.14133333333333334" stroke="#000" stroke-opacity="0.02" transform="translate(31.333333333333332,20.666666666666664)"></polyline><polyline points="15.666666666666666,0,31.333333333333332,10.333333333333332,15.666666666666666,20.666666666666664,0,10.333333333333332" fill="#222" fill-opacity="0.11533333333333334" stroke="#000" stroke-opacity="0.02" transform="translate(62.666666666666664,20.666666666666664)"></polyline><polyline points="15.666666666666666,0,31.333333333333332,10.333333333333332,15.666666666666666,20.666666666666664,0,10.333333333333332" fill="#ddd" fill-opacity="0.12400000000000001" stroke="#000" stroke-opacity="0.02" transform="translate(94,20.666666666666664)"></polyline><polyline points="15.666666666666666,0,31.333333333333332,10.333333333333332,15.666666666666666,20.666666666666664,0,10.333333333333332" fill="#222" fill-opacity="0.028666666666666667" stroke="#000" stroke-opacity="0.02" transform="translate(125.33333333333333,20.666666666666664)"></polyline><polyline points="15.666666666666666,0,31.333333333333332,10.333333333333332,15.666666666666666,20.666666666666664,0,10.333333333333332" fill="#222" fill-opacity="0.06333333333333334" stroke="#000" stroke-opacity="0.02" transform="translate(156.66666666666666,20.666666666666664)"></polyline><polyline points="15.666666666666666,0,31.333333333333332,10.333333333333332,15.666666666666666,20.666666666666664,0,10.333333333333332" fill="#222" fill-opacity="0.046" stroke="#000" stroke-opacity="0.02" transform="translate(-15.666666666666666,30.999999999999996)"></polyline><polyline points="15.666666666666666,0,31.333333333333332,10.333333333333332,15.666666666666666,20.666666666666664,0,10.333333333333332" fill="#222" fill-opacity="0.046" stroke="#000" stroke-opacity="0.02" transform="translate(172.33333333333334,30.999999999999996)"></polyline><polyline points="15.666666666666666,0,31.333333333333332,10.333333333333332,15.666666666666666,20.666666666666664,0,10.333333333333332" fill="#222" fill-opacity="0.098" stroke="#000" stroke-opacity="0.02" transform="translate(15.666666666666666,30.999999999999996)"></polyline><polyline points="15.666666666666666,0,31.333333333333332,10.333333333333332,15.666666666666666,20.666666666666664,0,10.333333333333332" fill="#222" fill-opacity="0.13266666666666665" stroke="#000" stroke-opacity="0.02" transform="translate(47,30.999999999999996)"></polyline><polyline points="15.666666666666666,0,31.333333333333332,10.333333333333332,15.666666666666666,20.666666666666664,0,10.333333333333332" fill="#222" fill-opacity="0.028666666666666667" stroke="#000" stroke-opacity="0.02" transform="translate(78.33333333333333,30.999999999999996)"></polyline><polyline points="15.666666666666666,0,31.333333333333332,10.333333333333332,15.666666666666666,20.666666666666664,0,10.333333333333332" fill="#ddd" fill-opacity="0.14133333333333334" stroke="#000" stroke-opacity="0.02" transform="translate(109.66666666666666,30.999999999999996)"></polyline><polyline points="15.666666666666666,0,31.333333333333332,10.333333333333332,15.666666666666666,20.666666666666664,0,10.333333333333332" fill="#222" fill-opacity="0.13266666666666665" stroke="#000" stroke-opacity="0.02" transform="translate(141,30.999999999999996)"></polyline><polyline points="15.666666666666666,0,31.333333333333332,10.333333333333332,15.666666666666666,20.666666666666664,0,10.333333333333332" fill="#ddd" fill-opacity="0.14133333333333334" stroke="#000" stroke-opacity="0.02" transform="translate(0,41.33333333333333)"></polyline><polyline points="15.666666666666666,0,31.333333333333332,10.333333333333332,15.666666666666666,20.666666666666664,0,10.333333333333332" fill="#ddd" fill-opacity="0.14133333333333334" stroke="#000" stroke-opacity="0.02" transform="translate(188,41.33333333333333)"></polyline><polyline points="15.666666666666666,0,31.333333333333332,10.333333333333332,15.666666666666666,20.666666666666664,0,10.333333333333332" fill="#ddd" fill-opacity="0.12400000000000001" stroke="#000" stroke-opacity="0.02" transform="translate(31.333333333333332,41.33333333333333)"></polyline><polyline points="15.666666666666666,0,31.333333333333332,10.333333333333332,15.666666666666666,20.666666666666664,0,10.333333333333332" fill="#222" fill-opacity="0.13266666666666665" stroke="#000" stroke-opacity="0.02" transform="translate(62.666666666666664,41.33333333333333)"></polyline><polyline points="15.666666666666666,0,31.333333333333332,10.333333333333332,15.666666666666666,20.666666666666664,0,10.333333333333332" fill="#222" fill-opacity="0.06333333333333334" stroke="#000" stroke-opacity="0.02" transform="translate(94,41.33333333333333)"></polyline><polyline points="15.666666666666666,0,31.333333333333332,10.333333333333332,15.666666666666666,20.666666666666664,0,10.333333333333332" fill="#ddd" fill-opacity="0.10666666666666667" stroke="#000" stroke-opacity="0.02" transform="translate(125.33333333333333,41.33333333333333)"></polyline><polyline points="15.666666666666666,0,31.333333333333332,10.333333333333332,15.666666666666666,20.666666666666664,0,10.333333333333332" fill="#222" fill-opacity="0.046" stroke="#000" stroke-opacity="0.02" transform="translate(156.66666666666666,41.33333333333333)"></polyline></pattern></defs><rect x="0" y="0" width="840" height="560" fill="url(#pattern)"></rect></svg>