<svg xmlns="http://www.w3.org/2000/svg" width="840" height="560" viewBox="0 0 840 560"><defs><pattern id="pattern" patternUnits="userSpaceOnUse" width="300" height="54"><rect x="0" y="0" width="100%" height="100%" fill="rgb(69,138,115)"></rect><polyline points="25,0,50,9,25,18,0,9" fill="#222" fill-opacity="0.15" stroke="#000" stroke-opacity="0.02" transform="translate(-25,-9)"></polyline><polyline points="25,0,50,9,25,18,0,9" fill="#222" fill-opacity="0.15" stroke="#000" stroke-opacity="0.02" transform="translate(275,-9)"></polyline><polyline points="25,0,50,9,25,18,0,9" fill="#222" fill-opacity="0.15" stroke="#000" stroke-opacity="0.02" transform="translate(-25,45)"></polyline><polyline points="25,0,50,9,25,18,0,9" fill="#222" fill-opacity="0.15" stroke="#000" stroke-opacity="0.02" transform="translate(275,45)"></polyline><polyline points="25,0,50,9,25,18,0,9" fill="#222" fill-opacity="0.046" stroke="#000" stroke-opacity="0.02" transform="translate(25,-9)"></polyline><polyline points="25,0,50,9,25,18,0,9" fill="#222" fill-opacity="0.046" stroke="#000" stroke-opacity="0.02" transform="translate(25,45)"></polyline><polyline points="25,0,50,9,25,18,0,9" fill="#222" fill-opacity="0.15" stroke="#000" stroke-opacity="0.02" transform="translate(75,-9)"></polyline><polyline points="25,0,50,9,25,18,0,9" fill="#222" fill-opacity="0.15" stroke="#000" stroke-opacity="0.02" transform="translate(75,45)"></polyline><polyline points="25,0,50,9,25,18,0,9" fill="#222" fill-opacity="0.13266666666666665" stroke="#000" stroke-opacity="0.02" transform="translate(125,-9)"></polyline><polyline points="25,0,50,9,25,18,0,9" fill="#222" fill-opacity="0.13266666666666665" stroke="#000" stroke-opacity="0.02" transform="translate(125,45)"></polyline><polyline points="25,0,50,9,25,18,0,9" fill="#222" fill-opacity="0.06333333333333334" stroke="#000" stroke-opacity="0.02" transform="translate(175,-9)"></polyline><polyline points="25,0,50,9,25,18,0,9" fill="#222" fill-opacity="0.06333333333333334" stroke="#000" stroke-opacity="0.02" transform="translate(175,45)"></polyline><polyline points="25,0,50,9,25,18,0,9" fill="#222" fill-opacity="0.098" stroke="#000" stroke-opacity="0.02" transform="translate(225,-9)"></polyline><polyline points="25,0,50,9,25,18,0,9" fill="#222" fill-opacity="0.098" stroke="#000" stroke-opacity="0.02" transform="translate(225,45)"></polyline><polyline points="25,0,50,9,25,18,0,9" fill="#ddd" fill-opacity="0.07200000000000001" stroke="#000" stroke-opacity="0.02" transform="translate(0,0)"></polyline><polyline points="25,0,50,9,25,18,0,9" fill="#ddd" fill-opacity="0.07200000000000001" stroke="#000" stroke-opacity="0.02" transform="translate(300,0)"></polyline><polyline points="25,0,50,9,25,18,0,9" fill="#ddd" fill-opacity="0.07200000000000001" stroke="#000" stroke-opacity="0.02" transform="translate(50,0)"></polyline><polyline points="25,0,50,9,25,18,0,9" fill="#222" fill-opacity="0.028666666666666667" stroke="#000" stroke-opacity="0.02" transform="translate(100,0)"></polyline><polyline points="25,0,50,9,25,18,0,9" fill="#ddd" fill-opacity="0.07200000000000001" stroke="#000" stroke-opacity="0.02" transform="translate(150,0)"></polyline><polyline points="25,0,50,9,25,18,0,9" fill="#222" fill-opacity="0.11533333333333334" stroke="#000" stroke-opacity="0.02" transform="translate(200,0)"></polyline><polyline points="25,0,50,9,25,18,0,9" fill="#222" fill-opacity="0.15" stroke="#000" stroke-opacity="0.02" transform="translate(250,0)"></polyline><polyline points="25,0,50,9,25,18,0,9" fill="#222" fill-opacity="0.11533333333333334" stroke="#000" stroke-opacity="0.02" transform="translate(-25,9)"></polyline><polyline points="25,0,50,9,25,18,0,9" fill="#222" fill-opacity="0.11533333333333334" stroke="#000" stroke-opacity="0.02" transform="translate(275,9)"></polyline><polyline points="25,0,50,9,25,18,0,9" fill="#ddd" fill-opacity="0.05466666666666667" stroke="#000" stroke-opacity="0.02" transform="translate(25,9)"></polyline><polyline points="25,0,50,9,25,18,0,9" fill="#ddd" fill-opacity="0.08933333333333333" stroke="#000" stroke-opacity="0.02" transform="translate(75,9)"></polyline><polyline points="25,0,50,9,25,18,0,9" fill="#ddd" fill-opacity="0.14133333333333334" stroke="#000" stroke-opacity="0.02" transform="translate(125,9)"></polyline><polyline points="25,0,50,9,25,18,0,9" fill="#ddd" fill-opacity="0.07200000000000001" stroke="#000" stroke-opacity="0.02" transform="translate(175,9)"></polyline><polyline points="25,0,50,9,25,18,0,9" fill="#222" fill-opacity="0.098" stroke="#000" stroke-opacity="0.02" transform="translate(225,9)"></polyline><polyline points="25,0,50,9,25,18,0,9" fill="#222" fill-opacity="0.15" stroke="#000" stroke-opacity="0.02" transform="translate(0,18)"></polyline><polyline points="25,0,50,9,25,18,0,9" fill="#222" fill-opacity="0.15" stroke="#000" stroke-opacity="0.02" transform="translate(300,18)"></polyline><polyline points="25,0,50,9,25,18,0,9" fill="#222" fill-opacity="0.08066666666666666" stroke="#000" stroke-opacity="0.02" transform="translate(50,18)"></polyline><polyline points="25,0,50,9,25,18,0,9" fill="#222" fill-opacity="0.11533333333333334" stroke="#000" stroke-opacity="0.02" transform="translate(100,18)"></polyline><polyline points="25,0,50,9,25,18,0,9" fill="#222" fill-opacity="0.08066666666666666" stroke="#000" stroke-opacity="0.02" transform="translate(150,18)"></polyline><polyline points="25,0,50,9,25,18,0,9" fill="#ddd" fill-opacity="0.08933333333333333" stroke="#000" stroke-opacity="0.02" transform="translate(200,18)"></polyline><polyline points="25,0,50,9,25,18,0,9" fill="#ddd" fill-opacity="0.05466666666666667" stroke="#000" stroke-opacity="0.02" transform="translate(250,18)"></polyline><polyline points="25,0,50,9,25,18,0,9" fill="#222" fill-opacity="0.11533333333333334" stroke="#000" stroke-opacity="0.02" transform="translate(-25,27)"></polyline><polyline points="25,0,50,9,25,18,0,9" fill="#222" fill-opacity="0.11533333333333334" stroke="#000" stroke-opacity="0.02" transform="translate(275,27)"></polyline><polyline points="25,0,50,9,25,18,0,9" fill="#222" fill-opacity="0.046" stroke="#000" stroke-opacity="0.02" transform="translate(25,27)"></polyline><polyline points="25,0,50,9,25,18,0,9" fill="#222" fill-opacity="0.028666666666666667" stroke="#000" stroke-opacity="0.02" transform="translate(75,27)"></polyline><polyline points="25,0,50,9,25,18,0,9" fill="#ddd" fill-opacity="0.05466666666666667" stroke="#000" stroke-opacity="0.02" transform="translate(125,27)"></polyline><polyline points="25,0,50,9,25,18,0,9" fill="#222" fill-opacity="0.046" stroke="#000" stroke-opacity="0.02" transform="translate(175,27)"></polyline><polyline points="25,0,50,9,25,18,0,9" fill="#222" fill-opacity="0.06333333333333334" stroke="#000" stroke-opacity="0.02" transform="translate(225,27)"></polyline><polyline points="25,0,50,9,25,18,0,9" fill="#ddd" fill-opacity="0.08933333333333333" stroke="#000" stroke-opacity="0.02" transform="translate(0,36)"></polyline><polyline points="25,0,50,9,25,18,0,9" fill="#ddd" fill-opacity="0.08933333333333333" stroke="#000" stroke-opacity="0.02" transform="translate(300,36)"></polyline><polyline points="25,0,50,9,25,18,0,9" fill="#222" fill-opacity="0.06333333333333334" stroke="#000" stroke-opacity="0.02" transform="translate(50,36)"></polyline><polyline points="25,0,50,9,25,18,0,9" fill="#ddd" fill-opacity="0.05466666666666667" stroke="#000" stroke-opacity="0.02" transform="translate(100,36)"></polyline><polyline points="25,0,50,9,25,18,0,9" fill="#222" fill-opacity="0.06333333333333334" stroke="#000" stroke-opacity="0.02" transform="translate(150,36)"></polyline><polyline points="25,0,50,9,25,18,0,9" fill="#ddd" fill-opacity="0.02" stroke="#000" stroke-opacity="0.02" transform="translate(200,36)"></polyline><polyline points="25,0,50,9,25,18,0,9" fill="#ddd" fill-opacity="0.05466666666666667" stroke="#000" stroke-opacity="0.02" transform="translate(250,36)"></polyline></pattern></defs><rect x="0" y="0" width="840" height="560" fill="url(#pattern)"></rect></svg>