<svg xmlns="http://www.w3.org/2000/svg" width="100" height="100" viewBox="0 0 100 100"><defs><pattern id="pattern" patternUnits="userSpaceOnUse" width="123" height="94"><rect x="0" y="0" width="100%" height="100%" fill="rgb(103,65,142)"></rect><polyline points="10.333333333333332,0,20.666666666666664,15.666666666666666,10.333333333333332,31.333333333333332,0,15.666666666666666" fill="#ddd" fill-opacity="0.05466666666666667" stroke="#000" stroke-opacity="0.02" transform="translate(-10.333333333333332,-15.666666666666666)"></polyline><polyline points="10.333333333333332,0,20.666666666666664,15.666666666666666,10.333333333333332,31.333333333333332,0,15.666666666666666" fill="#ddd" fill-opacity="0.05466666666666667" stroke="#000" stroke-opacity="0.02" transform="translate(113.66666666666666,-15.666666666666666)"></polyline><polyline points="10.333333333333332,0,20.666666666666664,15.666666666666666,10.333333333333332,31.333333333333332,0,15.666666666666666" fill="#ddd" fill-opacity="0.05466666666666667" stroke="#000" stroke-opacity="0.02" transform="translate(-10.333333333333332,78.33333333333333)"></polyline><polyline points="10.333333333333332,0,20.666666666666664,15.666666666666666,10.333333333333332,31.333333333333332,0,15.666666666666666" fill="#ddd" fill-opacity="0.05466666666666667" stroke="#000" stroke-opacity="0.02" transform="translate(113.66666666666666,78.33333333333333)"></polyline><polyline points="10.333333333333332,0,20.666666666666664,15.666666666666666,10.333333333333332,31.333333333333332,0,15.666666666666666" fill="#ddd" fill-opacity="0.08933333333333333" stroke="#000" stroke-opacity="0.02" transform="translate(10.333333333333332,-15.666666666666666)"></polyline><polyline points="10.333333333333332,0,20.666666666666664,15.666666666666666,10.333333333333332,31.333333333333332,0,15.666666666666666" fill="#ddd" fill-opacity="0.08933333333333333" stroke="#000" stroke-opacity="0.02" transform="translate(10.333333333333332,78.33333333333333)"></polyline><polyline points="10.333333333333332,0,20.666666666666664,15.666666666666666,10.333333333333332,31.333333333333332,0,15.666666666666666" fill="#222" fill-opacity="0.11533333333333334" stroke="#000" stroke-opacity="0.02" transform="translate(30.999999999999996,-15.666666666666666)"></polyline><polyline points="10.333333333333332,0,20.666666666666664,15.666666666666666,10.333333333333332,31.333333333333332,0,15.666666666666666" fill="#222" fill-opacity="0.11533333333333334" stroke="#000" stroke-opacity="0.02" transform="translate(30.999999999999996,78.33333333333333)"></polyline><polyline points="10.333333333333332,0,20.666666666666664,15.666666666666666,10.333333333333332,31.333333333333332,0,15.666666666666666" fill="#222" fill-opacity="0.028666666666666667" stroke="#000" stroke-opacity="0.02" transform="translate(51.66666666666666,-15.666666666666666)"></polyline><polyline points="10.333333333333332,0,20.666666666666664,15.666666666666666,10.333333333333332,31.333333333333332,0,15.666666666666666" fill="#222" fill-opacity="0.028666666666666667" stroke="#000" stroke-opacity="0.02" transform="translate(51.66666666666666,78.33333333333333)"></polyline><polyline points="10.333333333333332,0,20.666666666666664,15.666666666666666,10.333333333333332,31.333333333333332,0,15.666666666666666" fill="#222" fill-opacity="0.08066666666666666" stroke="#000" stroke-opacity="0.02" transform="translate(72.33333333333333,-15.666666666666666)"></polyline><polyline points="10.333333333333332,0,20.666666666666664,15.666666666666666,10.333333333333332,31.333333333333332,0,15.666666666666666" fill="#222" fill-opacity="0.08066666666666666" stroke="#000" stroke-opacity="0.02" transform="translate(72.33333333333333,78.33333333333333)"></polyline><polyline points="10.333333333333332,0,20.666666666666664,15.666666666666666,10.333333333333332,31.333333333333332,0,15.666666666666666" fill="#222" fill-opacity="0.06333333333333334" stroke="#000" stroke-opacity="0.02" transform="translate(92.99999999999999,-15.666666666666666)"></polyline><polyline points="10.333333333333332,0,20.666666666666664,15.666666666666666,10.333333333333332,31.333333333333332,0,15.666666666666666" fill="#222" fill-opacity="0.06333333333333334" stroke="#000" stroke-opacity="0.02" transform="translate(92.99999999999999,78.33333333333333)"></polyline><polyline points="10.333333333333332,0,20.666666666666664,15.666666666666666,10.333333333333332,31.333333333333332,0,15.666666666666666" fill="#ddd" fill-opacity="0.03733333333333333" stroke="#000" stroke-opacity="0.02" transform="translate(0,0)"></polyline><polyline points="10.333333333333332,0,20.666666666666664,15.666666666666666,10.333333333333332,31.333333333333332,0,15.666666666666666" fill="#ddd" fill-opacity="0.03733333333333333" stroke="#000" stroke-opacity="0.02" transform="translate(123.99999999999999,0)"></polyline><polyline points="10.333333333333332,0,20.666666666666664,15.666666666666666,10.333333333333332,31.333333333333332,0,15.666666666666666" fill="#ddd" fill-opacity="0.08933333333333333" stroke="#000" stroke-opacity="0.02" transform="translate(20.666666666666664,0)"></polyline><polyline points="10.333333333333332,0,20.666666666666664,15.666666666666666,10.333333333333332,31.333333333333332,0,15.666666666666666" fill="#222" fill-opacity="0.028666666666666667" stroke="#000" stroke-opacity="0.02" transform="translate(41.33333333333333,0)"></polyline><polyline points="10.333333333333332,0,20.666666666666664,15.666666666666666,10.333333333333332,31.333333333333332,0,15.666666666666666" fill="#ddd" fill-opacity="0.03733333333333333" stroke="#000" stroke-opacity="0.02" transform="translate(61.999999999999986,0)"></polyline><polyline points="10.333333333333332,0,20.666666666666664,15.666666666666666,10.333333333333332,31.333333333333332,0,15.666666666666666" fill="#ddd" fill-opacity="0.02" stroke="#000" stroke-opacity="0.02" transform="translate(82.66666666666666,0)"></polyline><polyline points="10.333333333333332,0,20.666666666666664,15.666666666666666,10.333333333333332,31.333333333333332,0,15.666666666666666" fill="#ddd" fill-opacity="0.12400000000000001" stroke="#000" stroke-opacity="0.02" transform="translate(103.33333333333331,0)"></polyline><polyline points="10.333333333333332,0,20.666666666666664,15.666666666666666,10.333333333333332,31.333333333333332,0,15.666666666666666" fill="#222" fill-opacity="0.13266666666666665" stroke="#000" stroke-opacity="0.02" transform="translate(-10.333333333333332,15.666666666666666)"></polyline><polyline points="10.333333333333332,0,20.666666666666664,15.666666666666666,10.333333333333332,31.333333333333332,0,15.666666666666666" fill="#222" fill-opacity="0.13266666666666665" stroke="#000" stroke-opacity="0.02" transform="translate(113.66666666666666,15.666666666666666)"></polyline><polyline points="10.333333333333332,0,20.666666666666664,15.666666666666666,10.333333333333332,31.333333333333332,0,15.666666666666666" fill="#222" fill-opacity="0.11533333333333334" stroke="#000" stroke-opacity="0.02" transform="translate(10.333333333333332,15.666666666666666)"></polyline><polyline points="10.333333333333332,0,20.666666666666664,15.666666666666666,10.333333333333332,31.333333333333332,0,15.666666666666666" fill="#ddd" fill-opacity="0.05466666666666667" stroke="#000" stroke-opacity="0.02" transform="translate(30.999999999999996,15.666666666666666)"></polyline><polyline points="10.333333333333332,0,20.666666666666664,15.666666666666666,10.333333333333332,31.333333333333332,0,15.666666666666666" fill="#ddd" fill-opacity="0.02" stroke="#000" stroke-opacity="0.02" transform="translate(51.66666666666666,15.666666666666666)"></polyline><polyline points="10.333333333333332,0,20.666666666666664,15.666666666666666,10.333333333333332,31.333333333333332,0,15.666666666666666" fill="#ddd" fill-opacity="0.07200000000000001" stroke="#000" stroke-opacity="0.02" transform="translate(72.33333333333333,15.666666666666666)"></polyline><polyline points="10.333333333333332,0,20.666666666666664,15.666666666666666,10.333333333333332,31.333333333333332,0,15.666666666666666" fill="#222" fill-opacity="0.06333333333333334" stroke="#000" stroke-opacity="0.02" transform="translate(92.99999999999999,15.666666666666666)"></polyline><polyline points="10.333333333333332,0,20.666666666666664,15.666666666666666,10.333333333333332,31.333333333333332,0,15.666666666666666" fill="#222" fill-opacity="0.08066666666666666" stroke="#000" stroke-opacity="0.02" transform="translate(0,31.333333333333336)"></polyline><polyline points="10.333333333333332,0,20.666666666666664,15.666666666666666,10.333333333333332,31.333333333333332,0,15.666666666666666" fill="#222" fill-opacity="0.08066666666666666" stroke="#000" stroke-opacity="0.02" transform="translate(123.99999999999999,31.333333333333336)"></polyline><polyline points="10.333333333333332,0,20.666666666666664,15.666666666666666,10.333333333333332,31.333333333333332,0,15.666666666666666" fill="#ddd" fill-opacity="0.03733333333333333" stroke="#000" stroke-opacity="0.02" transform="translate(20.666666666666664,31.333333333333336)"></polyline><polyline points="10.333333333333332,0,20.666666666666664,15.666666666666666,10.333333333333332,31.333333333333332,0,15.666666666666666" fill="#222" fill-opacity="0.11533333333333334" stroke="#000" stroke-opacity="0.02" transform="translate(41.33333333333333,31.333333333333336)"></polyline><polyline points="10.333333333333332,0,20.666666666666664,15.666666666666666,10.333333333333332,31.333333333333332,0,15.666666666666666" fill="#222" fill-opacity="0.08066666666666666" stroke="#000" stroke-opacity="0.02" transform="translate(61.999999999999986,31.333333333333336)"></polyline><polyline points="10.333333333333332,0,20.666666666666664,15.666666666666666,10.333333333333332,31.333333333333332,0,15.666666666666666" fill="#222" fill-opacity="0.098" stroke="#000" stroke-opacity="0.02" transform="translate(82.66666666666666,31.333333333333336)"></polyline><polyline points="10.333333333333332,0,20.666666666666664,15.666666666666666,10.333333333333332,31.333333333333332,0,15.666666666666666" fill="#222" fill-opacity="0.046" stroke="#000" stroke-opacity="0.02" transform="translate(103.33333333333331,31.333333333333336)"></polyline><polyline points="10.333333333333332,0,20.666666666666664,15.666666666666666,10.333333333333332,31.333333333333332,0,15.666666666666666" fill="#222" fill-opacity="0.098" stroke="#000" stroke-opacity="0.02" transform="translate(-10.333333333333332,47)"></polyline><polyline points="10.333333333333332,0,20.666666666666664,15.666666666666666,10.333333333333332,31.333333333333332,0,15.666666666666666" fill="#222" fill-opacity="0.098" stroke="#000" stroke-opacity="0.02" transform="translate(113.66666666666666,47)"></polyline><polyline points="10.333333333333332,0,20.666666666666664,15.666666666666666,10.333333333333332,31.333333333333332,0,15.666666666666666" fill="#ddd" fill-opacity="0.14133333333333334" stroke="#000" stroke-opacity="0.02" transform="translate(10.333333333333332,47)"></polyline><polyline points="10.333333333333332,0,20.666666666666664,15.666666666666666,10.333333333333332,31.333333333333332,0,15.666666666666666" fill="#222" fill-opacity="0.15" stroke="#000" stroke-opacity="0.02" transform="translate(30.999999999999996,47)"></polyline><polyline points="10.333333333333332,0,20.666666666666664,15.666666666666666,10.333333333333332,31.333333333333332,0,15.666666666666666" fill="#222" fill-opacity="0.11533333333333334" stroke="#000" stroke-opacity="0.02" transform="translate(51.66666666666666,47)"></polyline><polyline points="10.333333333333332,0,20.666666666666664,15.666666666666666,10.333333333333332,31.333333333333332,0,15.666666666666666" fill="#222" fill-opacity="0.098" stroke="#000" stroke-opacity="0.02" transform="translate(72.33333333333333,47)"></polyline><polyline points="10.333333333333332,0,20.666666666666664,15.666666666666666,10.333333333333332,31.333333333333332,0,15.666666666666666" fill="#222" fill-opacity="0.11533333333333334" stroke="#000" stroke-opacity="0.02" transform="translate(92.99999999999999,47)"></polyline><polyline points="10.333333333333332,0,20.666666666666664,15.666666666666666,10.333333333333332,31.333333333333332,0,15.666666666666666" fill="#222" fill-opacity="0.08066666666666666" stroke="#000" stroke-opacity="0.02" transform="translate(0,62.666666666666664)"></polyline><polyline points="10.333333333333332,0,20.666666666666664,15.666666666666666,10.333333333333332,31.333333333333332,0,15.666666666666666" fill="#222" fill-opacity="0.08066666666666666" stroke="#000" stroke-opacity="0.02" transform="translate(123.99999999999999,62.666666666666664)"></polyline><polyline points="10.333333333333332,0,20.666666666666664,15.666666666666666,10.333333333333332,31.333333333333332,0,15.666666666666666" fill="#ddd" fill-opacity="0.07200000000000001" stroke="#000" stroke-opacity="0.02" transform="translate(20.666666666666664,62.666666666666664)"></polyline><polyline points="10.333333333333332,0,20.666666666666664,15.666666666666666,10.333333333333332,31.333333333333332,0,15.666666666666666" fill="#222" fill-opacity="0.098" stroke="#000" stroke-opacity="0.02" transform="translate(41.33333333333333,62.666666666666664)"></polyline><polyline points="10.333333333333332,0,20.666666666666664,15.666666666666666,10.333333333333332,31.333333333333332,0,15.666666666666666" fill="#ddd" fill-opacity="0.08933333333333333" stroke="#000" stroke-opacity="0.02" transform="translate(61.999999999999986,62.666666666666664)"></polyline><polyline points="10.333333333333332,0,20.666666666666664,15.666666666666666,10.333333333333332,31.333333333333332,0,15.666666666666666" fill="#222" fill-opacity="0.11533333333333334" stroke="#000" stroke-opacity="0.02" transform="translate(82.66666666666666,62.666666666666664)"></polyline><polyline points="10.333333333333332,0,20.666666666666664,15.666666666666666,10.333333333333332,31.333333333333332,0,15.666666666666666" fill="#ddd" fill-opacity="0.10666666666666667" stroke="#000" stroke-opacity="0.02" transform="translate(103.33333333333331,62.666666666666664)"></polyline></pattern></defs><rect x="0" y="0" width="100" height="100" fill="url(#pattern)"></rect></svg>