<svg xmlns="http://www.w3.org/2000/svg" width="840" height="560" viewBox="0 0 840 560"><defs><pattern id="pattern" patternUnits="userSpaceOnUse" width="280" height="792"><rect x="0" y="0" width="100%" height="100%" fill="rgb(95,52,155)"></rect><path d="M0 100 C 49 0, 91 0, 140 100 S 231 200, 280 100 S 371 0, 420, 100" fill="none" stroke="#222" opacity="0.098" stroke-width="22px" transform="translate(-70,-150)"></path><path d="M0 100 C 49 0, 91 0, 140 100 S 231 200, 280 100 S 371 0, 420, 100" fill="none" stroke="#222" opacity="0.098" stroke-width="22px" transform="translate(-70,642)"></path><path d="M0 100 C 49 0, 91 0, 140 100 S 231 200, 280 100 S 371 0, 420, 100" fill="none" stroke="#222" opacity="0.15" stroke-width="22px" transform="translate(-70,-128)"></path><path d="M0 100 C 49 0, 91 0, 140 100 S 231 200, 280 100 S 371 0, 420, 100" fill="none" stroke="#222" opacity="0.15" stroke-width="22px" transform="translate(-70,664)"></path><path d="M0 100 C 49 0, 91 0, 140 100 S 231 200, 280 100 S 371 0, 420, 100" fill="none" stroke="#222" opacity="0.11533333333333334" stroke-width="22px" transform="translate(-70,-106)"></path><path d="M0 100 C 49 0, 91 0, 140 100 S 231 200, 280 100 S 371 0, 420, 100" fill="none" stroke="#222" opacity="0.11533333333333334" stroke-width="22px" transform="translate(-70,686)"></path><path d="M0 100 C 49 0, 91 0, 140 100 S 231 200, 280 100 S 371 0, 420, 100" fill="none" stroke="#ddd" opacity="0.08933333333333333" stroke-width="22px" transform="translate(-70,-84)"></path><path d="M0 100 C 49 0, 91 0, 140 100 S 231 200, 280 100 S 371 0, 420, 100" fill="none" stroke="#ddd" opacity="0.08933333333333333" stroke-width="22px" transform="translate(-70,708)"></path><path d="M0 100 C 49 0, 91 0, 140 100 S 231 200, 280 100 S 371 0, 420, 100" fill="none" stroke="#ddd" opacity="0.07200000000000001" stroke-width="22px" transform="translate(-70,-62)"></path><path d="M0 100 C 49 0, 91 0, 140 100 S 231 200, 280 100 S 371 0, 420, 100" fill="none" stroke="#ddd" opacity="0.07200000000000001" stroke-width="22px" transform="translate(-70,730)"></path><path d="M0 100 C 49 0, 91 0, 140 100 S 231 200, 280 100 S 371 0, 420, 100" fill="none" stroke="#ddd" opacity="0.12400000000000001" stroke-width="22px" transform="translate(-70,-40)"></path><path d="M0 100 C 49 0, 91 0, 140 100 S 231 200, 280 100 S 371 0, 420, 100" fill="none" stroke="#ddd" opacity="0.12400000000000001" stroke-width="22px" transform="translate(-70,752)"></path><path d="M0 100 C 49 0, 91 0, 140 100 S 231 200, 280 100 S 371 0, 420, 100" fill="none" stroke="#ddd" opacity="0.02" stroke-width="22px" transform="translate(-70,-18)"></path><path d="M0 100 C 49 0, 91 0, 140 100 S 231 200, 280 100 S 371 0, 420, 100" fill="none" stroke="#ddd" opacity="0.02" stroke-width="22px" transform="translate(-70,774)"></path><path d="M0 100 C 49 0, 91 0, 140 100 S 231 200, 280 100 S 371 0, 420, 100" fill="none" stroke="#ddd" opacity="0.05466666666666667" stroke-width="22px" transform="translate(-70,4)"></path><path d="M0 100 C 49 0, 91 0, 140 100 S 231 200, 280 100 S 371 0, 420, 100" fill="none" stroke="#ddd" opacity="0.05466666666666667" stroke-width="22px" transform="translate(-70,796)"></path><path d="M0 100 C 49 0, 91 0, 140 100 S 231 200, 280 100 S 371 0, 420, 100" fill="none" stroke="#ddd" opacity="0.03733333333333333" stroke-width="22px" transform="translate(-70,26)"></path><path d="M0 100 C 49 0, 91 0, 140 100 S 231 200, 280 100 S 371 0, 420, 100" fill="none" stroke="#ddd" opacity="0.03733333333333333" stroke-width="22px" transform="translate(-70,818)"></path><path d="M0 100 C 49 0, 91 0, 140 100 S 231 200, 280 100 S 371 0, 420, 100" fill="none" stroke="#222" opacity="0.15" stroke-width="22px" transform="translate(-70,48)"></path><path d="M0 100 C 49 0, 91 0, 140 100 S 231 200, 280 100 S 371 0, 420, 100" fill="none" stroke="#222" opacity="0.15" stroke-width="22px" transform="translate(-70,840)"></path><path d="M0 100 C 49 0, 91 0, 140 100 S 231 200, 280 100 S 371 0, 420, 100" fill="none" stroke="#222" opacity="0.13266666666666665" stroke-width="22px" transform="translate(-70,70)"></path><path d="M0 100 C 49 0, 91 0, 140 100 S 231 200, 280 100 S 371 0, 420, 100" fill="none" stroke="#222" opacity="0.13266666666666665" stroke-width="22px" transform="translate(-70,862)"></path><path d="M0 100 C 49 0, 91 0, 140 100 S 231 200, 280 100 S 371 0, 420, 100" fill="none" stroke="#ddd" opacity="0.07200000000000001" stroke-width="22px" transform="translate(-70,92)"></path><path d="M0 100 C 49 0, 91 0, 140 100 S 231 200, 280 100 S 371 0, 420, 100" fill="none" stroke="#ddd" opacity="0.07200000000000001" stroke-width="22px" transform="translate(-70,884)"></path><path d="M0 100 C 49 0, 91 0, 140 100 S 231 200, 280 100 S 371 0, 420, 100" fill="none" stroke="#ddd" opacity="0.05466666666666667" stroke-width="22px" transform="translate(-70,114)"></path><path d="M0 100 C 49 0, 91 0, 140 100 S 231 200, 280 100 S 371 0, 420, 100" fill="none" stroke="#ddd" opacity="0.05466666666666667" stroke-width="22px" transform="translate(-70,906)"></path><path d="M0 100 C 49 0, 91 0, 140 100 S 231 200, 280 100 S 371 0, 420, 100" fill="none" stroke="#222" opacity="0.15" stroke-width="22px" transform="translate(-70,136)"></path><path d="M0 100 C 49 0, 91 0, 140 100 S 231 200, 280 100 S 371 0, 420, 100" fill="none" stroke="#222" opacity="0.15" stroke-width="22px" transform="translate(-70,928)"></path><path d="M0 100 C 49 0, 91 0, 140 100 S 231 200, 280 100 S 371 0, 420, 100" fill="none" stroke="#ddd" opacity="0.05466666666666667" stroke-width="22px" transform="translate(-70,158)"></path><path d="M0 100 C 49 0, 91 0, 140 100 S 231 200, 280 100 S 371 0, 420, 100" fill="none" stroke="#ddd" opacity="0.05466666666666667" stroke-width="22px" transform="translate(-70,950)"></path><path d="M0 100 C 49 0, 91 0, 140 100 S 231 200, 280 100 S 371 0, 420, 100" fill="none" stroke="#222" opacity="0.046" stroke-width="22px" transform="translate(-70,180)"></path><path d="M0 100 C 49 0, 91 0, 140 100 S 231 200, 280 100 S 371 0, 420, 100" fill="none" stroke="#222" opacity="0.046" stroke-width="22px" transform="translate(-70,972)"></path><path d="M0 100 C 49 0, 91 0, 140 100 S 231 200, 280 100 S 371 0, 420, 100" fill="none" stroke="#222" opacity="0.13266666666666665" stroke-width="22px" transform="translate(-70,202)"></path><path d="M0 100 C 49 0, 91 0, 140 100 S 231 200, 280 100 S 371 0, 420, 100" fill="none" stroke="#222" opacity="0.13266666666666665" stroke-width="22px" transform="translate(-70,994)"></path><path d="M0 100 C 49 0, 91 0, 140 100 S 231 200, 280 100 S 371 0, 420, 100" fill="none" stroke="#ddd" opacity="0.08933333333333333" stroke-width="22px" transform="translate(-70,224)"></path><path d="M0 100 C 49 0, 91 0, 140 100 S 231 200, 280 100 S 371 0, 420, 100" fill="none" stroke="#ddd" opacity="0.08933333333333333" stroke-width="22px" transform="translate(-70,1016)"></path><path d="M0 100 C 49 0, 91 0, 140 100 S 231 200, 280 100 S 371 0, 420, 100" fill="none" stroke="#ddd" opacity="0.02" stroke-width="22px" transform="translate(-70,246)"></path><path d="M0 100 C 49 0, 91 0, 140 100 S 231 200, 280 100 S 371 0, 420, 100" fill="none" stroke="#ddd" opacity="0.02" stroke-width="22px" transform="translate(-70,1038)"></path><path d="M0 100 C 49 0, 91 0, 140 100 S 231 200, 280 100 S 371 0, 420, 100" fill="none" stroke="#ddd" opacity="0.07200000000000001" stroke-width="22px" transform="translate(-70,268)"></path><path d="M0 100 C 49 0, 91 0, 140 100 S 231 200, 280 100 S 371 0, 420, 100" fill="none" stroke="#ddd" opacity="0.07200000000000001" stroke-width="22px" transform="translate(-70,1060)"></path><path d="M0 100 C 49 0, 91 0, 140 100 S 231 200, 280 100 S 371 0, 420, 100" fill="none" stroke="#ddd" opacity="0.05466666666666667" stroke-width="22px" transform="translate(-70,290)"></path><path d="M0 100 C 49 0, 91 0, 140 100 S 231 200, 280 100 S 371 0, 420, 100" fill="none" stroke="#ddd" opacity="0.05466666666666667" stroke-width="22px" transform="translate(-70,1082)"></path><path d="M0 100 C 49 0, 91 0, 140 100 S 231 200, 280 100 S 371 0, 420, 100" fill="none" stroke="#ddd" opacity="0.05466666666666667" stroke-width="22px" transform="translate(-70,312)"></path><path d="M0 100 C 49 0, 91 0, 140 100 S 231 200, 280 100 S 371 0, 420, 100" fill="none" stroke="#ddd" opacity="0.05466666666666667" stroke-width="22px" transform="translate(-70,1104)"></path><path d="M0 100 C 49 0, 91 0, 140 100 S 231 200, 280 100 S 371 0, 420, 100" fill="none" stroke="#222" opacity="0.13266666666666665" stroke-width="22px" transform="translate(-70,334)"></path><path d="M0 100 C 49 0, 91 0, 140 100 S 231 200, 280 100 S 371 0, 420, 100" fill="none" stroke="#222" opacity="0.13266666666666665" stroke-width="22px" transform="translate(-70,1126)"></path><path d="M0 100 C 49 0, 91 0, 140 100 S 231 200, 280 100 S 371 0, 420, 100" fill="none" stroke="#222" opacity="0.13266666666666665" stroke-width="22px" transform="translate(-70,356)"></path><path d="M0 100 C 49 0, 91 0, 140 100 S 231 200, 280 100 S 371 0, 420, 100" fill="none" stroke="#222" opacity="0.13266666666666665" stroke-width="22px" transform="translate(-70,1148)"></path><path d="M0 100 C 49 0, 91 0, 140 100 S 231 200, 280 100 S 371 0, 420, 100" fill="none" stroke="#222" opacity="0.15" stroke-width="22px" transform="translate(-70,378)"></path><path d="M0 100 C 49 0, 91 0, 140 100 S 231 200, 280 100 S 371 0, 420, 100" fill="none" stroke="#222" opacity="0.15" stroke-width="22px" transform="translate(-70,1170)"></path><path d="M0 100 C 49 0, 91 0, 140 100 S 231 200, 280 100 S 371 0, 420, 100" fill="none" stroke="#222" opacity="0.13266666666666665" stroke-width="22px" transform="translate(-70,400)"></path><path d="M0 100 C 49 0, 91 0, 140 100 S 231 200, 280 100 S 371 0, 420, 100" fill="none" stroke="#222" opacity="0.13266666666666665" stroke-width="22px" transform="translate(-70,1192)"></path><path d="M0 100 C 49 0, 91 0, 140 100 S 231 200, 280 100 S 371 0, 420, 100" fill="none" stroke="#222" opacity="0.028666666666666667" stroke-width="22px" transform="translate(-70,422)"></path><path d="M0 100 C 49 0, 91 0, 140 100 S 231 200, 280 100 S 371 0, 420, 100" fill="none" stroke="#222" opacity="0.028666666666666667" stroke-width="22px" transform="translate(-70,1214)"></path><path d="M0 100 C 49 0, 91 0, 140 100 S 231 200, 280 100 S 371 0, 420, 100" fill="none" stroke="#222" opacity="0.11533333333333334" stroke-width="22px" transform="translate(-70,444)"></path><path d="M0 100 C 49 0, 91 0, 140 100 S 231 200, 280 100 S 371 0, 420, 100" fill="none" stroke="#222" opacity="0.11533333333333334" stroke-width="22px" transform="translate(-70,1236)"></path><path d="M0 100 C 49 0, 91 0, 140 100 S 231 200, 280 100 S 371 0, 420, 100" fill="none" stroke="#ddd" opacity="0.10666666666666667" stroke-width="22px" transform="translate(-70,466)"></path><path d="M0 100 C 49 0, 91 0, 140 100 S 231 200, 280 100 S 371 0, 420, 100" fill="none" stroke="#ddd" opacity="0.10666666666666667" stroke-width="22px" transform="translate(-70,1258)"></path><path d="M0 100 C 49 0, 91 0, 140 100 S 231 200, 280 100 S 371 0, 420, 100" fill="none" stroke="#ddd" opacity="0.12400000000000001" stroke-width="22px" transform="translate(-70,488)"></path><path d="M0 100 C 49 0, 91 0, 140 100 S 231 200, 280 100 S 371 0, 420, 100" fill="none" stroke="#ddd" opacity="0.12400000000000001" stroke-width="22px" transform="translate(-70,1280)"></path><path d="M0 100 C 49 0, 91 0, 140 100 S 231 200, 280 100 S 371 0, 420, 100" fill="none" stroke="#ddd" opacity="0.12400000000000001" stroke-width="22px" transform="translate(-70,510)"></path><path d="M0 100 C 49 0, 91 0, 140 100 S 231 200, 280 100 S 371 0, 420, 100" fill="none" stroke="#ddd" opacity="0.12400000000000001" stroke-width="22px" transform="translate(-70,1302)"></path><path d="M0 100 C 49 0, 91 0, 140 100 S 231 200, 280 100 S 371 0, 420, 100" fill="none" stroke="#222" opacity="0.11533333333333334" stroke-width="22px" transform="translate(-70,532)"></path><path d="M0 100 C 49 0, 91 0, 140 100 S 231 200, 280 100 S 371 0, 420, 100" fill="none" stroke="#222" opacity="0.11533333333333334" stroke-width="22px" transform="translate(-70,1324)"></path><path d="M0 100 C 49 0, 91 0, 140 100 S 231 200, 280 100 S 371 0, 420, 100" fill="none" stroke="#ddd" opacity="0.03733333333333333" stroke-width="22px" transform="translate(-70,554)"></path><path d="M0 100 C 49 0, 91 0, 140 100 S 231 200, 280 100 S 371 0, 420, 100" fill="none" stroke="#ddd" opacity="0.03733333333333333" stroke-width="22px" transform="translate(-70,1346)"></path><path d="M0 100 C 49 0, 91 0, 140 100 S 231 200, 280 100 S 371 0, 420, 100" fill="none" stroke="#222" opacity="0.06333333333333334" stroke-width="22px" transform="translate(-70,576)"></path><path d="M0 100 C 49 0, 91 0, 140 100 S 231 200, 280 100 S 371 0, 420, 100" fill="none" stroke="#222" opacity="0.06333333333333334" stroke-width="22px" transform="translate(-70,1368)"></path><path d="M0 100 C 49 0, 91 0, 140 100 S 231 200, 280 100 S 371 0, 420, 100" fill="none" stroke="#222" opacity="0.13266666666666665" stroke-width="22px" transform="translate(-70,598)"></path><path d="M0 100 C 49 0, 91 0, 140 100 S 231 200, 280 100 S 371 0, 420, 100" fill="none" stroke="#222" opacity="0.13266666666666665" stroke-width="22px" transform="translate(-70,1390)"></path><path d="M0 100 C 49 0, 91 0, 140 100 S 231 200, 280 100 S 371 0, 420, 100" fill="none" stroke="#ddd" opacity="0.03733333333333333" stroke-width="22px" transform="translate(-70,620)"></path><path d="M0 100 C 49 0, 91 0, 140 100 S 231 200, 280 100 S 371 0, 420, 100" fill="none" stroke="#ddd" opacity="0.03733333333333333" stroke-width="22px" transform="translate(-70,1412)"></path></pattern></defs><rect x="0" y="0" width="840" height="560" fill="url(#pattern)"></rect></svg>