<svg xmlns="http://www.w3.org/2000/svg" width="840" height="560" viewBox="0 0 840 560"><defs><pattern id="pattern" patternUnits="userSpaceOnUse" width="71" height="122"><rect x="0" y="0" width="100%" height="100%" fill="rgb(54,153,79)"></rect><polyline points="11.833333333333332,0,23.666666666666664,20.49593455623171,0,20.49593455623171,11.833333333333332,0" fill="#ddd" fill-opacity="0.03733333333333333" stroke="#000" stroke-opacity="0.02" transform="translate(-11.833333333333332,0) rotate(180,11.833333333333332,10.247967278115855)"></polyline><polyline points="11.833333333333332,0,23.666666666666664,20.49593455623171,0,20.49593455623171,11.833333333333332,0" fill="#ddd" fill-opacity="0.03733333333333333" stroke="#000" stroke-opacity="0.02" transform="translate(59.16666666666667,0) rotate(180,11.833333333333332,10.247967278115855)"></polyline><polyline points="11.833333333333332,0,23.666666666666664,20.49593455623171,0,20.49593455623171,11.833333333333332,0" fill="#222" fill-opacity="0.028666666666666667" stroke="#000" stroke-opacity="0.02" transform="translate(0,0) rotate(0,11.833333333333332,10.247967278115855)"></polyline><polyline points="11.833333333333332,0,23.666666666666664,20.49593455623171,0,20.49593455623171,11.833333333333332,0" fill="#222" fill-opacity="0.15" stroke="#000" stroke-opacity="0.02" transform="translate(11.833333333333332,0) rotate(180,11.833333333333332,10.247967278115855)"></polyline><polyline points="11.833333333333332,0,23.666666666666664,20.49593455623171,0,20.49593455623171,11.833333333333332,0" fill="#222" fill-opacity="0.028666666666666667" stroke="#000" stroke-opacity="0.02" transform="translate(23.666666666666668,0) rotate(0,11.833333333333332,10.247967278115855)"></polyline><polyline points="11.833333333333332,0,23.666666666666664,20.49593455623171,0,20.49593455623171,11.833333333333332,0" fill="#222" fill-opacity="0.098" stroke="#000" stroke-opacity="0.02" transform="translate(35.5,0) rotate(180,11.833333333333332,10.247967278115855)"></polyline><polyline points="11.833333333333332,0,23.666666666666664,20.49593455623171,0,20.49593455623171,11.833333333333332,0" fill="#ddd" fill-opacity="0.08933333333333333" stroke="#000" stroke-opacity="0.02" transform="translate(47.33333333333333,0) rotate(0,11.833333333333332,10.247967278115855)"></polyline><polyline points="11.833333333333332,0,23.666666666666664,20.49593455623171,0,20.49593455623171,11.833333333333332,0" fill="#222" fill-opacity="0.11533333333333334" stroke="#000" stroke-opacity="0.02" transform="translate(-11.833333333333332,20.49593455623171) rotate(0,11.833333333333332,10.247967278115855)"></polyline><polyline points="11.833333333333332,0,23.666666666666664,20.49593455623171,0,20.49593455623171,11.833333333333332,0" fill="#222" fill-opacity="0.11533333333333334" stroke="#000" stroke-opacity="0.02" transform="translate(59.16666666666667,20.49593455623171) rotate(0,11.833333333333332,10.247967278115855)"></polyline><polyline points="11.833333333333332,0,23.666666666666664,20.49593455623171,0,20.49593455623171,11.833333333333332,0" fill="#ddd" fill-opacity="0.05466666666666667" stroke="#000" stroke-opacity="0.02" transform="translate(0,20.49593455623171) rotate(180,11.833333333333332,10.247967278115855)"></polyline><polyline points="11.833333333333332,0,23.666666666666664,20.49593455623171,0,20.49593455623171,11.833333333333332,0" fill="#222" fill-opacity="0.046" stroke="#000" stroke-opacity="0.02" transform="translate(11.833333333333332,20.49593455623171) rotate(0,11.833333333333332,10.247967278115855)"></polyline><polyline points="11.833333333333332,0,23.666666666666664,20.49593455623171,0,20.49593455623171,11.833333333333332,0" fill="#222" fill-opacity="0.11533333333333334" stroke="#000" stroke-opacity="0.02" transform="translate(23.666666666666668,20.49593455623171) rotate(180,11.833333333333332,10.247967278115855)"></polyline><polyline points="11.833333333333332,0,23.666666666666664,20.49593455623171,0,20.49593455623171,11.833333333333332,0" fill="#ddd" fill-opacity="0.10666666666666667" stroke="#000" stroke-opacity="0.02" transform="translate(35.5,20.49593455623171) rotate(0,11.833333333333332,10.247967278115855)"></polyline><polyline points="11.833333333333332,0,23.666666666666664,20.49593455623171,0,20.49593455623171,11.833333333333332,0" fill="#ddd" fill-opacity="0.05466666666666667" stroke="#000" stroke-opacity="0.02" transform="translate(47.33333333333333,20.49593455623171) rotate(180,11.833333333333332,10.247967278115855)"></polyline><polyline points="11.833333333333332,0,23.666666666666664,20.49593455623171,0,20.49593455623171,11.833333333333332,0" fill="#ddd" fill-opacity="0.03733333333333333" stroke="#000" stroke-opacity="0.02" transform="translate(-11.833333333333332,40.99186911246342) rotate(180,11.833333333333332,10.247967278115855)"></polyline><polyline points="11.833333333333332,0,23.666666666666664,20.49593455623171,0,20.49593455623171,11.833333333333332,0" fill="#ddd" fill-opacity="0.03733333333333333" stroke="#000" stroke-opacity="0.02" transform="translate(59.16666666666667,40.99186911246342) rotate(180,11.833333333333332,10.247967278115855)"></polyline><polyline points="11.833333333333332,0,23.666666666666664,20.49593455623171,0,20.49593455623171,11.833333333333332,0" fill="#ddd" fill-opacity="0.07200000000000001" stroke="#000" stroke-opacity="0.02" transform="translate(0,40.99186911246342) rotate(0,11.833333333333332,10.247967278115855)"></polyline><polyline points="11.833333333333332,0,23.666666666666664,20.49593455623171,0,20.49593455623171,11.833333333333332,0" fill="#ddd" fill-opacity="0.10666666666666667" stroke="#000" stroke-opacity="0.02" transform="translate(11.833333333333332,40.99186911246342) rotate(180,11.833333333333332,10.247967278115855)"></polyline><polyline points="11.833333333333332,0,23.666666666666664,20.49593455623171,0,20.49593455623171,11.833333333333332,0" fill="#ddd" fill-opacity="0.02" stroke="#000" stroke-opacity="0.02" transform="translate(23.666666666666668,40.99186911246342) rotate(0,11.833333333333332,10.247967278115855)"></polyline><polyline points="11.833333333333332,0,23.666666666666664,20.49593455623171,0,20.49593455623171,11.833333333333332,0" fill="#ddd" fill-opacity="0.03733333333333333" stroke="#000" stroke-opacity="0.02" transform="translate(35.5,40.99186911246342) rotate(180,11.833333333333332,10.247967278115855)"></polyline><polyline points="11.833333333333332,0,23.666666666666664,20.49593455623171,0,20.49593455623171,11.833333333333332,0" fill="#ddd" fill-opacity="0.07200000000000001" stroke="#000" stroke-opacity="0.02" transform="translate(47.33333333333333,40.99186911246342) rotate(0,11.833333333333332,10.247967278115855)"></polyline><polyline points="11.833333333333332,0,23.666666666666664,20.49593455623171,0,20.49593455623171,11.833333333333332,0" fill="#222" fill-opacity="0.028666666666666667" stroke="#000" stroke-opacity="0.02" transform="translate(-11.833333333333332,61.48780366869513) rotate(0,11.833333333333332,10.247967278115855)"></polyline><polyline points="11.833333333333332,0,23.666666666666664,20.49593455623171,0,20.49593455623171,11.833333333333332,0" fill="#222" fill-opacity="0.028666666666666667" stroke="#000" stroke-opacity="0.02" transform="translate(59.16666666666667,61.48780366869513) rotate(0,11.833333333333332,10.247967278115855)"></polyline><polyline points="11.833333333333332,0,23.666666666666664,20.49593455623171,0,20.49593455623171,11.833333333333332,0" fill="#222" fill-opacity="0.06333333333333334" stroke="#000" stroke-opacity="0.02" transform="translate(0,61.48780366869513) rotate(180,11.833333333333332,10.247967278115855)"></polyline><polyline points="11.833333333333332,0,23.666666666666664,20.49593455623171,0,20.49593455623171,11.833333333333332,0" fill="#ddd" fill-opacity="0.08933333333333333" stroke="#000" stroke-opacity="0.02" transform="translate(11.833333333333332,61.48780366869513) rotate(0,11.833333333333332,10.247967278115855)"></polyline><polyline points="11.833333333333332,0,23.666666666666664,20.49593455623171,0,20.49593455623171,11.833333333333332,0" fill="#222" fill-opacity="0.08066666666666666" stroke="#000" stroke-opacity="0.02" transform="translate(23.666666666666668,61.48780366869513) rotate(180,11.833333333333332,10.247967278115855)"></polyline><polyline points="11.833333333333332,0,23.666666666666664,20.49593455623171,0,20.49593455623171,11.833333333333332,0" fill="#222" fill-opacity="0.028666666666666667" stroke="#000" stroke-opacity="0.02" transform="translate(35.5,61.48780366869513) rotate(0,11.833333333333332,10.247967278115855)"></polyline><polyline points="11.833333333333332,0,23.666666666666664,20.49593455623171,0,20.49593455623171,11.833333333333332,0" fill="#222" fill-opacity="0.046" stroke="#000" stroke-opacity="0.02" transform="translate(47.33333333333333,61.48780366869513) rotate(180,11.833333333333332,10.247967278115855)"></polyline><polyline points="11.833333333333332,0,23.666666666666664,20.49593455623171,0,20.49593455623171,11.833333333333332,0" fill="#222" fill-opacity="0.046" stroke="#000" stroke-opacity="0.02" transform="translate(-11.833333333333332,81.98373822492684) rotate(180,11.833333333333332,10.247967278115855)"></polyline><polyline points="11.833333333333332,0,23.666666666666664,20.49593455623171,0,20.49593455623171,11.833333333333332,0" fill="#222" fill-opacity="0.046" stroke="#000" stroke-opacity="0.02" transform="translate(59.16666666666667,81.98373822492684) rotate(180,11.833333333333332,10.247967278115855)"></polyline><polyline points="11.833333333333332,0,23.666666666666664,20.49593455623171,0,20.49593455623171,11.833333333333332,0" fill="#222" fill-opacity="0.08066666666666666" stroke="#000" stroke-opacity="0.02" transform="translate(0,81.98373822492684) rotate(0,11.833333333333332,10.247967278115855)"></polyline><polyline points="11.833333333333332,0,23.666666666666664,20.49593455623171,0,20.49593455623171,11.833333333333332,0" fill="#ddd" fill-opacity="0.02" stroke="#000" stroke-opacity="0.02" transform="translate(11.833333333333332,81.98373822492684) rotate(180,11.833333333333332,10.247967278115855)"></polyline><polyline points="11.833333333333332,0,23.666666666666664,20.49593455623171,0,20.49593455623171,11.833333333333332,0" fill="#ddd" fill-opacity="0.05466666666666667" stroke="#000" stroke-opacity="0.02" transform="translate(23.666666666666668,81.98373822492684) rotate(0,11.833333333333332,10.247967278115855)"></polyline><polyline points="11.833333333333332,0,23.666666666666664,20.49593455623171,0,20.49593455623171,11.833333333333332,0" fill="#ddd" fill-opacity="0.07200000000000001" stroke="#000" stroke-opacity="0.02" transform="translate(35.5,81.98373822492684) rotate(180,11.833333333333332,10.247967278115855)"></polyline><polyline points="11.833333333333332,0,23.666666666666664,20.49593455623171,0,20.49593455623171,11.833333333333332,0" fill="#222" fill-opacity="0.11533333333333334" stroke="#000" stroke-opacity="0.02" transform="translate(47.33333333333333,81.98373822492684) rotate(0,11.833333333333332,10.247967278115855)"></polyline><polyline points="11.833333333333332,0,23.666666666666664,20.49593455623171,0,20.49593455623171,11.833333333333332,0" fill="#ddd" fill-opacity="0.05466666666666667" stroke="#000" stroke-opacity="0.02" transform="translate(-11.833333333333332,102.47967278115854) rotate(0,11.833333333333332,10.247967278115855)"></polyline><polyline points="11.833333333333332,0,23.666666666666664,20.49593455623171,0,20.49593455623171,11.833333333333332,0" fill="#ddd" fill-opacity="0.05466666666666667" stroke="#000" stroke-opacity="0.02" transform="translate(59.16666666666667,102.47967278115854) rotate(0,11.833333333333332,10.247967278115855)"></polyline><polyline points="11.833333333333332,0,23.666666666666664,20.49593455623171,0,20.49593455623171,11.833333333333332,0" fill="#222" fill-opacity="0.098" stroke="#000" stroke-opacity="0.02" transform="translate(0,102.47967278115854) rotate(180,11.833333333333332,10.247967278115855)"></polyline><polyline points="11.833333333333332,0,23.666666666666664,20.49593455623171,0,20.49593455623171,11.833333333333332,0" fill="#ddd" fill-opacity="0.08933333333333333" stroke="#000" stroke-opacity="0.02" transform="translate(11.833333333333332,102.47967278115854) rotate(0,11.833333333333332,10.247967278115855)"></polyline><polyline points="11.833333333333332,0,23.666666666666664,20.49593455623171,0,20.49593455623171,11.833333333333332,0" fill="#222" fill-opacity="0.15" stroke="#000" stroke-opacity="0.02" transform="translate(23.666666666666668,102.47967278115854) rotate(180,11.833333333333332,10.247967278115855)"></polyline><polyline points="11.833333333333332,0,23.666666666666664,20.49593455623171,0,20.49593455623171,11.833333333333332,0" fill="#ddd" fill-opacity="0.03733333333333333" stroke="#000" stroke-opacity="0.02" transform="translate(35.5,102.47967278115854) rotate(0,11.833333333333332,10.247967278115855)"></polyline><polyline points="11.833333333333332,0,23.666666666666664,20.49593455623171,0,20.49593455623171,11.833333333333332,0" fill="#ddd" fill-opacity="0.08933333333333333" stroke="#000" stroke-opacity="0.02" transform="translate(47.33333333333333,102.47967278115854) rotate(180,11.833333333333332,10.247967278115855)"></polyline></pattern></defs><rect x="0" y="0" width="840" height="560" fill="url(#pattern)"></rect></svg>