<svg xmlns="http://www.w3.org/2000/svg" xmlns:xlink="http://www.w3.org/1999/xlink" width="60" height="60" viewBox="0 0 60 60">
    <defs>
        <path id="a" d="M0 0h60v60H0z"/>
    </defs>
    <g fill="none" fill-rule="evenodd">
        <mask id="b" fill="#fff">
            <use xlink:href="#a"/>
        </mask>
        <g stroke="#0057b8" stroke-linecap="round" stroke-linejoin="round" stroke-width="1.5" mask="url(#b)">
            <path d="M29.67 17.206L13.466 1 1 13.467 17.206 29.67M29.67 42.136l16.206 16.206 12.465-12.467-16.206-16.203M17.205 4.74l-3.739 3.74M20.945 8.48l-2.493 2.493M24.685 12.22l-3.74 3.739M47.122 34.657l-3.739 3.74M50.862 38.397l-2.493 2.493M54.601 42.136l-3.739 3.74"/>
            <path d="M51.466 2.462l5.414 5.414a4.985 4.985 0 0 1 0 7.05L18.45 53.356 1 58.342 5.987 40.89 44.415 2.462a4.985 4.985 0 0 1 7.05 0z"/>
            <path d="M5.986 40.89L44.415 2.462a4.985 4.985 0 0 1 7.05 0l5.414 5.414a4.985 4.985 0 0 1 0 7.05L18.451 53.356M5.986 40.89l12.465 12.465M15.959 43.383L50.86 8.48"/>
        </g>
    </g>
</svg>
