<svg xmlns="http://www.w3.org/2000/svg" width="24" height="25" viewBox="0 0 24 25">
    <g fill="none" fill-rule="evenodd">
        <path stroke="#0057b8" stroke-linejoin="round" d="M2.5 21.5h19v-19h-19zM.5 2.5h23v-2H.5z"/>
        <path stroke="#0057b8" stroke-linecap="round" stroke-linejoin="round" d="M2.5 21.5v2.016M21.5 21.5v2.016"/>
        <path stroke="#0057b8" stroke-linejoin="round" d="M2.5 16.5h19M4.5 14.5h6v-10h-6zM13.5 14.5h6v-10h-6z"/>
        <path fill="#0057b8" d="M12 18a1 1 0 1 0 0 2 1 1 0 0 0 0-2M16 8a1 1 0 1 0 0 2 1 1 0 0 0 0-2M8 8a1 1 0 1 0 0 2 1 1 0 0 0 0-2"/>
    </g>
</svg>
