<svg xmlns="http://www.w3.org/2000/svg" width="23" height="24" viewBox="0 0 23 24">
    <g fill="none" fill-rule="evenodd" stroke="#0057b8" stroke-linecap="round" stroke-linejoin="round">
        <path d="M8.055.5c.693 1.191 1.969 2 3.445 2 1.477 0 2.752-.809 3.446-2H8.055zM11.5 2.5V16M1.5 10.5v1a5 5 0 0 0 5 5 5 5 0 0 0 5-5V10"/>
        <path d="M5.5 8v1.5a3 3 0 1 0 6 0M2.5 8a1 1 0 1 1-2 0c0-.552 1-2 1-2s1 1.448 1 2zM6.5 5.5a1 1 0 1 1-2 0c0-.552 1-2 1-2s1 1.448 1 2zM21.5 10.5v1a5 5 0 0 1-5 5 5 5 0 0 1-5-5V10"/>
        <path d="M17.5 8v1.5a3 3 0 1 1-6 0M20.5 8a1 1 0 1 0 2 0c0-.552-1-2-1-2s-1 1.448-1 2zM16.5 5.5a1 1 0 1 0 2 0c0-.552-1-2-1-2s-1 1.448-1 2zM12.5 18.5a1 1 0 1 0-2 0c0 .553 1 2 1 2s1-1.447 1-2zM17.5 21.5a1 1 0 1 0-2 0c0 .553 1 2 1 2s1-1.447 1-2zM16.5 18v1M5.5 21.5a1 1 0 1 1 2 0c0 .553-1 2-1 2s-1-1.447-1-2zM6.5 18v1"/>
    </g>
</svg>
