<svg xmlns="http://www.w3.org/2000/svg" width="840" height="560" viewBox="0 0 840 560"><defs><pattern id="pattern" patternUnits="userSpaceOnUse" width="92" height="102"><rect x="0" y="0" width="100%" height="100%" fill="rgb(136,110,71)"></rect><polyline points="7.666666666666666,0,15.333333333333332,17,7.666666666666666,34,0,17" fill="#ddd" fill-opacity="0.03733333333333333" stroke="#000" stroke-opacity="0.02" transform="translate(-7.666666666666666,-17)"></polyline><polyline points="7.666666666666666,0,15.333333333333332,17,7.666666666666666,34,0,17" fill="#ddd" fill-opacity="0.03733333333333333" stroke="#000" stroke-opacity="0.02" transform="translate(84.33333333333333,-17)"></polyline><polyline points="7.666666666666666,0,15.333333333333332,17,7.666666666666666,34,0,17" fill="#ddd" fill-opacity="0.03733333333333333" stroke="#000" stroke-opacity="0.02" transform="translate(-7.666666666666666,85)"></polyline><polyline points="7.666666666666666,0,15.333333333333332,17,7.666666666666666,34,0,17" fill="#ddd" fill-opacity="0.03733333333333333" stroke="#000" stroke-opacity="0.02" transform="translate(84.33333333333333,85)"></polyline><polyline points="7.666666666666666,0,15.333333333333332,17,7.666666666666666,34,0,17" fill="#222" fill-opacity="0.098" stroke="#000" stroke-opacity="0.02" transform="translate(7.666666666666666,-17)"></polyline><polyline points="7.666666666666666,0,15.333333333333332,17,7.666666666666666,34,0,17" fill="#222" fill-opacity="0.098" stroke="#000" stroke-opacity="0.02" transform="translate(7.666666666666666,85)"></polyline><polyline points="7.666666666666666,0,15.333333333333332,17,7.666666666666666,34,0,17" fill="#222" fill-opacity="0.13266666666666665" stroke="#000" stroke-opacity="0.02" transform="translate(23,-17)"></polyline><polyline points="7.666666666666666,0,15.333333333333332,17,7.666666666666666,34,0,17" fill="#222" fill-opacity="0.13266666666666665" stroke="#000" stroke-opacity="0.02" transform="translate(23,85)"></polyline><polyline points="7.666666666666666,0,15.333333333333332,17,7.666666666666666,34,0,17" fill="#ddd" fill-opacity="0.02" stroke="#000" stroke-opacity="0.02" transform="translate(38.333333333333336,-17)"></polyline><polyline points="7.666666666666666,0,15.333333333333332,17,7.666666666666666,34,0,17" fill="#ddd" fill-opacity="0.02" stroke="#000" stroke-opacity="0.02" transform="translate(38.333333333333336,85)"></polyline><polyline points="7.666666666666666,0,15.333333333333332,17,7.666666666666666,34,0,17" fill="#222" fill-opacity="0.13266666666666665" stroke="#000" stroke-opacity="0.02" transform="translate(53.666666666666664,-17)"></polyline><polyline points="7.666666666666666,0,15.333333333333332,17,7.666666666666666,34,0,17" fill="#222" fill-opacity="0.13266666666666665" stroke="#000" stroke-opacity="0.02" transform="translate(53.666666666666664,85)"></polyline><polyline points="7.666666666666666,0,15.333333333333332,17,7.666666666666666,34,0,17" fill="#ddd" fill-opacity="0.05466666666666667" stroke="#000" stroke-opacity="0.02" transform="translate(68.99999999999999,-17)"></polyline><polyline points="7.666666666666666,0,15.333333333333332,17,7.666666666666666,34,0,17" fill="#ddd" fill-opacity="0.05466666666666667" stroke="#000" stroke-opacity="0.02" transform="translate(68.99999999999999,85)"></polyline><polyline points="7.666666666666666,0,15.333333333333332,17,7.666666666666666,34,0,17" fill="#222" fill-opacity="0.046" stroke="#000" stroke-opacity="0.02" transform="translate(0,0)"></polyline><polyline points="7.666666666666666,0,15.333333333333332,17,7.666666666666666,34,0,17" fill="#222" fill-opacity="0.046" stroke="#000" stroke-opacity="0.02" transform="translate(92,0)"></polyline><polyline points="7.666666666666666,0,15.333333333333332,17,7.666666666666666,34,0,17" fill="#ddd" fill-opacity="0.10666666666666667" stroke="#000" stroke-opacity="0.02" transform="translate(15.333333333333332,0)"></polyline><polyline points="7.666666666666666,0,15.333333333333332,17,7.666666666666666,34,0,17" fill="#222" fill-opacity="0.11533333333333334" stroke="#000" stroke-opacity="0.02" transform="translate(30.666666666666664,0)"></polyline><polyline points="7.666666666666666,0,15.333333333333332,17,7.666666666666666,34,0,17" fill="#222" fill-opacity="0.046" stroke="#000" stroke-opacity="0.02" transform="translate(46,0)"></polyline><polyline points="7.666666666666666,0,15.333333333333332,17,7.666666666666666,34,0,17" fill="#222" fill-opacity="0.06333333333333334" stroke="#000" stroke-opacity="0.02" transform="translate(61.33333333333333,0)"></polyline><polyline points="7.666666666666666,0,15.333333333333332,17,7.666666666666666,34,0,17" fill="#ddd" fill-opacity="0.03733333333333333" stroke="#000" stroke-opacity="0.02" transform="translate(76.66666666666666,0)"></polyline><polyline points="7.666666666666666,0,15.333333333333332,17,7.666666666666666,34,0,17" fill="#ddd" fill-opacity="0.02" stroke="#000" stroke-opacity="0.02" transform="translate(-7.666666666666666,17)"></polyline><polyline points="7.666666666666666,0,15.333333333333332,17,7.666666666666666,34,0,17" fill="#ddd" fill-opacity="0.02" stroke="#000" stroke-opacity="0.02" transform="translate(84.33333333333333,17)"></polyline><polyline points="7.666666666666666,0,15.333333333333332,17,7.666666666666666,34,0,17" fill="#222" fill-opacity="0.08066666666666666" stroke="#000" stroke-opacity="0.02" transform="translate(7.666666666666666,17)"></polyline><polyline points="7.666666666666666,0,15.333333333333332,17,7.666666666666666,34,0,17" fill="#ddd" fill-opacity="0.14133333333333334" stroke="#000" stroke-opacity="0.02" transform="translate(23,17)"></polyline><polyline points="7.666666666666666,0,15.333333333333332,17,7.666666666666666,34,0,17" fill="#222" fill-opacity="0.08066666666666666" stroke="#000" stroke-opacity="0.02" transform="translate(38.333333333333336,17)"></polyline><polyline points="7.666666666666666,0,15.333333333333332,17,7.666666666666666,34,0,17" fill="#ddd" fill-opacity="0.03733333333333333" stroke="#000" stroke-opacity="0.02" transform="translate(53.666666666666664,17)"></polyline><polyline points="7.666666666666666,0,15.333333333333332,17,7.666666666666666,34,0,17" fill="#222" fill-opacity="0.11533333333333334" stroke="#000" stroke-opacity="0.02" transform="translate(68.99999999999999,17)"></polyline><polyline points="7.666666666666666,0,15.333333333333332,17,7.666666666666666,34,0,17" fill="#ddd" fill-opacity="0.02" stroke="#000" stroke-opacity="0.02" transform="translate(0,34)"></polyline><polyline points="7.666666666666666,0,15.333333333333332,17,7.666666666666666,34,0,17" fill="#ddd" fill-opacity="0.02" stroke="#000" stroke-opacity="0.02" transform="translate(92,34)"></polyline><polyline points="7.666666666666666,0,15.333333333333332,17,7.666666666666666,34,0,17" fill="#222" fill-opacity="0.046" stroke="#000" stroke-opacity="0.02" transform="translate(15.333333333333332,34)"></polyline><polyline points="7.666666666666666,0,15.333333333333332,17,7.666666666666666,34,0,17" fill="#222" fill-opacity="0.11533333333333334" stroke="#000" stroke-opacity="0.02" transform="translate(30.666666666666664,34)"></polyline><polyline points="7.666666666666666,0,15.333333333333332,17,7.666666666666666,34,0,17" fill="#222" fill-opacity="0.046" stroke="#000" stroke-opacity="0.02" transform="translate(46,34)"></polyline><polyline points="7.666666666666666,0,15.333333333333332,17,7.666666666666666,34,0,17" fill="#ddd" fill-opacity="0.05466666666666667" stroke="#000" stroke-opacity="0.02" transform="translate(61.33333333333333,34)"></polyline><polyline points="7.666666666666666,0,15.333333333333332,17,7.666666666666666,34,0,17" fill="#222" fill-opacity="0.046" stroke="#000" stroke-opacity="0.02" transform="translate(76.66666666666666,34)"></polyline><polyline points="7.666666666666666,0,15.333333333333332,17,7.666666666666666,34,0,17" fill="#ddd" fill-opacity="0.05466666666666667" stroke="#000" stroke-opacity="0.02" transform="translate(-7.666666666666666,51)"></polyline><polyline points="7.666666666666666,0,15.333333333333332,17,7.666666666666666,34,0,17" fill="#ddd" fill-opacity="0.05466666666666667" stroke="#000" stroke-opacity="0.02" transform="translate(84.33333333333333,51)"></polyline><polyline points="7.666666666666666,0,15.333333333333332,17,7.666666666666666,34,0,17" fill="#222" fill-opacity="0.11533333333333334" stroke="#000" stroke-opacity="0.02" transform="translate(7.666666666666666,51)"></polyline><polyline points="7.666666666666666,0,15.333333333333332,17,7.666666666666666,34,0,17" fill="#222" fill-opacity="0.15" stroke="#000" stroke-opacity="0.02" transform="translate(23,51)"></polyline><polyline points="7.666666666666666,0,15.333333333333332,17,7.666666666666666,34,0,17" fill="#ddd" fill-opacity="0.03733333333333333" stroke="#000" stroke-opacity="0.02" transform="translate(38.333333333333336,51)"></polyline><polyline points="7.666666666666666,0,15.333333333333332,17,7.666666666666666,34,0,17" fill="#222" fill-opacity="0.08066666666666666" stroke="#000" stroke-opacity="0.02" transform="translate(53.666666666666664,51)"></polyline><polyline points="7.666666666666666,0,15.333333333333332,17,7.666666666666666,34,0,17" fill="#222" fill-opacity="0.11533333333333334" stroke="#000" stroke-opacity="0.02" transform="translate(68.99999999999999,51)"></polyline><polyline points="7.666666666666666,0,15.333333333333332,17,7.666666666666666,34,0,17" fill="#222" fill-opacity="0.028666666666666667" stroke="#000" stroke-opacity="0.02" transform="translate(0,68)"></polyline><polyline points="7.666666666666666,0,15.333333333333332,17,7.666666666666666,34,0,17" fill="#222" fill-opacity="0.028666666666666667" stroke="#000" stroke-opacity="0.02" transform="translate(92,68)"></polyline><polyline points="7.666666666666666,0,15.333333333333332,17,7.666666666666666,34,0,17" fill="#ddd" fill-opacity="0.08933333333333333" stroke="#000" stroke-opacity="0.02" transform="translate(15.333333333333332,68)"></polyline><polyline points="7.666666666666666,0,15.333333333333332,17,7.666666666666666,34,0,17" fill="#222" fill-opacity="0.13266666666666665" stroke="#000" stroke-opacity="0.02" transform="translate(30.666666666666664,68)"></polyline><polyline points="7.666666666666666,0,15.333333333333332,17,7.666666666666666,34,0,17" fill="#ddd" fill-opacity="0.14133333333333334" stroke="#000" stroke-opacity="0.02" transform="translate(46,68)"></polyline><polyline points="7.666666666666666,0,15.333333333333332,17,7.666666666666666,34,0,17" fill="#222" fill-opacity="0.06333333333333334" stroke="#000" stroke-opacity="0.02" transform="translate(61.33333333333333,68)"></polyline><polyline points="7.666666666666666,0,15.333333333333332,17,7.666666666666666,34,0,17" fill="#222" fill-opacity="0.098" stroke="#000" stroke-opacity="0.02" transform="translate(76.66666666666666,68)"></polyline></pattern></defs><rect x="0" y="0" width="840" height="560" fill="url(#pattern)"></rect></svg>